<svg width="351" height="134" viewBox="0 0 351 134" fill="none" xmlns="http://www.w3.org/2000/svg">
<g clip-path="url(#clip0_4495_36715)">
<rect width="351" height="134" fill="#E7E7E7"/>
<rect x="231.5" y="30" width="180" height="180" rx="17" fill="#DCDCDC"/>
<rect x="240.5" y="45" width="146" height="29" rx="8" fill="#CFCFCF"/>
<path opacity="0.5" d="M251.033 62.5781C250.706 62.5781 250.486 62.3779 250.486 62.0801C250.486 61.9971 250.506 61.8896 250.555 61.7578L252.698 55.9473C252.84 55.5566 253.079 55.376 253.465 55.376C253.846 55.376 254.08 55.5518 254.227 55.9424L256.375 61.7578C256.424 61.8945 256.443 61.9873 256.443 62.0801C256.443 62.3682 256.214 62.5781 255.896 62.5781C255.604 62.5781 255.442 62.4414 255.345 62.1289L254.808 60.6104H252.112L251.58 62.124C251.478 62.4414 251.316 62.5781 251.033 62.5781ZM252.391 59.7168H254.529L253.47 56.626H253.44L252.391 59.7168ZM259.141 62.5879C257.842 62.5879 256.983 61.5527 256.983 59.9316C256.983 58.3105 257.842 57.2803 259.131 57.2803C259.869 57.2803 260.454 57.6514 260.743 58.2178H260.762V55.918C260.762 55.5713 260.982 55.3613 261.294 55.3613C261.602 55.3613 261.822 55.5713 261.822 55.918V62.0654C261.822 62.3975 261.607 62.5928 261.299 62.5928C261.001 62.5928 260.762 62.3975 260.762 62.0654V61.5869H260.747C260.484 62.1875 259.942 62.5879 259.141 62.5879ZM259.419 61.6943C260.23 61.6943 260.772 61.0059 260.772 59.9316C260.772 58.8672 260.23 58.1689 259.419 58.1689C258.584 58.1689 258.062 58.8525 258.062 59.9316C258.062 61.0156 258.584 61.6943 259.419 61.6943ZM264.934 62.5879C263.636 62.5879 262.776 61.5527 262.776 59.9316C262.776 58.3105 263.636 57.2803 264.925 57.2803C265.662 57.2803 266.248 57.6514 266.536 58.2178H266.555V55.918C266.555 55.5713 266.775 55.3613 267.088 55.3613C267.395 55.3613 267.615 55.5713 267.615 55.918V62.0654C267.615 62.3975 267.4 62.5928 267.093 62.5928C266.795 62.5928 266.555 62.3975 266.555 62.0654V61.5869H266.541C266.277 62.1875 265.735 62.5879 264.934 62.5879ZM265.213 61.6943C266.023 61.6943 266.565 61.0059 266.565 59.9316C266.565 58.8672 266.023 58.1689 265.213 58.1689C264.378 58.1689 263.855 58.8525 263.855 59.9316C263.855 61.0156 264.378 61.6943 265.213 61.6943ZM272.434 62.5879C271.428 62.5879 270.72 61.9629 270.72 61.04C270.72 60.1416 271.414 59.5898 272.629 59.5215L274.041 59.4385V59.043C274.041 58.4717 273.655 58.1299 273.01 58.1299C272.503 58.1299 272.166 58.3105 271.873 58.7793C271.765 58.9355 271.629 59.0039 271.443 59.0039C271.179 59.0039 270.989 58.8281 270.989 58.5645C270.989 58.457 271.018 58.3398 271.082 58.2227C271.35 57.6416 272.127 57.2705 273.049 57.2705C274.295 57.2705 275.09 57.9297 275.09 58.96V62.0605C275.09 62.3926 274.88 62.5928 274.583 62.5928C274.29 62.5928 274.089 62.4023 274.08 62.0898V61.6553H274.055C273.757 62.2266 273.103 62.5879 272.434 62.5879ZM272.722 61.7529C273.46 61.7529 274.041 61.2451 274.041 60.5762V60.1709L272.771 60.249C272.141 60.293 271.785 60.5713 271.785 61.0107C271.785 61.46 272.161 61.7529 272.722 61.7529ZM278.874 64.3213C278.562 64.3213 278.347 64.1064 278.347 63.7598V57.8125C278.347 57.4756 278.557 57.2705 278.855 57.2705C279.153 57.2705 279.368 57.4756 279.368 57.8125V58.2471H279.387C279.69 57.6562 280.281 57.2803 281.023 57.2803C282.327 57.2803 283.186 58.3057 283.186 59.9316C283.186 61.5576 282.331 62.5879 281.042 62.5879C280.305 62.5879 279.719 62.2266 279.426 61.6553H279.402V63.7598C279.402 64.1064 279.182 64.3213 278.874 64.3213ZM280.745 61.6943C281.579 61.6943 282.102 61.0107 282.102 59.9316C282.102 58.8574 281.579 58.1689 280.745 58.1689C279.939 58.1689 279.397 58.8721 279.397 59.9316C279.397 61.001 279.934 61.6943 280.745 61.6943ZM285.879 62.5928C284.761 62.5928 284.077 61.8652 284.077 60.6885V57.832C284.077 57.4805 284.292 57.2705 284.604 57.2705C284.912 57.2705 285.132 57.4805 285.132 57.832V60.4834C285.132 61.2646 285.503 61.6846 286.23 61.6846C286.992 61.6846 287.451 61.1572 287.451 60.3564V57.832C287.451 57.4805 287.671 57.2705 287.978 57.2705C288.291 57.2705 288.506 57.4805 288.506 57.832V62.0557C288.506 62.3828 288.305 62.5928 288.003 62.5928C287.7 62.5928 287.495 62.3828 287.495 62.0605V61.6309H287.471C287.187 62.2461 286.665 62.5928 285.879 62.5928ZM290.49 62.5928C290.168 62.5928 289.958 62.3926 289.958 62.041V58.1982H289.592C289.343 58.1982 289.172 58.0518 289.172 57.7881C289.172 57.5342 289.343 57.373 289.592 57.373H289.958V56.8701C289.958 55.874 290.442 55.4102 291.325 55.4053C291.887 55.4053 292.155 55.5859 292.155 55.8691C292.155 56.04 292.072 56.1426 291.902 56.1914C291.828 56.2109 291.74 56.2256 291.633 56.2256C291.189 56.2305 291.003 56.4404 291.003 56.9092V57.373H291.696C291.946 57.373 292.116 57.5342 292.116 57.7881C292.116 58.0518 291.946 58.1982 291.696 58.1982H291.018V62.041C291.018 62.3926 290.808 62.5928 290.49 62.5928ZM293.813 62.5928C293.491 62.5928 293.281 62.3926 293.281 62.041V58.1982H292.915C292.666 58.1982 292.495 58.0518 292.495 57.7881C292.495 57.5342 292.666 57.373 292.915 57.373H293.281V56.8701C293.281 55.874 293.764 55.4102 294.648 55.4053C295.21 55.4053 295.478 55.5859 295.478 55.8691C295.478 56.04 295.395 56.1426 295.224 56.1914C295.151 56.2109 295.063 56.2256 294.956 56.2256C294.511 56.2305 294.326 56.4404 294.326 56.9092V57.373H295.019C295.268 57.373 295.439 57.5342 295.439 57.7881C295.439 58.0518 295.268 58.1982 295.019 58.1982H294.34V62.041C294.34 62.3926 294.13 62.5928 293.813 62.5928Z" fill="#030303"/>
</g>
<defs>
<clipPath id="clip0_4495_36715">
<rect width="351" height="134" fill="white"/>
</clipPath>
</defs>
</svg>
