<svg width="351" height="134" viewBox="0 0 351 134" fill="none" xmlns="http://www.w3.org/2000/svg">
<rect width="351" height="134" fill="#E7E7E7"/>
<rect x="271.066" y="19.0273" width="41.7311" height="95.9392" rx="20.8655" fill="#DBDBDB" stroke="#D2D2D2" stroke-width="5"/>
<path d="M303.119 59.752C302.397 58.98 295.225 54.1487 294.079 53.6756C293.033 53.2273 290.867 53.2522 289.845 53.6756C289.422 53.8748 287.181 55.2694 284.915 56.8134C281.279 59.229 280.681 59.7271 280.258 60.6236C279.66 61.9435 279.66 62.3917 280.283 63.6618C280.706 64.5334 281.403 65.1311 284.466 67.1981C289.472 70.6098 290.02 70.8588 291.987 70.8588C293.183 70.8588 293.88 70.7094 294.652 70.311C296.171 69.5141 301.948 65.5793 302.895 64.6828C304.339 63.338 304.439 61.1715 303.119 59.752Z" fill="#AAAAAA"/>
<path d="M292.012 72.2534C290.02 72.2534 288.849 71.7803 285.811 69.7631C284.367 68.7919 283.072 68.0199 282.922 68.0199C282.399 68.0199 281.104 68.9662 280.557 69.7382C279.735 70.8588 279.635 71.9795 280.233 73.2994C280.656 74.2955 281.154 74.694 284.89 77.2341C287.206 78.7781 289.596 80.1976 290.219 80.3968C291.614 80.8451 293.357 80.6707 294.652 79.9984C296.793 78.9026 302.845 74.5694 303.368 73.7725C304.09 72.7017 304.14 70.9336 303.492 69.9374C302.97 69.1903 301.525 68.0199 301.052 68.0199C300.903 68.0199 299.608 68.7919 298.188 69.7382C295.05 71.7803 293.93 72.2534 292.012 72.2534Z" fill="#AAAAAA"/>
</svg>
