<svg width="22" height="22" viewBox="0 0 22 22" fill="none" xmlns="http://www.w3.org/2000/svg">
<path d="M4.125 12.3206C4.125 13.0816 4.64774 13.5911 5.4153 13.5911H8.40615V16.5886C8.40615 17.3562 8.91566 17.8723 9.6766 17.8723H12.3234C13.0844 17.8723 13.5938 17.3562 13.5938 16.5886V13.5911H16.5913C17.3588 13.5911 17.875 13.0816 17.875 12.3206V9.67389C17.875 8.91295 17.3588 8.40344 16.5913 8.40344H13.5938V5.41259C13.5938 4.64503 13.0844 4.12891 12.3234 4.12891H9.6766C8.91566 4.12891 8.40615 4.64503 8.40615 5.41259V8.40344H5.40868C4.64112 8.40344 4.125 8.91295 4.125 9.67389V12.3206Z" fill="white"/>
</svg>
