<svg width="351" height="134" viewBox="0 0 351 134" fill="none" xmlns="http://www.w3.org/2000/svg">
<g clip-path="url(#clip0_4476_22759)">
<rect width="351" height="134" fill="#E7E7E7"/>
<rect x="231" y="30" width="180" height="180" rx="17" fill="#DCDCDC"/>
<rect x="240.445" y="92" width="31.0681" height="31.0681" rx="15.534" fill="#CFCFCF"/>
<rect x="255.23" y="103.034" width="1.5" height="9" rx="0.75" fill="white"/>
<rect x="251.48" y="108.283" width="1.5" height="9" rx="0.75" transform="rotate(-90 251.48 108.283)" fill="white"/>
<rect x="329.445" y="92" width="31.0681" height="31.0681" rx="15.534" fill="#CFCFCF"/>
<path d="M342.182 101.449V101.275C342.182 100.438 342.6 100.019 343.408 100.019H346.979C347.786 100.019 348.205 100.438 348.205 101.275V101.449H342.182ZM344.628 114.339C343.827 114.339 343.402 113.908 343.402 113.077V106.108C343.402 105.456 343.258 105.026 343.025 104.667L342.684 104.128C342.385 103.668 342.182 103.255 342.182 102.705V102.232H348.205V102.705C348.205 103.255 348.002 103.668 347.709 104.128L347.362 104.667C347.134 105.026 346.985 105.456 346.985 106.108V113.077C346.985 113.908 346.56 114.339 345.759 114.339H344.628ZM344.102 106.659V108.555C344.102 109.165 344.58 109.649 345.196 109.649C345.812 109.649 346.291 109.165 346.291 108.555V106.659C346.291 106.043 345.812 105.564 345.196 105.564C344.58 105.564 344.102 106.043 344.102 106.659ZM345.196 109.261C344.796 109.261 344.484 108.962 344.484 108.555C344.484 108.166 344.802 107.849 345.196 107.849C345.591 107.849 345.902 108.166 345.902 108.555C345.902 108.962 345.603 109.261 345.196 109.261Z" fill="white"/>
</g>
<defs>
<clipPath id="clip0_4476_22759">
<rect width="351" height="134" fill="white"/>
</clipPath>
</defs>
</svg>
