<svg width="351" height="134" viewBox="0 0 351 134" fill="none" xmlns="http://www.w3.org/2000/svg">
<g clip-path="url(#clip0_4476_22709)">
<rect width="351" height="134" fill="#E7E7E7"/>
<rect x="231" y="30" width="180" height="180" rx="17" fill="#DCDCDC"/>
<rect x="240" y="45" width="146" height="29" rx="8" fill="#CFCFCF"/>
<rect x="246" y="51.5" width="16" height="16" rx="3" fill="#AAAAAA"/>
<g clip-path="url(#clip1_4476_22709)">
<path d="M255.664 63.3908C257.479 62.732 258.095 61.2188 257.39 59.2812L257.099 58.4773C256.833 57.7467 256.311 57.4105 255.895 57.5594C255.795 57.5986 255.757 57.6765 255.793 57.7732L255.92 58.1223C255.977 58.2777 255.927 58.3809 255.834 58.4174C255.736 58.4504 255.632 58.4037 255.574 58.2467L255.491 58.02C255.333 57.5793 254.942 57.39 254.559 57.5307C254.38 57.5966 254.325 57.7063 254.381 57.8607L254.553 58.3372C254.611 58.4942 254.561 58.5958 254.471 58.6323C254.369 58.6688 254.265 58.6202 254.211 58.4624L254.049 58.0232C253.872 57.5353 253.502 57.3951 253.121 57.5346C252.95 57.5962 252.887 57.7137 252.944 57.863L253.283 58.7991C253.34 58.9553 253.294 59.0585 253.201 59.0943C253.103 59.1308 252.999 59.0805 252.942 58.9236L251.811 55.823C251.697 55.5039 251.41 55.3707 251.136 55.469C250.845 55.5753 250.72 55.8595 250.835 56.1786L252.475 60.6856C252.515 60.7908 252.47 60.8665 252.405 60.8908C252.343 60.9144 252.279 60.8944 252.198 60.8096L251.097 59.6249C250.925 59.4422 250.737 59.3796 250.527 59.4588C250.224 59.5666 250.102 59.8429 250.194 60.1054C250.231 60.2007 250.28 60.2775 250.331 60.3374L251.753 62.1111C252.94 63.588 254.305 63.8844 255.664 63.3908Z" fill="#D9D9D9"/>
</g>
<path opacity="0.5" d="M268.494 63.5938C268.09 63.5938 267.838 63.3301 267.838 62.9141V55.6309C267.838 55.2148 268.09 54.9512 268.494 54.9512C268.893 54.9512 269.15 55.2148 269.15 55.6309V58.8301H269.197L272.742 55.2207C272.936 55.0215 273.059 54.9512 273.258 54.9512C273.592 54.9512 273.85 55.1973 273.85 55.502C273.85 55.6602 273.797 55.8008 273.668 55.9297L270.492 59.0762L273.938 62.5039C274.072 62.6504 274.137 62.791 274.137 62.9727C274.137 63.3242 273.867 63.5938 273.51 63.5938C273.275 63.5938 273.135 63.5059 272.889 63.2598L269.197 59.5332H269.15V62.9141C269.15 63.3301 268.893 63.5938 268.494 63.5938ZM277.087 63.6055C275.88 63.6055 275.03 62.8555 275.03 61.748C275.03 60.6699 275.862 60.0078 277.321 59.9258L279.015 59.8262V59.3516C279.015 58.666 278.552 58.2559 277.778 58.2559C277.169 58.2559 276.765 58.4727 276.413 59.0352C276.284 59.2227 276.12 59.3047 275.897 59.3047C275.581 59.3047 275.352 59.0938 275.352 58.7773C275.352 58.6484 275.388 58.5078 275.464 58.3672C275.786 57.6699 276.718 57.2246 277.825 57.2246C279.319 57.2246 280.274 58.0156 280.274 59.252V62.9727C280.274 63.3711 280.022 63.6113 279.665 63.6113C279.313 63.6113 279.073 63.3828 279.061 63.0078V62.4863H279.032C278.675 63.1719 277.89 63.6055 277.087 63.6055ZM277.432 62.6035C278.317 62.6035 279.015 61.9941 279.015 61.1914V60.7051L277.491 60.7988C276.735 60.8516 276.307 61.1855 276.307 61.7129C276.307 62.252 276.759 62.6035 277.432 62.6035ZM284.361 63.6172C282.597 63.6172 281.449 62.3926 281.449 60.4297C281.449 58.4785 282.592 57.2246 284.349 57.2246C285.539 57.2246 286.558 57.8574 286.828 58.7188C286.869 58.8184 286.886 58.9238 286.886 59.0117C286.886 59.334 286.658 59.5332 286.347 59.5332C286.078 59.5332 285.926 59.4277 285.773 59.1465C285.457 58.5605 285.023 58.2793 284.379 58.2793C283.383 58.2793 282.738 59.1055 282.738 60.418C282.738 61.7598 283.394 62.5566 284.373 62.5566C285.058 62.5566 285.474 62.252 285.773 61.7188C285.949 61.4141 286.09 61.3086 286.359 61.3086C286.67 61.3086 286.898 61.5195 286.898 61.8359C286.898 61.9355 286.875 62.041 286.828 62.1641C286.506 63.0137 285.504 63.6172 284.361 63.6172ZM289.948 63.6055C288.741 63.6055 287.891 62.8555 287.891 61.748C287.891 60.6699 288.723 60.0078 290.182 59.9258L291.876 59.8262V59.3516C291.876 58.666 291.413 58.2559 290.639 58.2559C290.03 58.2559 289.626 58.4727 289.274 59.0352C289.145 59.2227 288.981 59.3047 288.758 59.3047C288.442 59.3047 288.214 59.0938 288.214 58.7773C288.214 58.6484 288.249 58.5078 288.325 58.3672C288.647 57.6699 289.579 57.2246 290.686 57.2246C292.18 57.2246 293.135 58.0156 293.135 59.252V62.9727C293.135 63.3711 292.883 63.6113 292.526 63.6113C292.174 63.6113 291.934 63.3828 291.923 63.0078V62.4863H291.893C291.536 63.1719 290.751 63.6055 289.948 63.6055ZM290.294 62.6035C291.178 62.6035 291.876 61.9941 291.876 61.1914V60.7051L290.352 60.7988C289.596 60.8516 289.169 61.1855 289.169 61.7129C289.169 62.252 289.62 62.6035 290.294 62.6035ZM295.212 63.6113C294.832 63.6113 294.585 63.3477 294.585 62.9434V57.8984C294.585 57.4883 294.832 57.2246 295.212 57.2246C295.593 57.2246 295.845 57.4883 295.845 57.8984V59.8203H298.634V57.8984C298.634 57.4883 298.88 57.2246 299.267 57.2246C299.648 57.2246 299.894 57.4883 299.894 57.8984V62.9434C299.894 63.3477 299.648 63.6113 299.267 63.6113C298.88 63.6113 298.634 63.3477 298.634 62.9434V60.8164H295.845V62.9434C295.845 63.3477 295.593 63.6113 295.212 63.6113ZM302.077 63.6113C301.625 63.6113 301.385 63.3418 301.385 62.9082V57.875C301.385 57.4707 301.643 57.2246 302.006 57.2246C302.37 57.2246 302.633 57.4707 302.633 57.875V61.6543H302.68L305.287 57.7051C305.516 57.3535 305.733 57.2246 306.079 57.2246C306.5 57.2246 306.776 57.4941 306.776 57.9277V62.9609C306.776 63.3711 306.512 63.6113 306.149 63.6113C305.786 63.6113 305.528 63.3711 305.528 62.9609V59.1699H305.481L302.868 63.1367C302.639 63.4883 302.422 63.6113 302.077 63.6113ZM310.933 63.6172C309.075 63.6172 307.986 62.4395 307.986 60.4473C307.986 58.4902 309.099 57.2246 310.845 57.2246C312.486 57.2246 313.616 58.4082 313.616 60.0898C313.616 60.5 313.382 60.7344 312.99 60.7344H309.263V60.7637C309.263 61.8887 309.896 62.5918 310.904 62.5918C311.595 62.5918 312.029 62.3516 312.497 61.7129C312.632 61.5547 312.761 61.4902 312.943 61.4902C313.247 61.4902 313.47 61.6895 313.47 62.0059C313.47 62.1055 313.435 62.2227 313.382 62.3457C312.978 63.1543 312.081 63.6172 310.933 63.6172ZM309.269 59.8496H312.351C312.322 58.8828 311.718 58.2441 310.839 58.2441C309.966 58.2441 309.333 58.8887 309.269 59.8496Z" fill="#030303"/>
</g>
<defs>
<clipPath id="clip0_4476_22709">
<rect width="351" height="134" fill="white"/>
</clipPath>
<clipPath id="clip1_4476_22709">
<rect width="7.67188" height="8.2224" fill="white" transform="translate(250.164 55.3889)"/>
</clipPath>
</defs>
</svg>
