<svg width="351" height="134" viewBox="0 0 351 134" fill="none" xmlns="http://www.w3.org/2000/svg">
<g clip-path="url(#clip0_4495_36703)">
<rect width="351" height="134" fill="#E7E7E7"/>
<rect x="231" y="30" width="180" height="180" rx="17" fill="#DCDCDC"/>
<rect x="240" y="45" width="146" height="29" rx="8" fill="#CFCFCF"/>
<rect x="246" y="51.5" width="16" height="16" rx="3" fill="#AAAAAA"/>
<g clip-path="url(#clip1_4495_36703)">
<path d="M255.664 63.3908C257.479 62.732 258.095 61.2188 257.39 59.2812L257.099 58.4773C256.833 57.7467 256.311 57.4105 255.895 57.5594C255.795 57.5986 255.757 57.6765 255.793 57.7732L255.92 58.1223C255.977 58.2777 255.927 58.3809 255.834 58.4174C255.736 58.4504 255.632 58.4037 255.574 58.2467L255.491 58.02C255.333 57.5793 254.942 57.39 254.559 57.5307C254.38 57.5966 254.325 57.7063 254.381 57.8607L254.553 58.3372C254.611 58.4942 254.561 58.5958 254.471 58.6323C254.369 58.6688 254.265 58.6202 254.211 58.4624L254.049 58.0232C253.872 57.5353 253.502 57.3951 253.121 57.5346C252.95 57.5962 252.887 57.7137 252.944 57.863L253.283 58.7991C253.34 58.9553 253.294 59.0585 253.201 59.0943C253.103 59.1308 252.999 59.0805 252.942 58.9236L251.811 55.823C251.697 55.5039 251.41 55.3707 251.136 55.469C250.845 55.5753 250.72 55.8595 250.835 56.1786L252.475 60.6856C252.515 60.7908 252.47 60.8665 252.405 60.8908C252.343 60.9144 252.279 60.8944 252.198 60.8096L251.097 59.6249C250.925 59.4422 250.737 59.3796 250.527 59.4588C250.224 59.5666 250.102 59.8429 250.194 60.1054C250.231 60.2007 250.28 60.2775 250.331 60.3374L251.753 62.1111C252.94 63.588 254.305 63.8844 255.664 63.3908Z" fill="#D9D9D9"/>
</g>
<path opacity="0.5" d="M270.533 63.5938C270.123 63.5938 269.877 63.3359 269.877 62.9141V56.1816H267.803C267.439 56.1816 267.193 55.959 267.193 55.6133C267.193 55.2676 267.439 55.0449 267.803 55.0449H273.258C273.621 55.0449 273.867 55.2676 273.867 55.6133C273.867 55.959 273.621 56.1816 273.258 56.1816H271.189V62.9141C271.189 63.3359 270.938 63.5938 270.533 63.5938ZM275.95 63.6172C274.186 63.6172 273.026 62.4043 273.026 60.418C273.026 58.4375 274.192 57.2246 275.95 57.2246C277.708 57.2246 278.874 58.4375 278.874 60.418C278.874 62.4043 277.714 63.6172 275.95 63.6172ZM275.95 62.5742C276.946 62.5742 277.585 61.7891 277.585 60.418C277.585 59.0527 276.94 58.2676 275.95 58.2676C274.96 58.2676 274.315 59.0527 274.315 60.418C274.315 61.7891 274.96 62.5742 275.95 62.5742ZM282.105 63.6113C280.763 63.6113 279.943 62.7383 279.943 61.3262V57.8984C279.943 57.4766 280.201 57.2246 280.576 57.2246C280.945 57.2246 281.209 57.4766 281.209 57.8984V61.0801C281.209 62.0176 281.654 62.5215 282.527 62.5215C283.441 62.5215 283.992 61.8887 283.992 60.9277V57.8984C283.992 57.4766 284.256 57.2246 284.625 57.2246C285 57.2246 285.258 57.4766 285.258 57.8984V62.9668C285.258 63.3594 285.017 63.6113 284.654 63.6113C284.291 63.6113 284.045 63.3594 284.045 62.9727V62.457H284.015C283.676 63.1953 283.049 63.6113 282.105 63.6113ZM289.268 63.6172C287.505 63.6172 286.356 62.3926 286.356 60.4297C286.356 58.4785 287.499 57.2246 289.256 57.2246C290.446 57.2246 291.465 57.8574 291.735 58.7188C291.77 58.8184 291.794 58.9238 291.794 59.0117C291.794 59.334 291.565 59.5332 291.255 59.5332C290.985 59.5332 290.833 59.4277 290.68 59.1465C290.364 58.5605 289.93 58.2793 289.28 58.2793C288.29 58.2793 287.645 59.1055 287.645 60.418C287.645 61.7598 288.301 62.5566 289.28 62.5566C289.965 62.5566 290.381 62.252 290.68 61.7188C290.856 61.4141 290.991 61.3086 291.266 61.3086C291.577 61.3086 291.805 61.5195 291.805 61.8359C291.805 61.9355 291.782 62.041 291.735 62.1641C291.413 63.0137 290.411 63.6172 289.268 63.6172ZM293.63 63.6113C293.261 63.6113 292.998 63.3594 292.998 62.9434V55.5898C292.998 55.1914 293.238 54.9336 293.625 54.9336C294.017 54.9336 294.251 55.1914 294.251 55.5898V58.3672H294.281C294.621 57.6465 295.294 57.2305 296.232 57.2305C297.585 57.2305 298.394 58.1328 298.394 59.5273V62.9434C298.394 63.3594 298.13 63.6113 297.755 63.6113C297.386 63.6113 297.123 63.3594 297.123 62.9434V59.7734C297.123 58.8652 296.666 58.3203 295.775 58.3203C294.837 58.3203 294.263 58.9648 294.263 59.9375V62.9434C294.263 63.3594 294 63.6113 293.63 63.6113Z" fill="#030303"/>
</g>
<defs>
<clipPath id="clip0_4495_36703">
<rect width="351" height="134" fill="white"/>
</clipPath>
<clipPath id="clip1_4495_36703">
<rect width="7.67188" height="8.2224" fill="white" transform="translate(250.164 55.3889)"/>
</clipPath>
</defs>
</svg>
