<svg width="23" height="22" viewBox="0 0 23 22" fill="none" xmlns="http://www.w3.org/2000/svg">
<path d="M18.0391 9.34714C18.0391 10.9278 17.4422 12.3707 16.4125 13.2693V16.47C16.4125 17.9522 14.9237 18.8114 12.5035 18.8114C10.2079 18.8114 8.75846 18.0178 8.66007 16.6405L8.66663 16.5945L7.98452 16.6602C6.91545 16.7847 6.07593 16.1879 6.07593 15.0074V13.7481C5.37414 13.5644 4.96094 13.0069 4.96094 12.3314C4.96094 11.9772 5.07244 11.5903 5.29543 11.1967L6.0956 9.75378C6.07593 9.58325 6.06937 9.41273 6.06937 9.20941C6.06937 5.59554 8.46331 3.18848 12.0378 3.18848C15.6255 3.18848 18.0391 5.65457 18.0391 9.34714ZM13.0151 10.285C13.0151 10.6654 13.2774 10.9344 13.7234 10.9344H13.8349C13.9464 11.5574 14.3465 11.9838 14.845 11.9838C15.5664 11.9838 16.0846 11.1639 16.0846 10.0227C16.0846 9.9309 16.0846 9.82593 16.078 9.72755C15.8091 9.84561 15.4943 9.89808 15.1336 9.8784C14.9565 9.85873 14.8319 9.72099 14.8319 9.55702C14.8319 9.37994 14.9827 9.22908 15.1467 9.2422C15.8878 9.29467 16.3666 8.88803 16.3666 8.2256C16.3666 7.62219 16.0649 7.12373 15.5795 6.8417C15.3959 8.71095 13.0151 8.96674 13.0151 10.285ZM11.0606 5.91692C11.0606 6.11368 10.9294 6.2383 10.7458 6.2383C10.549 6.2383 10.4113 6.08745 10.4244 5.89724C10.4309 5.62177 10.5096 5.43157 10.5883 5.25448C10.4703 5.24136 10.3654 5.22825 10.2473 5.22825C9.44056 5.22825 8.81748 5.72671 8.81748 6.38259C8.81748 6.79579 9.11263 7.11061 9.49304 7.11061C9.67668 7.11061 9.82753 7.2549 9.82753 7.43199C9.82753 7.60252 9.67012 7.75337 9.49304 7.75337C8.9421 7.75337 8.51578 7.49102 8.31902 7.07782C8.09602 7.40576 7.9714 7.79927 7.9714 8.1928C7.9714 9.30779 8.68631 10.1605 9.78818 10.1605C10.5883 10.1605 11.1524 9.63573 11.1524 8.90115C11.1524 8.64536 11.0671 8.42892 10.9294 8.29119C10.8179 8.18625 10.7785 8.07475 10.7785 7.98292C10.7785 7.81895 10.9163 7.69433 11.0868 7.69433C11.1655 7.69433 11.2573 7.71401 11.3295 7.78616C11.3688 7.81895 11.4082 7.88454 11.4213 7.92389C11.9526 7.85175 12.2149 7.54349 12.2149 7.03846C12.2149 6.86138 12.3592 6.71709 12.5297 6.71709C12.7002 6.71709 12.8446 6.86794 12.8446 7.03846C12.8511 7.8124 12.4576 8.3043 11.723 8.46827C11.7624 8.61256 11.7755 8.76341 11.7755 8.91426C11.7755 9.5767 11.4541 10.1079 10.9032 10.4031C11.2114 10.5671 11.5722 10.6523 11.9657 10.6523C12.1362 10.6523 12.3264 10.6327 12.51 10.5999C12.4773 10.5015 12.4576 10.4031 12.4576 10.2981C12.4576 8.57321 15.0089 8.27806 15.0089 6.72364C15.0089 5.96283 14.4121 5.35942 13.6644 5.35942C13.3955 5.35942 13.3168 5.36598 13.2446 5.38565C12.9692 5.0774 12.5626 4.89375 12.1822 4.89375C11.5328 4.89375 11.0671 5.30039 11.0606 5.91692Z" fill="white"/>
</svg>
