<svg width="68" height="69" viewBox="0 0 68 69" fill="none" xmlns="http://www.w3.org/2000/svg">
<path fill-rule="evenodd" clip-rule="evenodd" d="M55 34.3867C55 45.8543 45.4883 55.3867 34 55.3867C22.5323 55.3867 13 45.8543 13 34.3867C13 22.8985 22.5118 13.3867 33.9794 13.3867C45.4676 13.3867 55 22.8985 55 34.3867ZM32.3115 36.5297C32.332 37.6207 32.9291 38.2178 33.9997 38.2178C35.029 38.2178 35.6261 37.6414 35.6468 36.5297L35.935 25.3297C35.9556 24.2385 35.1115 23.4355 33.9791 23.4355C32.8262 23.4355 32.0232 24.2179 32.0438 25.3091L32.3115 36.5297ZM31.6938 42.912C31.6938 44.1268 32.7644 45.1149 33.9997 45.1149C35.235 45.1149 36.3056 44.1472 36.3056 42.912C36.3056 41.6768 35.2555 40.6884 33.9997 40.6884C32.7438 40.6884 31.6938 41.6972 31.6938 42.912Z" fill="#FF7D7D"/>
</svg>
