<svg width="68" height="69" viewBox="0 0 68 69" fill="none" xmlns="http://www.w3.org/2000/svg">
<g clip-path="url(#clip0_1929_23564)">
<path d="M56.0026 47.051C56.2228 47.051 56.391 46.8914 56.4305 46.6602C56.929 42.7816 57.4766 42.2291 61.2613 41.8158C61.5023 41.7912 61.6693 41.6106 61.6693 41.3868C61.6693 41.163 61.5023 40.9825 61.2613 40.9578C57.4766 40.5445 56.929 39.992 56.4305 36.1134C56.391 35.8822 56.2228 35.7227 56.0026 35.7227C55.7911 35.7227 55.6155 35.8822 55.5747 36.1134C55.0762 39.992 54.5286 40.5445 50.7439 40.9578C50.5029 40.9825 50.3359 41.163 50.3359 41.3868C50.3359 41.6106 50.5029 41.7874 50.7439 41.8158C54.5322 42.3172 55.0477 42.7926 55.5747 46.6602C55.6155 46.8914 55.7911 47.051 56.0026 47.051Z" fill="#FFC11D"/>
<path d="M10.0026 61.051C10.2228 61.051 10.391 60.8914 10.4305 60.6602C10.929 56.7816 11.4766 56.2291 15.2613 55.8158C15.5023 55.7912 15.6693 55.6106 15.6693 55.3868C15.6693 55.163 15.5023 54.9825 15.2613 54.9578C11.4766 54.5445 10.929 53.992 10.4305 50.1134C10.391 49.8822 10.2228 49.7227 10.0026 49.7227C9.79112 49.7227 9.61552 49.8822 9.57472 50.1134C9.07623 53.992 8.52862 54.5445 4.74394 54.9578C4.50286 54.9825 4.33594 55.163 4.33594 55.3868C4.33594 55.6106 4.50286 55.7874 4.74394 55.8158C8.53216 56.3172 9.04766 56.7926 9.57472 60.6602C9.61552 60.8914 9.79112 61.051 10.0026 61.051Z" fill="#FFC11D"/>
<path d="M15.0026 14.051C15.2228 14.051 15.391 13.8914 15.4305 13.6602C15.929 9.78161 16.4766 9.22911 20.2613 8.81584C20.5023 8.79116 20.6693 8.61064 20.6693 8.38682C20.6693 8.16299 20.5023 7.98248 20.2613 7.9578C16.4766 7.54453 15.929 6.99201 15.4305 3.11341C15.391 2.88216 15.2228 2.72266 15.0026 2.72266C14.7911 2.72266 14.6155 2.88216 14.5747 3.11341C14.0762 6.99201 13.5286 7.54453 9.74394 7.9578C9.50286 7.98248 9.33594 8.16299 9.33594 8.38682C9.33594 8.61064 9.50286 8.78741 9.74394 8.81584C13.5322 9.3172 14.0477 9.79258 14.5747 13.6602C14.6155 13.8914 14.7911 14.051 15.0026 14.051Z" fill="#FFC11D"/>
<ellipse cx="34.9158" cy="30.4601" rx="14.013" ry="29.2695" transform="rotate(-120 34.9158 30.4601)" fill="#F5E9C8"/>
<path d="M14.5391 21.4141C14.5391 29.4805 18.4062 34.5195 26.1211 36.8827C27.332 38.3671 28.6992 39.5585 30.0273 40.3983V48.8946H26.9609C24.207 48.8946 22.7812 50.4766 22.7812 53.0742V56.297C22.7812 57.1758 23.4648 57.7812 24.2852 57.7812H42.9961C43.8165 57.7812 44.5001 57.1758 44.5001 56.297V53.0742C44.5001 50.4766 43.0547 48.8946 40.3009 48.8946H37.2539V40.3983C38.5821 39.5585 39.9493 38.3671 41.1407 36.8827C48.8751 34.5195 52.7423 29.4805 52.7423 21.4141C52.7423 19.4024 51.4923 18.1719 49.4023 18.1719H45.6133C45.3009 16.1797 43.8945 14.9688 41.5313 14.9688H25.75C23.4062 14.9688 21.9805 16.1602 21.668 18.1719H17.8789C15.7891 18.1719 14.5391 19.4024 14.5391 21.4141ZM17.332 21.6875C17.332 21.375 17.5664 21.1211 17.8984 21.1211H21.5703V24.9492C21.5703 27.9375 22.3516 30.7109 23.5625 33.1133C19.4805 31.043 17.332 27.2539 17.332 21.6875ZM43.6993 33.1133C44.9297 30.7109 45.7109 27.9375 45.7109 24.9492V21.1211H49.3829C49.7149 21.1211 49.9493 21.375 49.9493 21.6875C49.9493 27.2539 47.8009 31.043 43.6993 33.1133Z" fill="#FFC11D"/>
</g>
<defs>
<clipPath id="clip0_1929_23564">
<rect width="68" height="68" fill="white" transform="translate(0 0.386719)"/>
</clipPath>
</defs>
</svg>
