<svg width="18" height="19" viewBox="0 0 18 19" fill="none" xmlns="http://www.w3.org/2000/svg">
<path d="M14.25 9.20954C14.25 9.50677 14.1445 9.75407 13.9005 9.99338L8.26477 15.5066C8.07737 15.699 7.84869 15.7906 7.57675 15.7906C7.02354 15.7906 6.57915 15.3535 6.57915 14.8073C6.57915 14.5307 6.69698 14.2834 6.89339 14.0867L11.904 9.20721L6.89339 4.33241C6.69465 4.13337 6.57915 3.8834 6.57915 3.61412C6.57915 3.06556 7.02354 2.63086 7.57675 2.63086C7.85102 2.63086 8.07737 2.7224 8.26477 2.90979L13.9005 8.4257C14.1422 8.66001 14.2477 8.90998 14.25 9.20954Z" fill="#030303" fill-opacity="0.12"/>
</svg>
