<svg width="352" height="134" viewBox="0 0 352 134" fill="none" xmlns="http://www.w3.org/2000/svg">
<g clip-path="url(#clip0_4230_32925)">
<rect width="351" height="134" transform="translate(0.5)" fill="#E7E7E7"/>
<rect x="231.5" y="-76" width="180" height="180" rx="17" fill="#DCDCDC"/>
<rect x="245.594" y="51" width="151.81" height="29" rx="8" fill="#75B8FD"/>
<path d="M328.424 65.5012C328.424 69.2828 325.288 72.4262 321.499 72.4262C317.718 72.4262 314.574 69.2828 314.574 65.5012C314.574 61.7128 317.711 58.5762 321.492 58.5762C325.281 58.5762 328.424 61.7128 328.424 65.5012ZM320.909 62.7855V64.9105H318.784C318.43 64.9105 318.186 65.1549 318.186 65.508C318.186 65.8542 318.43 66.085 318.784 66.085H320.909V68.2169C320.909 68.5631 321.146 68.8143 321.492 68.8143C321.845 68.8143 322.09 68.5699 322.09 68.2169V66.085H324.222C324.568 66.085 324.819 65.8542 324.819 65.508C324.819 65.1549 324.568 64.9105 324.222 64.9105H322.09V62.7855C322.09 62.4324 321.845 62.1812 321.492 62.1812C321.146 62.1812 320.909 62.4324 320.909 62.7855Z" fill="white"/>
<rect x="245.598" y="9.06006" width="31.0681" height="31.0681" rx="15.534" fill="#CFCFCF"/>
<rect x="285.844" y="9.06006" width="31.0681" height="31.0681" rx="15.534" fill="#CFCFCF"/>
<rect x="326.094" y="9.06006" width="31.0681" height="31.0681" rx="15.534" fill="#CFCFCF"/>
<rect x="274.656" y="92.311" width="93" height="3.44444" rx="1.72222" fill="#CFCFCF"/>
</g>
<defs>
<clipPath id="clip0_4230_32925">
<rect width="351" height="134" fill="white" transform="translate(0.5)"/>
</clipPath>
</defs>
</svg>
