<svg width="351" height="134" viewBox="0 0 351 134" fill="none" xmlns="http://www.w3.org/2000/svg">
<g clip-path="url(#clip0_4495_36190)">
<rect width="351" height="134" fill="#E7E7E7"/>
<rect x="231" y="30" width="180" height="180" rx="17" fill="#DCDCDC"/>
<path d="M330.338 88.3864C330.02 88.0682 329.634 87.9092 329.179 87.9092H328.634V84.6363C328.634 82.5454 327.884 80.7501 326.384 79.2501C324.884 77.75 323.089 77 320.998 77C318.907 77 317.111 77.75 315.611 79.25C314.111 80.7501 313.361 82.5453 313.361 84.6363V87.9092H312.816C312.362 87.9092 311.975 88.0682 311.657 88.3864C311.339 88.7044 311.18 89.0908 311.18 89.5456V99.3637C311.18 99.8181 311.339 100.205 311.657 100.523C311.975 100.841 312.362 101 312.816 101H329.179C329.634 101 330.02 100.841 330.339 100.523C330.656 100.205 330.816 99.8181 330.816 99.3637V89.5454C330.816 89.091 330.656 88.7046 330.338 88.3864ZM325.361 87.9092H316.634V84.6363C316.634 83.4318 317.06 82.4033 317.913 81.5512C318.765 80.6989 319.793 80.2729 320.998 80.2729C322.203 80.2729 323.231 80.6989 324.083 81.5512C324.935 82.4033 325.361 83.4318 325.361 84.6363V87.9092Z" fill="#CFCFCF"/>
<rect x="294" y="39" width="54" height="18" rx="9" fill="#CFCFCF"/>
</g>
<defs>
<clipPath id="clip0_4495_36190">
<rect width="351" height="134" fill="white"/>
</clipPath>
</defs>
</svg>
