<svg width="25" height="24" viewBox="0 0 25 24" fill="none" xmlns="http://www.w3.org/2000/svg">
<g clip-path="url(#clip0_3492_7160)">
<path d="M6.59677 18.3441C6.99568 18.7344 7.65914 18.7288 8.03827 18.3497L12.945 13.4344L17.8565 18.3478C18.2346 18.7344 18.8991 18.7326 19.2895 18.3422C19.6798 17.9433 19.6817 17.2873 19.2951 16.9092L14.3836 11.9958L19.2951 7.09287C19.6817 6.70625 19.6884 6.04175 19.2895 5.65138C18.8905 5.26955 18.2346 5.26768 17.8565 5.64575L12.945 10.5573L8.03827 5.64388C7.65914 5.2733 6.98714 5.25914 6.59677 5.6495C6.21494 6.04841 6.22057 6.71187 6.59115 7.091L11.5064 11.9958L6.59115 16.9111C6.22057 17.2817 6.2064 17.9537 6.59677 18.3441Z" fill="white"/>
</g>
<defs>
<clipPath id="clip0_3492_7160">
<rect width="14" height="13.9961" fill="white" transform="translate(5.94531 5.00195)"/>
</clipPath>
</defs>
</svg>
