<svg width="22" height="22" viewBox="0 0 22 22" fill="none" xmlns="http://www.w3.org/2000/svg">
<path d="M5.56589 18.4834H16.4424C18.1804 18.4834 19.1005 17.5549 19.1005 15.8171V6.1858C19.1005 4.44553 18.1804 3.51953 16.4424 3.51953H5.56589C3.82781 3.51953 2.90234 4.44012 2.90234 6.1858V15.8171C2.90234 17.5603 3.82781 18.4834 5.56589 18.4834ZM5.61796 16.7167C4.98827 16.7167 4.65305 16.3993 4.65305 15.7321V8.51822C4.65305 7.85646 4.98827 7.53619 5.61796 7.53619H16.3796C17.0093 7.53619 17.3498 7.85646 17.3498 8.51822V15.7321C17.3498 16.3993 17.0093 16.7167 16.3796 16.7167H5.61796ZM9.50736 10.2103H9.97119C10.2538 10.2103 10.3478 10.1234 10.3478 9.83811V9.37004C10.3478 9.0848 10.2538 8.99248 9.97119 8.99248H9.50736C9.2247 8.99248 9.12536 9.0848 9.12536 9.37004V9.83811C9.12536 10.1234 9.2247 10.2103 9.50736 10.2103ZM12.0449 10.2103H12.5088C12.7914 10.2103 12.8932 10.1234 12.8932 9.83811V9.37004C12.8932 9.0848 12.7914 8.99248 12.5088 8.99248H12.0449C11.7623 8.99248 11.6629 9.0848 11.6629 9.37004V9.83811C11.6629 10.1234 11.7623 10.2103 12.0449 10.2103ZM14.5849 10.2103H15.0488C15.3314 10.2103 15.4308 10.1234 15.4308 9.83811V9.37004C15.4308 9.0848 15.3314 8.99248 15.0488 8.99248H14.5849C14.3023 8.99248 14.2083 9.0848 14.2083 9.37004V9.83811C14.2083 10.1234 14.3023 10.2103 14.5849 10.2103ZM6.9698 12.7313H7.42577C7.71629 12.7313 7.81026 12.6445 7.81026 12.3592V11.8911C7.81026 11.6059 7.71629 11.519 7.42577 11.519H6.9698C6.67928 11.519 6.5853 11.6059 6.5853 11.8911V12.3592C6.5853 12.6445 6.67928 12.7313 6.9698 12.7313ZM9.50736 12.7313H9.97119C10.2538 12.7313 10.3478 12.6445 10.3478 12.3592V11.8911C10.3478 11.6059 10.2538 11.519 9.97119 11.519H9.50736C9.2247 11.519 9.12536 11.6059 9.12536 11.8911V12.3592C9.12536 12.6445 9.2247 12.7313 9.50736 12.7313ZM12.0449 12.7313H12.5088C12.7914 12.7313 12.8932 12.6445 12.8932 12.3592V11.8911C12.8932 11.6059 12.7914 11.519 12.5088 11.519H12.0449C11.7623 11.519 11.6629 11.6059 11.6629 11.8911V12.3592C11.6629 12.6445 11.7623 12.7313 12.0449 12.7313ZM14.5849 12.7313H15.0488C15.3314 12.7313 15.4308 12.6445 15.4308 12.3592V11.8911C15.4308 11.6059 15.3314 11.519 15.0488 11.519H14.5849C14.3023 11.519 14.2083 11.6059 14.2083 11.8911V12.3592C14.2083 12.6445 14.3023 12.7313 14.5849 12.7313ZM6.9698 15.2579H7.42577C7.71629 15.2579 7.81026 15.1681 7.81026 14.8803V14.4148C7.81026 14.127 7.71629 14.0426 7.42577 14.0426H6.9698C6.67928 14.0426 6.5853 14.127 6.5853 14.4148V14.8803C6.5853 15.1681 6.67928 15.2579 6.9698 15.2579ZM9.50736 15.2579H9.97119C10.2538 15.2579 10.3478 15.1681 10.3478 14.8803V14.4148C10.3478 14.127 10.2538 14.0426 9.97119 14.0426H9.50736C9.2247 14.0426 9.12536 14.127 9.12536 14.4148V14.8803C9.12536 15.1681 9.2247 15.2579 9.50736 15.2579ZM12.0449 15.2579H12.5088C12.7914 15.2579 12.8932 15.1681 12.8932 14.8803V14.4148C12.8932 14.127 12.7914 14.0426 12.5088 14.0426H12.0449C11.7623 14.0426 11.6629 14.127 11.6629 14.4148V14.8803C11.6629 15.1681 11.7623 15.2579 12.0449 15.2579Z" fill="white"/>
</svg>
