<svg width="64" height="64" viewBox="0 0 64 64" fill="none" xmlns="http://www.w3.org/2000/svg">
<g clip-path="url(#clip0_1477_9657)">
<path opacity="0.5" d="M37.9936 44.9775C37.9171 45.4909 37.8833 46.0164 37.8833 46.5493C37.8833 47.0839 37.9169 47.6111 37.993 48.1254H8.74042C7.88572 48.1254 7.16016 47.4377 7.16016 46.5493C7.16016 45.686 7.88572 44.9775 8.74042 44.9775H37.9936Z" fill="#75B8FD"/>
<path opacity="0.5" d="M49.1092 22.3248V33.9766C45.8537 34.3452 42.9559 35.9791 40.9258 38.3698V22.3248C40.9258 21.2266 41.6107 20.5635 42.7426 20.5635H47.2757C48.4241 20.5635 49.1092 21.2266 49.1092 22.3248Z" fill="#75B8FD"/>
<path opacity="0.5" d="M38.4764 38.3311V39.9876C38.4764 41.0901 37.7912 41.7457 36.6431 41.7457H32.1265C30.9781 41.7457 30.293 41.0901 30.293 39.9876V38.3311C30.293 37.2287 30.9781 36.5703 32.1265 36.5703H36.6431C37.7912 36.5703 38.4764 37.2287 38.4764 38.3311Z" fill="#75B8FD"/>
<path opacity="0.5" d="M27.8397 38.3272V39.9889C27.8397 41.0914 27.1503 41.747 26.0062 41.747H21.4731C20.337 41.747 19.6562 41.0914 19.6562 39.9889V38.3272C19.6562 37.2666 20.337 36.5664 21.4731 36.5664H26.0062C27.1503 36.5664 27.8397 37.2666 27.8397 38.3272Z" fill="#75B8FD"/>
<path opacity="0.5" d="M17.2068 12.5708V39.9876C17.2068 41.0901 16.5176 41.7457 15.3942 41.7457H10.8611C9.70427 41.7457 9.02344 41.0901 9.02344 39.9876V12.5708C9.02344 11.4893 9.70427 10.8398 10.8611 10.8398H15.3942C16.5176 10.8398 17.2068 11.4893 17.2068 12.5708Z" fill="#75B8FD"/>
<path d="M60.5174 46.5518C60.5174 51.991 55.942 56.5272 50.5419 56.5272C45.0829 56.5272 40.5664 52.0304 40.5664 46.5518C40.5664 41.0731 45.0829 36.5762 50.5419 36.5762C56.0205 36.5762 60.5174 41.0731 60.5174 46.5518ZM53.3696 41.8978L50.5026 44.7845L47.832 42.1334C47.3607 41.6818 46.6145 41.7015 46.1432 42.1334C45.672 42.5851 45.6916 43.3313 46.1432 43.8223L48.7942 46.4929L45.9076 49.3599C45.397 49.8899 45.4756 50.6558 45.9665 51.1272C46.4574 51.618 47.2233 51.6966 47.7338 51.1861L50.6204 48.2994L53.2714 50.9504C53.7427 51.402 54.4889 51.402 54.9601 50.9504C55.4314 50.4988 55.4118 49.7329 54.9601 49.2615L52.3092 46.6107L55.1958 43.724C55.7064 43.2134 55.6278 42.4477 55.1369 41.9567C54.646 41.4853 53.8801 41.3872 53.3696 41.8978Z" fill="#75B8FD"/>
</g>
<defs>
<clipPath id="clip0_1477_9657">
<rect width="53.36" height="45.6873" fill="white" transform="translate(7.16016 10.8398)"/>
</clipPath>
</defs>
</svg>
