<svg width="64" height="64" viewBox="0 0 64 64" fill="none" xmlns="http://www.w3.org/2000/svg">
<g clip-path="url(#clip0_1477_9695)">
<path opacity="0.5" d="M37.9936 44.9775C37.9171 45.4909 37.8833 46.0164 37.8833 46.5493C37.8833 47.0839 37.9169 47.6111 37.993 48.1254H8.74042C7.88572 48.1254 7.16016 47.4377 7.16016 46.5493C7.16016 45.686 7.88572 44.9775 8.74042 44.9775H37.9936Z" fill="#75B8FD"/>
<path opacity="0.5" d="M49.1092 29.7945V33.9763C45.8537 34.3449 42.9559 35.9788 40.9258 38.3695V29.7945C40.9258 28.6964 41.6107 28.0332 42.7426 28.0332H47.2757C48.4241 28.0332 49.1092 28.6964 49.1092 29.7945Z" fill="#75B8FD"/>
<path opacity="0.5" d="M38.4764 24.0616V39.9881C38.4764 41.0906 37.7912 41.7462 36.6431 41.7462H32.1265C30.9781 41.7462 30.293 41.0906 30.293 39.9881V24.0616C30.293 22.9592 30.9781 22.3008 32.1265 22.3008H36.6431C37.7912 22.3008 38.4764 22.9592 38.4764 24.0616Z" fill="#75B8FD"/>
<path opacity="0.5" d="M27.8397 18.3272V39.9889C27.8397 41.0914 27.1503 41.747 26.0062 41.747H21.4731C20.337 41.747 19.6562 41.0914 19.6562 39.9889V18.3272C19.6562 17.2666 20.337 16.5664 21.4731 16.5664H26.0062C27.1503 16.5664 27.8397 17.2666 27.8397 18.3272Z" fill="#75B8FD"/>
<path opacity="0.5" d="M17.2068 12.5708V39.9876C17.2068 41.0901 16.5176 41.7457 15.3942 41.7457H10.8611C9.70427 41.7457 9.02344 41.0901 9.02344 39.9876V12.5708C9.02344 11.4893 9.70427 10.8398 10.8611 10.8398H15.3942C16.5176 10.8398 17.2068 11.4893 17.2068 12.5708Z" fill="#75B8FD"/>
<path fill-rule="evenodd" clip-rule="evenodd" d="M60.5203 46.5368C60.5203 51.9876 55.9545 56.5272 50.5579 56.5272C45.0945 56.5272 40.5703 52.0292 40.5703 46.5368C40.5703 41.0697 45.0945 36.5674 50.5579 36.5674C56.0212 36.5674 60.5203 41.0655 60.5203 46.5368ZM48.4851 51.5064C48.7436 51.7903 49.1354 51.9114 49.4648 51.9114C49.8861 51.9114 50.2861 51.7444 50.4988 51.4648L56.2039 43.5213C56.3665 43.2876 56.4626 43.0122 56.4626 42.7909C56.4626 42.1026 55.8873 41.5686 55.2369 41.5686C54.7784 41.5686 54.4323 41.7981 54.1989 42.1235L49.4148 48.7737L46.989 46.1501C46.7973 45.9373 46.4763 45.741 46.0507 45.741C45.3754 45.741 44.8417 46.2666 44.8417 46.9631C44.8417 47.247 44.9376 47.614 45.1504 47.852L48.4851 51.5064Z" fill="#75B8FD"/>
</g>
<defs>
<clipPath id="clip0_1477_9695">
<rect width="53.36" height="45.6873" fill="white" transform="translate(7.16016 10.8398)"/>
</clipPath>
</defs>
</svg>
