<svg width="28" height="28" viewBox="0 0 28 28" fill="none" xmlns="http://www.w3.org/2000/svg">
<path d="M21.1646 6.67132C18.7832 7.65748 8.57255 11.8869 5.75125 13.0398C3.85911 13.7781 4.96669 14.4704 4.96669 14.4704C4.96669 14.4704 6.58179 15.024 7.96622 15.4394C9.35064 15.8548 10.089 15.3932 10.089 15.3932L16.5958 11.0091C18.9031 9.44017 18.3494 10.7322 17.7957 11.2859C16.5958 12.4859 14.6115 14.3778 12.9502 15.9008C12.2118 16.5468 12.581 17.1007 12.9041 17.3775C14.104 18.3928 17.3804 20.4694 17.565 20.6079C18.54 21.298 20.4576 22.2916 20.7493 20.1926L21.903 12.9474C22.2722 10.5016 22.6414 8.24024 22.6876 7.5942C22.8259 6.02528 21.1646 6.67132 21.1646 6.67132Z" fill="#030303" fill-opacity="0.3"/>
</svg>
