<svg width="351" height="134" viewBox="0 0 351 134" fill="none" xmlns="http://www.w3.org/2000/svg">
<g clip-path="url(#clip0_4476_22753)">
<rect width="351" height="134" fill="#E7E7E7"/>
<rect x="231.445" y="30" width="180" height="180" rx="17" fill="#DCDCDC"/>
<path d="M298.742 102.198C295.127 102.198 292.6 100.437 291.681 98.5838C291.467 98.1396 291.36 97.772 291.36 97.3738C291.36 96.4549 291.972 95.781 293.029 95.781C293.826 95.781 294.316 96.1485 294.928 96.9297C295.97 98.3234 297.027 98.9973 298.865 98.9973C302.28 98.9973 303.98 95.8422 304.026 90.8339V90.5889H303.965C303.122 92.7331 300.84 94.1728 297.976 94.1728C293.841 94.1728 290.64 91.2015 290.64 86.9284C290.64 82.4255 294.117 79.1939 298.895 79.1939C302.341 79.1939 305.083 80.894 306.599 84.1103C307.395 85.8103 307.824 87.9239 307.824 90.451C307.824 97.8333 304.44 102.198 298.742 102.198ZM298.895 91.1096C301.453 91.1096 303.367 89.3177 303.367 86.8518C303.367 84.3707 301.438 82.4409 298.941 82.4409C296.475 82.4409 294.515 84.3553 294.515 86.7752C294.515 89.3024 296.383 91.1096 298.895 91.1096ZM313.682 87.4645C312.442 87.4645 311.477 86.4842 311.477 85.259C311.477 84.0337 312.442 83.0535 313.682 83.0535C314.908 83.0535 315.873 84.0337 315.873 85.259C315.873 86.4842 314.908 87.4645 313.682 87.4645ZM313.682 98.5225C312.442 98.5225 311.477 97.5576 311.477 96.317C311.477 95.0918 312.442 94.1115 313.682 94.1115C314.908 94.1115 315.873 95.0918 315.873 96.317C315.873 97.5576 314.908 98.5225 313.682 98.5225ZM332.268 102.06C331.18 102.06 330.384 101.356 330.384 100.115V97.5117H321.669C320.245 97.5117 319.311 96.608 319.311 95.2909C319.311 94.4332 319.556 93.7133 320.168 92.6106C321.715 89.8384 324.227 86.0554 326.877 82.1652C328.316 80.0209 329.281 79.3471 330.905 79.3471C332.942 79.3471 334.152 80.4192 334.152 82.2571V94.2647H335.699C336.74 94.2647 337.368 94.9386 337.368 95.8882C337.368 96.8531 336.74 97.5117 335.683 97.5117H334.152V100.115C334.152 101.356 333.371 102.06 332.268 102.06ZM330.445 94.3566V82.6553H330.384C326.877 87.6789 324.686 90.9871 322.895 94.2494V94.3566H330.445ZM347.407 102.06C346.259 102.06 345.462 101.264 345.462 100.069V83.4823H345.386L341.817 85.9635C341.434 86.2392 341.128 86.3464 340.699 86.3464C339.872 86.3464 339.275 85.7491 339.275 84.8761C339.275 84.2634 339.52 83.804 340.178 83.3445L344.696 80.1741C345.677 79.4849 346.289 79.3471 347.116 79.3471C348.51 79.3471 349.352 80.1894 349.352 81.5525V100.069C349.352 101.264 348.556 102.06 347.407 102.06Z" fill="#CFCFCF"/>
<rect x="294.445" y="39" width="54" height="18" rx="9" fill="#CFCFCF"/>
</g>
<defs>
<clipPath id="clip0_4476_22753">
<rect width="351" height="134" fill="white"/>
</clipPath>
</defs>
</svg>
