<svg width="351" height="134" viewBox="0 0 351 134" fill="none" xmlns="http://www.w3.org/2000/svg">
<g clip-path="url(#clip0_4495_36137)">
<rect width="351" height="134" fill="#E7E7E7"/>
<rect x="231" y="30" width="180" height="180" rx="17" fill="#DCDCDC"/>
<rect x="294" y="39" width="54" height="18" rx="9" fill="#CFCFCF"/>
<rect x="325.5" y="73.4988" width="33" height="33" rx="7.35" fill="#CFCFCF"/>
<rect x="325.5" y="115.499" width="33" height="33" rx="7.35" fill="#CFCFCF"/>
<path d="M244.844 89.5C244.844 80.6635 252.007 73.5 260.844 73.5H300.049C308.885 73.5 316.049 80.6634 316.049 89.5V128.71C316.049 137.547 308.885 144.71 300.049 144.71H260.844C252.007 144.71 244.844 137.547 244.844 128.71V89.5Z" fill="#EAEAEA"/>
<path d="M252 110C252 105.029 256.029 101 261 101H300C304.971 101 309 105.029 309 110V129C309 133.971 304.971 138 300 138H261C256.029 138 252 133.971 252 129V110Z" fill="#B5D9FF"/>
<rect x="279.383" y="113.392" width="2.25523" height="12.2158" rx="1.12761" fill="white"/>
<rect x="286.609" y="118.368" width="2.25523" height="12.2158" rx="1.12761" transform="rotate(90 286.609 118.368)" fill="white"/>
<path d="M274.758 94.9907C272.915 94.9907 271.321 94.1108 270.732 92.8076C270.616 92.5503 270.541 92.3013 270.541 91.9941C270.541 91.438 270.898 91.0894 271.462 91.0894C271.911 91.0894 272.185 91.2637 272.409 91.7036C272.815 92.6748 273.612 93.2476 274.766 93.2476C276.186 93.2476 277.19 92.2432 277.19 90.8237C277.19 89.4458 276.186 88.4663 274.774 88.4663C274.019 88.4663 273.363 88.7734 272.907 89.2217C272.409 89.7197 272.201 89.8276 271.711 89.8276C271.022 89.8276 270.682 89.3379 270.699 88.7568C270.699 88.707 270.699 88.6738 270.707 88.624L271.089 84.1001C271.164 83.1538 271.645 82.772 272.583 82.772H277.746C278.294 82.772 278.651 83.1206 278.651 83.6436C278.651 84.1748 278.294 84.5234 277.746 84.5234H272.907L272.591 88.0679H272.633C273.139 87.3208 274.127 86.856 275.331 86.856C277.622 86.856 279.257 88.4746 279.257 90.7656C279.257 93.2725 277.414 94.9907 274.758 94.9907ZM285.42 94.9907C282.465 94.9907 280.705 92.5918 280.705 88.7485C280.705 84.9219 282.482 82.5312 285.42 82.5312C288.35 82.5312 290.118 84.9053 290.118 88.7402C290.118 92.5752 288.367 94.9907 285.42 94.9907ZM285.42 93.2393C287.039 93.2393 287.96 91.5874 287.96 88.7485C287.96 85.9429 287.022 84.2827 285.42 84.2827C283.81 84.2827 282.863 85.9512 282.863 88.7402C282.863 91.5791 283.793 93.2393 285.42 93.2393Z" fill="#797979"/>
</g>
<defs>
<clipPath id="clip0_4495_36137">
<rect width="351" height="134" fill="white"/>
</clipPath>
</defs>
</svg>
