<svg width="37" height="36" viewBox="0 0 37 36" fill="none" xmlns="http://www.w3.org/2000/svg">
<path d="M31.7221 29.7965H5.27508C4.72197 29.7965 4.25 29.3491 4.25 28.7714C4.25 28.2099 4.72197 27.749 5.27508 27.749H31.7221C32.2781 27.749 32.75 28.2099 32.75 28.7714C32.75 29.3491 32.2781 29.7965 31.7221 29.7965Z" fill="white"/>
<path d="M10.7812 24.5053C10.7812 25.2224 10.3357 25.649 9.5995 25.649H6.65096C5.90401 25.649 5.45835 25.2224 5.45835 24.5053V7.32851C5.45835 6.61419 5.90401 6.20117 6.65096 6.20117H9.5995C10.3357 6.20117 10.7812 6.61419 10.7812 7.32851V24.5053Z" fill="white"/>
<path d="M17.7031 24.5065C17.7031 25.2236 17.2575 25.6501 16.5105 25.6501H13.5727C12.8259 25.6501 12.3802 25.2236 12.3802 24.5065V10.9894C12.3802 10.2723 12.8259 9.8457 13.5727 9.8457H16.5105C17.2575 9.8457 17.7031 10.2723 17.7031 10.9894V24.5065Z" fill="white"/>
<path d="M24.625 24.5042C24.625 25.2213 24.1822 25.6478 23.4432 25.6478H20.4947C19.7505 25.6478 19.3021 25.2213 19.3021 24.5042V14.644C19.3021 13.9539 19.7505 13.5166 20.4947 13.5166H23.4432C24.1822 13.5166 24.625 13.9539 24.625 14.644V24.5042Z" fill="white"/>
<path d="M31.5391 24.5053C31.5391 25.2225 31.0962 25.649 30.3437 25.649H27.3952C26.6645 25.649 26.2162 25.2225 26.2162 24.5053V18.3048C26.2162 17.6013 26.6645 17.1611 27.3952 17.1611H30.3437C31.0962 17.1611 31.5391 17.6013 31.5391 18.3048V24.5053Z" fill="white"/>
</svg>
