<svg width="351" height="134" viewBox="0 0 351 134" fill="none" xmlns="http://www.w3.org/2000/svg">
<g clip-path="url(#clip0_4476_22745)">
<rect width="351" height="134" fill="#E7E7E7"/>
<rect x="231.445" y="30" width="180" height="180" rx="17" fill="#DCDCDC"/>
<path d="M330.783 88.3864C330.465 88.0682 330.079 87.9092 329.624 87.9092H329.079V84.6363C329.079 82.5454 328.329 80.7501 326.829 79.2501C325.329 77.75 323.534 77 321.443 77C319.352 77 317.556 77.75 316.057 79.25C314.556 80.7501 313.807 82.5453 313.807 84.6363V87.9092H313.261C312.807 87.9092 312.42 88.0682 312.102 88.3864C311.784 88.7044 311.625 89.0908 311.625 89.5456V99.3637C311.625 99.8181 311.784 100.205 312.102 100.523C312.42 100.841 312.807 101 313.261 101H329.625C330.079 101 330.466 100.841 330.784 100.523C331.102 100.205 331.261 99.8181 331.261 99.3637V89.5454C331.261 89.091 331.102 88.7046 330.783 88.3864ZM325.807 87.9092H317.079V84.6363C317.079 83.4318 317.506 82.4033 318.358 81.5512C319.21 80.6989 320.239 80.2729 321.443 80.2729C322.648 80.2729 323.676 80.6989 324.528 81.5512C325.38 82.4033 325.807 83.4318 325.807 84.6363V87.9092Z" fill="#CFCFCF"/>
<rect x="294.445" y="39" width="54" height="18" rx="9" fill="#CFCFCF"/>
</g>
<defs>
<clipPath id="clip0_4476_22745">
<rect width="351" height="134" fill="white"/>
</clipPath>
</defs>
</svg>
