<svg width="68" height="69" viewBox="0 0 68 69" fill="none" xmlns="http://www.w3.org/2000/svg">
<g clip-path="url(#clip0_1929_23446)">
<path opacity="0.5" d="M40.3699 48.1763C40.2886 48.7217 40.2527 49.2801 40.2527 49.8462C40.2527 50.4143 40.2884 50.9744 40.3692 51.5209H9.28841C8.38028 51.5209 7.60938 50.7901 7.60938 49.8462C7.60938 48.929 8.38028 48.1763 9.28841 48.1763H40.3699Z" fill="#75B8FD"/>
<path opacity="0.5" d="M52.1793 32.0475V36.4906C48.7203 36.8822 45.6414 38.6183 43.4844 41.1584V32.0475C43.4844 30.8806 44.2121 30.176 45.4147 30.176H50.2312C51.4513 30.176 52.1793 30.8806 52.1793 32.0475Z" fill="#75B8FD"/>
<path opacity="0.5" d="M40.8824 25.9541V42.876C40.8824 44.0474 40.1544 44.744 38.9345 44.744H34.1356C32.9155 44.744 32.1875 44.0474 32.1875 42.876V25.9541C32.1875 24.7828 32.9155 24.0833 34.1356 24.0833H38.9345C40.1544 24.0833 40.8824 24.7828 40.8824 25.9541Z" fill="#75B8FD"/>
<path opacity="0.5" d="M29.5816 19.8616V42.8771C29.5816 44.0485 28.8492 44.7451 27.6335 44.7451H22.8171C21.61 44.7451 20.8867 44.0485 20.8867 42.8771V19.8616C20.8867 18.7347 21.61 17.9907 22.8171 17.9907H27.6335C28.8492 17.9907 29.5816 18.7347 29.5816 19.8616Z" fill="#75B8FD"/>
<path d="M18.2847 13.7454V42.8757C18.2847 44.0471 17.5524 44.7437 16.3588 44.7437H11.5424C10.3132 44.7437 9.58984 44.0471 9.58984 42.8757V13.7454C9.58984 12.5962 10.3132 11.9062 11.5424 11.9062H16.3588C17.5524 11.9062 18.2847 12.5962 18.2847 13.7454Z" fill="#75B8FD"/>
<path d="M64.2995 49.851C64.2995 55.6302 59.4381 60.4499 53.7005 60.4499C47.9003 60.4499 43.1016 55.6721 43.1016 49.851C43.1016 44.03 47.9003 39.252 53.7005 39.252C59.5216 39.252 64.2995 44.03 64.2995 49.851ZM56.7049 44.9061L53.6588 47.9733L50.8213 45.1565C50.3205 44.6767 49.5277 44.6976 49.027 45.1565C48.5262 45.6364 48.5471 46.4292 49.027 46.951L51.8436 49.7884L48.7766 52.8346C48.2341 53.3978 48.3176 54.2116 48.8392 54.7124C49.3608 55.2339 50.1745 55.3174 50.7169 54.775L53.784 51.7078L56.6006 54.5246C57.1013 55.0044 57.8942 55.0044 58.3949 54.5246C58.8957 54.0447 58.8748 53.2309 58.3949 52.7301L55.5783 49.9136L58.6453 46.8465C59.1878 46.304 59.1043 45.4905 58.5827 44.9687C58.0611 44.468 57.2474 44.3637 56.7049 44.9061Z" fill="#75B8FD"/>
</g>
<defs>
<clipPath id="clip0_1929_23446">
<rect width="56.695" height="48.5428" fill="white" transform="translate(7.60938 11.9043)"/>
</clipPath>
</defs>
</svg>
