<svg width="351" height="134" viewBox="0 0 351 134" fill="none" xmlns="http://www.w3.org/2000/svg">
<g clip-path="url(#clip0_4476_22614)">
<rect width="351" height="134" fill="#E7E7E7"/>
<rect x="231" y="30" width="180" height="180" rx="17" fill="#DCDCDC"/>
<rect x="240" y="45" width="146" height="29" rx="8" fill="#CFCFCF"/>
<rect x="246" y="51.5" width="16" height="16" rx="3" fill="#AAAAAA"/>
<path d="M250.785 58.6847C250.599 58.7602 250.564 58.8888 250.564 59.5004V60.0729H249.279H247.993L247.855 60.2115C247.631 60.4359 247.681 60.7578 247.962 60.8987C248.087 60.9619 248.244 60.97 249.334 60.9701L250.564 60.9701V61.5452V62.1203L250.702 62.259C250.845 62.4017 250.965 62.4296 251.141 62.3609C251.237 62.3236 251.598 62.0165 252.523 61.1881C253.19 60.5903 253.217 60.4922 252.815 60.11C252.407 59.7221 251.291 58.7601 251.184 58.7041C251.061 58.6397 250.913 58.6326 250.785 58.6847Z" fill="#D9D9D9"/>
<path d="M255.165 64.6207L255.038 64.4765V63.749V63.0215L254.831 63.0015C254.668 62.9858 254.597 62.9542 254.496 62.8528L254.367 62.7241V60.666V58.6079L254.496 58.4791C254.597 58.3777 254.668 58.3461 254.831 58.3304L255.038 58.3105V57.8927C255.038 56.2602 255.776 55.016 257.031 54.5306C257.601 54.3102 257.858 54.2736 258.974 54.2536L260.001 54.2351L260.143 54.3774C260.304 54.5386 260.329 54.7078 260.218 54.878C260.086 55.0796 259.989 55.0988 259.097 55.0988C257.95 55.0988 257.481 55.1981 256.951 55.5532C256.634 55.7653 256.375 56.0657 256.201 56.4232C255.902 57.0341 255.919 56.7956 255.894 60.8291C255.877 63.6366 255.86 64.4793 255.821 64.5487C255.742 64.6867 255.604 64.7649 255.44 64.7649C255.32 64.7649 255.266 64.7366 255.165 64.6207Z" fill="#D9D9D9"/>
<path opacity="0.5" d="M268.507 62.5776C268.17 62.5776 267.96 62.3579 267.96 62.0112V55.9419C267.96 55.5952 268.17 55.3755 268.507 55.3755C268.839 55.3755 269.054 55.5952 269.054 55.9419V58.6079H269.093L272.047 55.6001C272.208 55.4341 272.311 55.3755 272.477 55.3755C272.755 55.3755 272.97 55.5806 272.97 55.8345C272.97 55.9663 272.926 56.0835 272.818 56.1909L270.172 58.813L273.043 61.6694C273.155 61.7915 273.209 61.9087 273.209 62.0601C273.209 62.353 272.984 62.5776 272.687 62.5776C272.491 62.5776 272.374 62.5044 272.169 62.2993L269.093 59.1938H269.054V62.0112C269.054 62.3579 268.839 62.5776 268.507 62.5776ZM274.73 62.5923C274.412 62.5923 274.207 62.3726 274.207 62.0356V57.8315C274.207 57.4897 274.412 57.27 274.73 57.27C275.047 57.27 275.257 57.4897 275.257 57.8315V59.4331H277.581V57.8315C277.581 57.4897 277.787 57.27 278.109 57.27C278.426 57.27 278.631 57.4897 278.631 57.8315V62.0356C278.631 62.3726 278.426 62.5923 278.109 62.5923C277.787 62.5923 277.581 62.3726 277.581 62.0356V60.2632H275.257V62.0356C275.257 62.3726 275.047 62.5923 274.73 62.5923ZM282.086 62.5972C280.616 62.5972 279.649 61.5864 279.649 59.9312C279.649 58.2808 280.621 57.27 282.086 57.27C283.551 57.27 284.522 58.2808 284.522 59.9312C284.522 61.5864 283.555 62.5972 282.086 62.5972ZM282.086 61.728C282.916 61.728 283.448 61.0737 283.448 59.9312C283.448 58.7935 282.911 58.1392 282.086 58.1392C281.261 58.1392 280.723 58.7935 280.723 59.9312C280.723 61.0737 281.261 61.728 282.086 61.728ZM286.048 62.5923C285.736 62.5923 285.53 62.3921 285.53 62.0845V57.9341C285.53 57.5776 285.736 57.3628 286.077 57.3628H289.363C289.7 57.3628 289.91 57.5776 289.91 57.9341V62.0845C289.91 62.3921 289.705 62.5923 289.388 62.5923C289.075 62.5923 288.856 62.3921 288.856 62.0845V58.1978H286.58V62.0845C286.58 62.3921 286.365 62.5923 286.048 62.5923ZM291.666 62.5923C291.353 62.5923 291.148 62.3921 291.148 62.0845V57.7827C291.148 57.4702 291.353 57.27 291.666 57.27C291.983 57.27 292.198 57.4702 292.198 57.7827V59.5601H292.237L294.312 57.4604C294.444 57.3188 294.546 57.27 294.703 57.27C294.966 57.27 295.171 57.4556 295.171 57.7095C295.171 57.8462 295.137 57.9341 295.005 58.061L293.233 59.7749L295.088 61.7427C295.201 61.8696 295.245 61.9771 295.245 62.1089C295.245 62.3823 295.04 62.5923 294.761 62.5923C294.556 62.5923 294.42 62.5093 294.293 62.3579L292.237 60.1313H292.198V62.0845C292.198 62.3921 291.983 62.5923 291.666 62.5923ZM297.737 62.5874C296.731 62.5874 296.023 61.9624 296.023 61.0396C296.023 60.1411 296.717 59.5894 297.933 59.521L299.344 59.438V59.0425C299.344 58.4712 298.958 58.1294 298.313 58.1294C297.806 58.1294 297.469 58.3101 297.176 58.7788C297.068 58.9351 296.932 59.0034 296.746 59.0034C296.482 59.0034 296.292 58.8276 296.292 58.564C296.292 58.4565 296.321 58.3394 296.385 58.2222C296.653 57.6411 297.43 57.27 298.353 57.27C299.598 57.27 300.394 57.9292 300.394 58.9595V62.0601C300.394 62.3921 300.184 62.5923 299.886 62.5923C299.593 62.5923 299.393 62.4019 299.383 62.0894V61.6548H299.358C299.061 62.2261 298.406 62.5874 297.737 62.5874ZM298.025 61.7524C298.763 61.7524 299.344 61.2446 299.344 60.5757V60.1704L298.074 60.2485C297.444 60.2925 297.088 60.5708 297.088 61.0103C297.088 61.4595 297.464 61.7524 298.025 61.7524ZM303.753 63.9497C303.455 63.9497 303.26 63.7642 303.26 63.4761V62.1724C303.26 61.8745 303.426 61.6841 303.689 61.6646H303.699C304.075 61.4302 304.221 60.8101 304.27 60.1167L304.422 57.9341C304.441 57.5825 304.637 57.3628 304.964 57.3628H307.654C307.991 57.3628 308.201 57.5776 308.201 57.9341V61.6646H308.504C308.816 61.6646 309.012 61.8745 309.012 62.2114V63.4761C309.012 63.7642 308.826 63.9497 308.528 63.9497C308.23 63.9497 308.04 63.7642 308.04 63.4761V62.4995H304.231V63.4761C304.231 63.7642 304.046 63.9497 303.753 63.9497ZM307.151 61.6646V58.1978H305.364L305.222 60.1606C305.183 60.7661 305.056 61.2935 304.822 61.6255V61.6646H307.151ZM312.031 62.5972C310.484 62.5972 309.575 61.6157 309.575 59.9556C309.575 58.3247 310.503 57.27 311.958 57.27C313.325 57.27 314.268 58.2563 314.268 59.6577C314.268 59.9995 314.072 60.1948 313.745 60.1948H310.64V60.2192C310.64 61.1567 311.167 61.7427 312.007 61.7427C312.583 61.7427 312.945 61.5425 313.335 61.0103C313.447 60.8784 313.555 60.8247 313.706 60.8247C313.96 60.8247 314.146 60.9907 314.146 61.2544C314.146 61.3374 314.116 61.4351 314.072 61.5376C313.736 62.2114 312.988 62.5972 312.031 62.5972ZM310.645 59.4575H313.213C313.189 58.6519 312.686 58.1196 311.953 58.1196C311.226 58.1196 310.698 58.6567 310.645 59.4575ZM317.522 56.6548C316.677 56.6548 316.077 56.1909 315.95 55.5562C315.935 55.4829 315.925 55.4146 315.925 55.3462C315.925 55.1265 316.057 54.9849 316.257 54.9849C316.448 54.9849 316.55 55.0825 316.609 55.3169C316.726 55.7759 317.048 56.0542 317.517 56.0542C318.001 56.0542 318.328 55.7661 318.435 55.3169C318.494 55.0825 318.591 54.9849 318.782 54.9849C318.987 54.9849 319.114 55.1313 319.114 55.3462C319.114 55.4048 319.104 55.4731 319.094 55.5317C318.977 56.1812 318.367 56.6548 317.522 56.6548ZM315.847 62.5923C315.471 62.5923 315.271 62.3677 315.271 62.0063V57.812C315.271 57.4751 315.486 57.27 315.789 57.27C316.091 57.27 316.311 57.4751 316.311 57.812V60.9614H316.35L318.523 57.6704C318.713 57.3774 318.894 57.27 319.182 57.27C319.534 57.27 319.763 57.4946 319.763 57.856V62.0503C319.763 62.3921 319.544 62.5923 319.241 62.5923C318.938 62.5923 318.723 62.3921 318.723 62.0503V58.8911H318.684L316.506 62.1968C316.316 62.4897 316.135 62.5923 315.847 62.5923ZM323.193 62.5972C321.724 62.5972 320.767 61.5767 320.767 59.9409C320.767 58.3149 321.719 57.27 323.184 57.27C324.175 57.27 325.024 57.7974 325.249 58.5151C325.283 58.5981 325.298 58.686 325.298 58.7593C325.298 59.0278 325.107 59.1938 324.849 59.1938C324.624 59.1938 324.497 59.106 324.37 58.8716C324.106 58.3833 323.745 58.1489 323.208 58.1489C322.378 58.1489 321.841 58.8374 321.841 59.9312C321.841 61.0493 322.388 61.7134 323.203 61.7134C323.774 61.7134 324.121 61.4595 324.37 61.0151C324.517 60.7612 324.634 60.6733 324.858 60.6733C325.117 60.6733 325.308 60.8491 325.308 61.1128C325.308 61.1958 325.288 61.2837 325.249 61.3862C324.98 62.0942 324.146 62.5972 323.193 62.5972ZM327.996 62.5923C327.683 62.5923 327.478 62.3921 327.478 62.0845V58.1978H326.189C325.959 58.1978 325.788 58.0415 325.788 57.7876C325.788 57.5386 325.959 57.3628 326.189 57.3628H329.817C330.041 57.3628 330.217 57.5386 330.217 57.7876C330.217 58.0415 330.041 58.1978 329.817 58.1978H328.528V62.0845C328.528 62.3921 328.313 62.5923 327.996 62.5923ZM331.557 62.4995C331.216 62.4995 331.011 62.2847 331.011 61.9331V57.9341C331.011 57.5776 331.216 57.3628 331.557 57.3628H333.345C334.346 57.3628 334.951 57.8608 334.951 58.6714C334.951 59.2036 334.57 59.687 334.077 59.7798V59.8188C334.741 59.9067 335.18 60.3755 335.18 61.02C335.18 61.9233 334.487 62.4995 333.374 62.4995H331.557ZM332.051 59.4771H333.027C333.623 59.4771 333.921 59.2476 333.921 58.7935C333.921 58.3687 333.642 58.1294 333.13 58.1294H332.051V59.4771ZM332.051 61.7329H333.213C333.808 61.7329 334.131 61.4692 334.131 60.9761C334.131 60.4683 333.789 60.2144 333.096 60.2144H332.051V61.7329ZM336.794 62.5923C336.418 62.5923 336.218 62.3677 336.218 62.0063V57.812C336.218 57.4751 336.433 57.27 336.736 57.27C337.038 57.27 337.258 57.4751 337.258 57.812V60.9614H337.297L339.47 57.6704C339.66 57.3774 339.841 57.27 340.129 57.27C340.481 57.27 340.71 57.4946 340.71 57.856V62.0503C340.71 62.3921 340.49 62.5923 340.188 62.5923C339.885 62.5923 339.67 62.3921 339.67 62.0503V58.8911H339.631L337.453 62.1968C337.263 62.4897 337.082 62.5923 336.794 62.5923ZM345.346 62.5923C345.034 62.5923 344.824 62.397 344.824 62.0894V60.7368H344.018L342.89 62.2798C342.71 62.5288 342.602 62.5923 342.382 62.5923C342.099 62.5923 341.904 62.4019 341.904 62.1675C341.904 62.0356 341.943 61.9233 342.046 61.8013L343.003 60.5317C342.285 60.3315 341.855 59.7993 341.855 59.0962C341.855 58.0269 342.631 57.3628 343.838 57.3628H345.317C345.654 57.3628 345.859 57.5776 345.859 57.9341V62.0894C345.859 62.397 345.659 62.5923 345.346 62.5923ZM344.819 59.9263V58.1929H343.891C343.291 58.1929 342.905 58.5347 342.905 59.0913C342.905 59.5796 343.296 59.9263 343.891 59.9263H344.819Z" fill="#030303"/>
</g>
<defs>
<clipPath id="clip0_4476_22614">
<rect width="351" height="134" fill="white"/>
</clipPath>
</defs>
</svg>
