<svg width="24" height="24" viewBox="0 0 24 24" fill="none" xmlns="http://www.w3.org/2000/svg">
<path d="M2.5 19.1774C2.5 19.5606 2.81511 19.8587 3.18131 19.8587H20.8102C21.1849 19.8587 21.5 19.5606 21.5 19.1774C21.5 18.8027 21.1849 18.4961 20.8102 18.4961H3.18131C2.81511 18.4961 2.5 18.8027 2.5 19.1774Z" fill="#75B8FD"/>
<path d="M17.1367 16.3333C17.1367 16.8102 17.4348 17.0913 17.9287 17.0913H19.8961C20.3815 17.0913 20.6881 16.8102 20.6881 16.3333V10.704C20.6881 10.2271 20.3815 9.9375 19.8961 9.9375H17.9287C17.4348 9.9375 17.1367 10.2271 17.1367 10.704V16.3333Z" fill="#75B8FD"/>
<path d="M12.5234 16.3325C12.5234 16.8094 12.8301 17.0905 13.3155 17.0905H15.2828C15.7767 17.0905 16.0833 16.8094 16.0833 16.3325V6.82827C16.0833 6.35136 15.7767 6.07031 15.2828 6.07031H13.3155C12.8301 6.07031 12.5234 6.35136 12.5234 6.82827V16.3325Z" fill="#75B8FD"/>
<path d="M7.91797 16.3328C7.91797 16.8098 8.21604 17.0908 8.70148 17.0908H10.6773C11.1627 17.0908 11.4693 16.8098 11.4693 16.3328V4.88686C11.4693 4.40995 11.1627 4.12891 10.6773 4.12891H8.70148C8.21604 4.12891 7.91797 4.40995 7.91797 4.88686V16.3328Z" fill="#75B8FD"/>
<path d="M3.30078 16.332C3.30078 16.809 3.60737 17.09 4.0928 17.09H6.06008C6.55403 17.09 6.86062 16.809 6.86062 16.332V8.79507C6.86062 8.32666 6.55403 8.03711 6.06008 8.03711H4.0928C3.60737 8.03711 3.30078 8.32666 3.30078 8.79507V16.332Z" fill="#75B8FD"/>
</svg>
