<svg width="351" height="134" viewBox="0 0 351 134" fill="none" xmlns="http://www.w3.org/2000/svg">
<g clip-path="url(#clip0_4476_22651)">
<rect width="351" height="134" fill="#E7E7E7"/>
<rect x="231" y="30" width="180" height="180" rx="17" fill="#DCDCDC"/>
<path d="M247.094 115.35C247.094 111.291 250.384 108 254.444 108H328.65C332.709 108 336 111.291 336 115.35V117.634C336 121.693 332.709 124.984 328.65 124.984H254.444C250.384 124.984 247.094 121.693 247.094 117.634V115.35Z" fill="#CFCFCF"/>
<path d="M295.603 116.493C295.603 118.707 293.766 120.548 291.548 120.548C289.333 120.548 287.492 118.707 287.492 116.493C287.492 114.274 289.329 112.437 291.544 112.437C293.762 112.437 295.603 114.274 295.603 116.493ZM291.202 114.902V116.147H289.957C289.751 116.147 289.607 116.29 289.607 116.497C289.607 116.699 289.751 116.835 289.957 116.835H291.202V118.083C291.202 118.286 291.341 118.433 291.544 118.433C291.751 118.433 291.894 118.29 291.894 118.083V116.835H293.142C293.345 116.835 293.492 116.699 293.492 116.497C293.492 116.29 293.345 116.147 293.142 116.147H291.894V114.902C291.894 114.695 291.751 114.548 291.544 114.548C291.341 114.548 291.202 114.695 291.202 114.902Z" fill="white"/>
<rect x="244" y="44" width="92" height="57" rx="8" fill="#CFCFCF"/>
<rect x="250" y="49" width="18.2095" height="18.2095" rx="4.05445" fill="#B5D9FF"/>
<g opacity="0.7" filter="url(#filter0_f_4476_22651)">
<path fill-rule="evenodd" clip-rule="evenodd" d="M254.692 57.0186C253.774 56.1005 253.774 54.612 254.692 53.6939C255.611 52.7759 257.099 52.7759 258.017 53.6939L259.104 54.7809L260.191 53.694C261.109 52.7759 262.597 52.7759 263.516 53.694C264.434 54.6121 264.434 56.1006 263.516 57.0186L262.429 58.1055L263.515 59.1915C264.433 60.1096 264.433 61.5981 263.515 62.5161C262.597 63.4342 261.108 63.4342 260.19 62.5161L259.104 61.4301L258.018 62.5162C257.1 63.4343 255.611 63.4343 254.693 62.5162C253.775 61.5981 253.775 60.1097 254.693 59.1916L255.779 58.1055L254.692 57.0186ZM255.018 56.6935C254.279 55.9549 254.279 54.7575 255.018 54.019C255.756 53.2804 256.953 53.2804 257.692 54.019L259.104 55.431L260.516 54.0191C261.255 53.2805 262.452 53.2805 263.19 54.0191C263.929 54.7576 263.929 55.955 263.19 56.6936L261.779 58.1055L263.19 59.5166C263.928 60.2551 263.928 61.4525 263.19 62.1911C262.451 62.9296 261.254 62.9296 260.515 62.1911L259.104 60.78L257.693 62.1912C256.954 62.9297 255.757 62.9297 255.018 62.1912C254.28 61.4526 254.28 60.2552 255.018 59.5167L256.43 58.1055L255.018 56.6935Z" fill="white"/>
<rect x="261.746" y="52.5767" width="3.78232" height="11.5571" rx="1.89116" transform="rotate(45 261.746 52.5767)" fill="white" fill-opacity="0.28"/>
<rect x="253.249" y="55.2512" width="4.24203" height="12.0168" rx="2.12101" transform="rotate(-45 253.249 55.2512)" fill="#ABCFF8" stroke="white" stroke-width="0.459706"/>
<rect x="257.395" y="56.8141" width="4.24203" height="5.71293" rx="2.12101" transform="rotate(45 257.395 56.8141)" fill="#D9E9FC" stroke="white" stroke-width="0.459706"/>
</g>
<path fill-rule="evenodd" clip-rule="evenodd" d="M254.692 57.0186C253.774 56.1005 253.774 54.612 254.692 53.6939C255.611 52.7759 257.099 52.7759 258.017 53.6939L259.104 54.7809L260.191 53.694C261.109 52.7759 262.597 52.7759 263.516 53.694C264.434 54.6121 264.434 56.1006 263.516 57.0186L262.429 58.1055L263.515 59.1915C264.433 60.1096 264.433 61.5981 263.515 62.5161C262.597 63.4342 261.108 63.4342 260.19 62.5161L259.104 61.4301L258.018 62.5162C257.1 63.4343 255.611 63.4343 254.693 62.5162C253.775 61.5981 253.775 60.1097 254.693 59.1916L255.779 58.1055L254.692 57.0186ZM255.018 56.6935C254.279 55.9549 254.279 54.7575 255.018 54.019C255.756 53.2804 256.953 53.2804 257.692 54.019L259.104 55.431L260.516 54.0191C261.255 53.2805 262.452 53.2805 263.19 54.0191C263.929 54.7576 263.929 55.955 263.19 56.6936L261.779 58.1055L263.19 59.5166C263.928 60.2551 263.928 61.4525 263.19 62.1911C262.451 62.9296 261.254 62.9296 260.515 62.1911L259.104 60.78L257.693 62.1912C256.954 62.9297 255.757 62.9297 255.018 62.1912C254.28 61.4526 254.28 60.2552 255.018 59.5167L256.43 58.1055L255.018 56.6935Z" fill="white"/>
<rect x="261.852" y="52.6814" width="3.78232" height="11.5571" rx="1.89116" transform="rotate(45 261.852 52.6814)" fill="#C8E2FE"/>
<rect x="253.355" y="55.356" width="4.24203" height="12.0168" rx="2.12101" transform="rotate(-45 253.355 55.356)" fill="#B4D8FE" stroke="white" stroke-width="0.459706"/>
<rect x="257.395" y="56.8141" width="4.24203" height="5.71293" rx="2.12101" transform="rotate(45 257.395 56.8141)" fill="#C8E2FE" stroke="white" stroke-width="0.459706"/>
<path opacity="0.5" d="M250.123 82.8262V81.6616C250.123 81.3452 250.272 81.1694 250.541 81.1475H250.598C251.033 80.9102 251.191 80.396 251.244 79.5039L251.437 76.3135C251.463 75.896 251.74 75.6587 252.184 75.6587H255.115C255.423 75.6587 255.607 75.8521 255.607 76.1685V81.1475H255.933C256.218 81.1475 256.398 81.3408 256.398 81.644V82.8262C256.398 83.1118 256.227 83.3052 255.95 83.3052C255.673 83.3052 255.498 83.1118 255.498 82.8262V82H251.028V82.8262C251.028 83.1118 250.853 83.3052 250.576 83.3052C250.303 83.3052 250.123 83.1118 250.123 82.8262ZM251.723 81.1475H254.623V76.5068H252.351L252.158 79.5479C252.109 80.3608 251.995 80.7871 251.723 81.1123V81.1475ZM259.235 82.0879C257.912 82.0879 257.042 81.1782 257.042 79.6885C257.042 78.2031 257.917 77.2935 259.235 77.2935C260.553 77.2935 261.428 78.2031 261.428 79.6885C261.428 81.1782 260.558 82.0879 259.235 82.0879ZM259.235 81.3057C259.982 81.3057 260.461 80.7168 260.461 79.6885C260.461 78.6646 259.978 78.0757 259.235 78.0757C258.492 78.0757 258.009 78.6646 258.009 79.6885C258.009 80.7168 258.492 81.3057 259.235 81.3057ZM264.396 82.0879C262.946 82.0879 262.164 81.1343 262.164 79.3149C262.164 76.7266 262.933 75.707 264.673 75.6455C265.236 75.6279 265.508 75.5796 265.68 75.5488C265.794 75.5269 265.86 75.5137 265.943 75.5137C266.167 75.5137 266.347 75.6235 266.347 75.874C266.347 76.0981 266.207 76.2476 265.904 76.3354C265.719 76.397 265.451 76.4277 264.735 76.4497C263.561 76.4849 263.122 76.9727 262.937 78.3525H262.972C263.258 77.8164 263.812 77.5088 264.55 77.5088C265.798 77.5088 266.598 78.3789 266.598 79.7412C266.598 81.1958 265.759 82.0879 264.396 82.0879ZM264.388 81.2925C265.174 81.2925 265.627 80.7344 265.627 79.7544C265.627 78.8184 265.17 78.2822 264.388 78.2822C263.597 78.2822 263.139 78.8184 263.139 79.7544C263.139 80.7344 263.592 81.2925 264.388 81.2925ZM268.863 82.0791C267.958 82.0791 267.321 81.5166 267.321 80.686C267.321 79.8774 267.945 79.3809 269.039 79.3193L270.309 79.2446V78.8887C270.309 78.3745 269.962 78.0669 269.382 78.0669C268.925 78.0669 268.622 78.2295 268.358 78.6514C268.261 78.792 268.138 78.8535 267.971 78.8535C267.734 78.8535 267.562 78.6953 267.562 78.458C267.562 78.3613 267.589 78.2559 267.646 78.1504C267.888 77.6274 268.586 77.2935 269.417 77.2935C270.538 77.2935 271.254 77.8867 271.254 78.814V81.6045C271.254 81.9033 271.065 82.0835 270.797 82.0835C270.533 82.0835 270.353 81.9121 270.344 81.6309V81.2397H270.322C270.054 81.7539 269.465 82.0791 268.863 82.0791ZM269.123 81.3276C269.786 81.3276 270.309 80.8706 270.309 80.2686V79.9038L269.166 79.9741C268.6 80.0137 268.279 80.2642 268.279 80.6597C268.279 81.064 268.617 81.3276 269.123 81.3276ZM272.834 82C272.526 82 272.341 81.8066 272.341 81.4902V77.8911C272.341 77.5703 272.526 77.377 272.834 77.377H274.442C275.343 77.377 275.888 77.8252 275.888 78.5547C275.888 79.0337 275.545 79.4688 275.101 79.5522V79.5874C275.699 79.6665 276.094 80.0884 276.094 80.6685C276.094 81.4814 275.47 82 274.468 82H272.834ZM273.277 79.2798H274.156C274.693 79.2798 274.961 79.0732 274.961 78.6646C274.961 78.2822 274.71 78.0669 274.249 78.0669H273.277V79.2798ZM273.277 81.3101H274.323C274.86 81.3101 275.15 81.0728 275.15 80.6289C275.15 80.1719 274.842 79.9434 274.218 79.9434H273.277V81.3101ZM277.547 82.0835C277.208 82.0835 277.028 81.8813 277.028 81.5562V77.7812C277.028 77.478 277.221 77.2935 277.494 77.2935C277.766 77.2935 277.964 77.478 277.964 77.7812V80.6157H277.999L279.955 77.6538C280.126 77.3901 280.289 77.2935 280.548 77.2935C280.865 77.2935 281.071 77.4956 281.071 77.8208V81.5957C281.071 81.9033 280.873 82.0835 280.601 82.0835C280.328 82.0835 280.135 81.9033 280.135 81.5957V78.7524H280.1L278.14 81.7275C277.969 81.9912 277.806 82.0835 277.547 82.0835ZM283.767 82.0835C283.486 82.0835 283.301 81.9033 283.301 81.6265V78.1284H282.141C281.935 78.1284 281.781 77.9878 281.781 77.7593C281.781 77.5352 281.935 77.377 282.141 77.377H285.406C285.608 77.377 285.767 77.5352 285.767 77.7593C285.767 77.9878 285.608 78.1284 285.406 78.1284H284.246V81.6265C284.246 81.9033 284.053 82.0835 283.767 82.0835ZM286.973 82C286.665 82 286.481 81.8066 286.481 81.4902V77.7549C286.481 77.4736 286.665 77.2935 286.946 77.2935C287.232 77.2935 287.425 77.4736 287.425 77.7549V78.8052H288.309C289.377 78.8052 290.067 79.4248 290.067 80.4004C290.067 81.3804 289.377 82 288.309 82H286.973ZM287.425 81.2529H288.225C288.77 81.2529 289.122 80.9102 289.122 80.4004C289.122 79.8862 288.766 79.5479 288.225 79.5479H287.425V81.2529ZM252.171 93.0879C251.332 93.0879 250.668 92.7759 250.417 92.2617C250.369 92.1694 250.347 92.0728 250.347 91.9805C250.347 91.7388 250.514 91.585 250.76 91.585C250.932 91.585 251.015 91.6421 251.138 91.8003C251.406 92.1694 251.679 92.3232 252.171 92.3232C252.755 92.3232 253.116 92.0596 253.116 91.6333C253.116 91.1763 252.812 90.9609 252.175 90.9609H251.784C251.578 90.9609 251.441 90.8247 251.441 90.6138C251.441 90.3984 251.578 90.2622 251.784 90.2622H252.162C252.698 90.2622 252.966 90.0601 252.966 89.6558C252.966 89.269 252.676 89.0493 252.175 89.0493C251.696 89.0493 251.419 89.2119 251.217 89.5547C251.099 89.7393 251.002 89.8008 250.826 89.8008C250.584 89.8008 250.431 89.6514 250.431 89.4185C250.431 89.3042 250.448 89.2163 250.492 89.1152C250.721 88.5967 251.349 88.2935 252.171 88.2935C253.256 88.2935 253.894 88.7637 253.894 89.5635C253.894 90.0337 253.608 90.4336 253.16 90.5479V90.583C253.735 90.7148 254.056 91.0884 254.056 91.6289C254.056 92.5122 253.313 93.0879 252.171 93.0879ZM256.343 93.0791C255.438 93.0791 254.801 92.5166 254.801 91.686C254.801 90.8774 255.425 90.3809 256.519 90.3193L257.789 90.2446V89.8887C257.789 89.3745 257.442 89.0669 256.862 89.0669C256.405 89.0669 256.102 89.2295 255.838 89.6514C255.741 89.792 255.618 89.8535 255.451 89.8535C255.214 89.8535 255.043 89.6953 255.043 89.458C255.043 89.3613 255.069 89.2559 255.126 89.1504C255.368 88.6274 256.067 88.2935 256.897 88.2935C258.018 88.2935 258.734 88.8867 258.734 89.814V92.6045C258.734 92.9033 258.545 93.0835 258.277 93.0835C258.013 93.0835 257.833 92.9121 257.824 92.6309V92.2397H257.802C257.534 92.7539 256.945 93.0791 256.343 93.0791ZM256.603 92.3276C257.266 92.3276 257.789 91.8706 257.789 91.2686V90.9038L256.647 90.9741C256.08 91.0137 255.759 91.2642 255.759 91.6597C255.759 92.064 256.097 92.3276 256.603 92.3276ZM261.338 93.0835C261.056 93.0835 260.872 92.9033 260.872 92.6265V89.1284H259.712C259.505 89.1284 259.351 88.9878 259.351 88.7593C259.351 88.5352 259.505 88.377 259.712 88.377H262.977C263.179 88.377 263.337 88.5352 263.337 88.7593C263.337 88.9878 263.179 89.1284 262.977 89.1284H261.817V92.6265C261.817 92.9033 261.623 93.0835 261.338 93.0835ZM266.982 93.0835C266.701 93.0835 266.512 92.9077 266.512 92.6309V91.4136H265.787L264.772 92.8022C264.609 93.0264 264.513 93.0835 264.315 93.0835C264.06 93.0835 263.884 92.9121 263.884 92.7012C263.884 92.5825 263.919 92.4814 264.012 92.3716L264.873 91.229C264.227 91.0488 263.84 90.5698 263.84 89.937C263.84 88.9746 264.539 88.377 265.624 88.377H266.956C267.259 88.377 267.444 88.5703 267.444 88.8911V92.6309C267.444 92.9077 267.264 93.0835 266.982 93.0835ZM266.508 90.6841V89.124H265.673C265.132 89.124 264.785 89.4316 264.785 89.9326C264.785 90.3721 265.137 90.6841 265.673 90.6841H266.508ZM271.489 93.0835C271.203 93.0835 271.019 92.8857 271.019 92.5781V90.8687H270.988L269.336 92.8066C269.164 93.022 269.05 93.0835 268.839 93.0835C268.602 93.0835 268.408 92.9165 268.408 92.6528C268.408 92.5254 268.465 92.4199 268.558 92.3057L270.083 90.5522L268.619 89.0273C268.509 88.9087 268.47 88.8252 268.47 88.689C268.47 88.4604 268.663 88.2935 268.905 88.2935C269.05 88.2935 269.169 88.355 269.278 88.4868L270.988 90.3545H271.019V88.8032C271.019 88.4912 271.203 88.2935 271.489 88.2935C271.77 88.2935 271.955 88.4912 271.955 88.8032V90.3545H271.99L273.699 88.4868C273.809 88.355 273.928 88.2935 274.073 88.2935C274.319 88.2935 274.508 88.4604 274.508 88.689C274.508 88.8252 274.468 88.9087 274.359 89.0273L272.895 90.5522L274.42 92.3057C274.512 92.4199 274.569 92.5254 274.569 92.6528C274.569 92.9165 274.376 93.0835 274.139 93.0835C273.928 93.0835 273.814 93.022 273.642 92.8066L271.99 90.8687H271.955V92.5781C271.955 92.8857 271.77 93.0835 271.489 93.0835ZM276.017 93.0835C275.736 93.0835 275.552 92.9033 275.552 92.6265V88.7549C275.552 88.4736 275.736 88.2935 276.017 88.2935C276.303 88.2935 276.496 88.4736 276.496 88.7549V90.3545H276.532L278.399 88.4648C278.518 88.3374 278.61 88.2935 278.751 88.2935C278.988 88.2935 279.173 88.4604 279.173 88.689C279.173 88.812 279.142 88.8911 279.023 89.0054L277.428 90.5479L279.098 92.3188C279.199 92.4331 279.239 92.5298 279.239 92.6484C279.239 92.8945 279.054 93.0835 278.804 93.0835C278.619 93.0835 278.496 93.0088 278.382 92.8726L276.532 90.8687H276.496V92.6265C276.496 92.9033 276.303 93.0835 276.017 93.0835ZM280.726 94.7227C280.287 94.7227 280.045 94.5601 280.045 94.2656C280.045 94.0635 280.186 93.9316 280.414 93.9316C280.515 93.9316 280.55 93.936 280.66 93.936C280.924 93.936 281.192 93.791 281.363 93.3164L281.451 93.0483L279.904 89.001C279.869 88.9043 279.852 88.8076 279.852 88.7329C279.852 88.4736 280.058 88.2935 280.335 88.2935C280.572 88.2935 280.708 88.3945 280.792 88.6582L281.97 92.1387H281.983L283.165 88.6582C283.244 88.3989 283.376 88.2935 283.618 88.2935C283.89 88.2935 284.079 88.4736 284.079 88.7285C284.079 88.8032 284.061 88.8999 284.031 88.9922L282.427 93.2329C282.018 94.3447 281.583 94.7227 280.726 94.7227Z" fill="#454545"/>
</g>
<defs>
<filter id="filter0_f_4476_22651" x="252.678" y="51.8984" width="12.5275" height="12.632" filterUnits="userSpaceOnUse" color-interpolation-filters="sRGB">
<feFlood flood-opacity="0" result="BackgroundImageFix"/>
<feBlend mode="normal" in="SourceGraphic" in2="BackgroundImageFix" result="shape"/>
<feGaussianBlur stdDeviation="0.501007" result="effect1_foregroundBlur_4476_22651"/>
</filter>
<clipPath id="clip0_4476_22651">
<rect width="351" height="134" fill="white"/>
</clipPath>
</defs>
</svg>
