<svg width="28" height="28" viewBox="0 0 28 28" fill="none" xmlns="http://www.w3.org/2000/svg">
<path d="M11.7354 7.4525C11.3988 8.29547 11.1467 9.16975 10.9828 10.0625H17.0172C16.8529 9.16971 16.6004 8.29543 16.2635 7.4525C15.9249 6.62787 15.5345 5.99675 15.1295 5.58162C14.7267 5.16762 14.3454 5 14 5C13.6546 5 13.2733 5.16762 12.8705 5.58162C12.4655 5.99787 12.0751 6.62787 11.7354 7.4525ZM11.6274 5.31612C11.2741 5.79537 10.9636 6.37475 10.6959 7.02387C10.3359 7.90137 10.0434 8.92962 9.83863 10.0625H5.9045C6.46644 8.91018 7.2675 7.89085 8.25431 7.07242C9.24112 6.25399 10.391 5.65526 11.6274 5.31612ZM16.3737 5.31612C16.7259 5.79537 17.0375 6.37475 17.3041 7.02387C17.6641 7.90137 17.9566 8.92962 18.1614 10.0625H22.0955C21.5336 8.91018 20.7325 7.89085 19.7457 7.07242C18.7589 6.25399 17.6101 5.65526 16.3737 5.31612ZM22.5522 11.1875H18.3312C18.4415 12.0819 18.5 13.0257 18.5 14C18.5 14.9742 18.4415 15.9181 18.3312 16.8125H22.5522C22.8498 15.9047 23.001 14.9553 23 14C23.001 13.0447 22.8498 12.0953 22.5522 11.1875ZM22.0955 17.9375H18.1614C17.9566 19.0704 17.6652 20.0997 17.3041 20.975C17.0638 21.5799 16.7514 22.1537 16.3737 22.6839C17.6099 22.3446 18.7596 21.7458 19.7462 20.9274C20.7328 20.109 21.5337 19.0897 22.0955 17.9375ZM14 23C14.3454 23 14.7267 22.8324 15.1295 22.4184C15.5345 22.0021 15.9249 21.3721 16.2635 20.5475C16.6004 19.7046 16.8529 18.8303 17.0172 17.9375H10.9828C11.1718 18.9196 11.4294 19.8016 11.7365 20.5475C12.0751 21.3721 12.4655 22.0032 12.8705 22.4184C13.2733 22.8324 13.6546 23 14 23ZM11.6263 22.6839C10.3903 22.3444 9.24084 21.7456 8.25444 20.9272C7.26804 20.1088 6.46733 19.0896 5.90563 17.9375H9.83975C10.0445 19.0704 10.3359 20.0997 10.697 20.975C10.9636 21.6252 11.2753 22.2046 11.6285 22.6839M5.44888 16.8125H9.66875C9.5566 15.8792 9.50025 14.94 9.5 14C9.5 13.0257 9.5585 12.0819 9.66875 11.1875H5.44775C5.15018 12.0953 4.99904 13.0447 5 14C5 14.9821 5.15863 15.9271 5.44888 16.8125ZM10.625 14C10.625 13.0156 10.688 12.0706 10.8028 11.1875H17.1972C17.312 12.0706 17.375 13.0156 17.375 14C17.375 14.9844 17.312 15.9282 17.1972 16.8125H10.8028C10.6817 15.8799 10.6223 14.9404 10.625 14Z" fill="#030303" fill-opacity="0.3"/>
</svg>
