<svg width="25" height="24" viewBox="0 0 25 24" fill="none" xmlns="http://www.w3.org/2000/svg">
<g clip-path="url(#clip0_3492_5418)">
<path d="M10.9616 18.5062C11.3944 18.5062 11.736 18.328 11.9753 17.963L18.8667 7.19239C19.0466 6.92034 19.1137 6.68375 19.1137 6.45569C19.1137 5.89055 18.7183 5.49414 18.1386 5.49414C17.7308 5.49414 17.4917 5.63348 17.2422 6.02837L10.9254 16.1162L7.6356 11.7873C7.39029 11.4712 7.1408 11.3344 6.77851 11.3344C6.19878 11.3344 5.77734 11.7463 5.77734 12.3209C5.77734 12.5695 5.86948 12.8148 6.07498 13.0677L9.93996 17.9714C10.2327 18.3365 10.5424 18.5062 10.9616 18.5062Z" fill="white"/>
</g>
<defs>
<clipPath id="clip0_3492_5418">
<rect width="14" height="14" fill="white" transform="translate(5.44531 5)"/>
</clipPath>
</defs>
</svg>
