<svg width="69" height="68" viewBox="0 0 69 68" fill="none" xmlns="http://www.w3.org/2000/svg">
<path d="M16.6523 48.3495C16.6523 52.3731 18.7031 54.4043 22.7852 54.4043H45.1875C49.2695 54.4043 51.3203 52.3731 51.3203 48.3495V29.248C51.3203 25.2246 49.2695 23.1934 45.1875 23.1934H35.5391V13.7598C35.5391 12.9395 34.8359 12.2363 33.9961 12.2363C33.1562 12.2363 32.4336 12.9395 32.4336 13.7598V23.1934H22.7852C18.7031 23.1934 16.6523 25.2246 16.6523 29.248V48.3495ZM33.9766 41.8067C33.5859 41.8067 33.2539 41.6895 32.8437 41.2987L26.2422 34.9121C25.9492 34.6191 25.793 34.3067 25.793 33.8965C25.793 33.0957 26.3789 32.5293 27.1992 32.5293C27.5703 32.5293 28 32.6855 28.2734 32.9981L31.5937 36.5137L32.5508 37.5293L32.4336 34.5995V24.5605C32.4336 23.6816 33.0586 23.0762 33.9766 23.0762C34.8945 23.0762 35.5391 23.6816 35.5391 24.5605V34.5995L35.4219 37.5293L36.3594 36.5137L39.6991 32.9981C39.9727 32.6855 40.3633 32.5293 40.7539 32.5293C41.5547 32.5293 42.1797 33.0957 42.1797 33.8965C42.1797 34.3067 42.0039 34.6191 41.7109 34.9121L35.1094 41.2987C34.7187 41.6895 34.3867 41.8067 33.9766 41.8067Z" fill="#75B8FD"/>
</svg>
