<svg width="23" height="22" viewBox="0 0 23 22" fill="none" xmlns="http://www.w3.org/2000/svg">
<path d="M19.4561 10.9956C19.4561 15.4602 15.8256 19.0987 11.353 19.0987C6.88843 19.0987 3.25 15.4602 3.25 10.9956C3.25 6.52306 6.88843 2.89258 11.353 2.89258C15.8256 2.89258 19.4561 6.52306 19.4561 10.9956ZM9.5656 6.86465L7.49217 8.96985C7.34918 9.12079 7.27768 9.29556 7.27768 9.47828C7.27768 9.65305 7.34124 9.82782 7.49217 9.97876L9.57355 12.1078C9.68477 12.219 9.82776 12.2826 10.0105 12.2826C10.3362 12.2826 10.5904 12.0124 10.5904 11.6709C10.5904 11.4961 10.5268 11.3531 10.4077 11.2339L9.44644 10.3045L9.07306 10.0423L9.88337 10.0741H12.2031C13.4185 10.0741 14.2209 10.797 14.2209 11.8854C14.2209 13.0611 13.4027 13.8396 12.1951 13.8396H11.1147C10.7413 13.8396 10.4951 14.0779 10.4951 14.4275C10.4951 14.7849 10.7493 15.0233 11.1306 15.0233H12.1951C14.1176 15.0233 15.4045 13.784 15.4045 11.8854C15.4045 10.082 14.1255 8.89042 12.2031 8.89042H9.88337L9.06512 8.93014L9.60532 8.50115L10.4077 7.72262C10.5268 7.61935 10.5904 7.46046 10.5904 7.30158C10.5904 6.95204 10.3441 6.68988 10.0025 6.68988C9.81981 6.68988 9.68477 6.74549 9.5656 6.86465Z" fill="white"/>
</svg>
