<svg width="48" height="49" viewBox="0 0 48 49" fill="none" xmlns="http://www.w3.org/2000/svg">
<g clip-path="url(#clip0_2227_12088)">
<g clip-path="url(#clip1_2227_12088)">
<path opacity="0.5" d="M36.5522 15.4758V25.9127C35.7278 25.9151 34.9274 26.0275 34.1673 26.2438V19.7394C34.1673 18.3669 33.4052 17.6647 32.0925 17.6647H11.4087C10.0833 17.6647 9.35288 18.3669 9.35288 19.7394V33.7297C9.35288 35.1022 10.0833 35.8012 11.4087 35.8012H27.0663C27.0836 36.6361 27.2191 37.4415 27.4529 38.205H11.6226C8.52706 38.205 6.96484 36.6585 6.96484 33.5943V15.4758C6.96484 12.4117 8.52706 10.8652 11.6226 10.8652H31.8944C35.0088 10.8652 36.5522 12.4181 36.5522 15.4758ZM15.4868 31.153V32.0244C15.4868 32.5385 15.323 32.7024 14.79 32.7024H13.9185C13.4011 32.7024 13.2216 32.5385 13.2216 32.0244V31.153C13.2216 30.6388 13.4011 30.4782 13.9185 30.4782H14.79C15.323 30.4782 15.4868 30.6388 15.4868 31.153ZM20.4167 31.153V32.0244C20.4167 32.5385 20.253 32.7024 19.7198 32.7024H18.8483C18.3343 32.7024 18.1705 32.5385 18.1705 32.0244V31.153C18.1705 30.6388 18.3343 30.4782 18.8483 30.4782H19.7198C20.253 30.4782 20.4167 30.6388 20.4167 31.153ZM25.3465 31.153V32.0244C25.3465 32.5385 25.1859 32.7024 24.6687 32.7024H23.7972C23.264 32.7024 23.1003 32.5385 23.1003 32.0244V31.153C23.1003 30.6388 23.264 30.4782 23.7972 30.4782H24.6687C25.1859 30.4782 25.3465 30.6388 25.3465 31.153ZM15.4868 26.2989V27.1704C15.4868 27.6844 15.323 27.8449 14.79 27.8449H13.9185C13.4011 27.8449 13.2216 27.6844 13.2216 27.1704V26.2989C13.2216 25.7847 13.4011 25.621 13.9185 25.621H14.79C15.323 25.621 15.4868 25.7847 15.4868 26.2989ZM20.4167 26.2989V27.1704C20.4167 27.6844 20.253 27.8449 19.7198 27.8449H18.8483C18.3343 27.8449 18.1705 27.6844 18.1705 27.1704V26.2989C18.1705 25.7847 18.3343 25.621 18.8483 25.621H19.7198C20.253 25.621 20.4167 25.7847 20.4167 26.2989ZM25.3465 26.2989V27.1704C25.3465 27.6844 25.1859 27.8449 24.6687 27.8449H23.7972C23.264 27.8449 23.1003 27.6844 23.1003 27.1704V26.2989C23.1003 25.7847 23.264 25.621 23.7972 25.621H24.6687C25.1859 25.621 25.3465 25.7847 25.3465 26.2989ZM30.2954 26.2989V27.1704C30.2954 27.6844 30.1159 27.8449 29.5985 27.8449H28.727C28.194 27.8449 28.0334 27.6844 28.0334 27.1704V26.2989C28.0334 25.7847 28.194 25.621 28.727 25.621H29.5985C30.1159 25.621 30.2954 25.7847 30.2954 26.2989ZM20.4167 21.4415V22.3129C20.4167 22.8271 20.253 22.9909 19.7198 22.9909H18.8483C18.3343 22.9909 18.1705 22.8271 18.1705 22.3129V21.4415C18.1705 20.9306 18.3343 20.7669 18.8483 20.7669H19.7198C20.253 20.7669 20.4167 20.9306 20.4167 21.4415ZM25.3465 21.4415V22.3129C25.3465 22.8271 25.1859 22.9909 24.6687 22.9909H23.7972C23.264 22.9909 23.1003 22.8271 23.1003 22.3129V21.4415C23.1003 20.9306 23.264 20.7669 23.7972 20.7669H24.6687C25.1859 20.7669 25.3465 20.9306 25.3465 21.4415ZM30.2954 21.4415V22.3129C30.2954 22.8271 30.1159 22.9909 29.5985 22.9909H28.727C28.194 22.9909 28.0334 22.8271 28.0334 22.3129V21.4415C28.0334 20.9306 28.194 20.7669 28.727 20.7669H29.5985C30.1159 20.7669 30.2954 20.9306 30.2954 21.4415Z" fill="#75B8FD"/>
<path d="M44.1608 35.4748C44.1608 39.5947 40.7105 43.0292 36.6096 43.0292C32.4772 43.0292 29.0742 39.6262 29.0742 35.4748C29.0742 31.3457 32.4772 27.9395 36.6096 27.9395C40.7609 27.9395 44.1608 31.3425 44.1608 35.4748ZM34.1785 32.4639V38.4699C34.1785 39.0944 34.806 39.356 35.3419 39.0249L40.2858 36.112C40.8125 35.8124 40.7654 35.1312 40.1946 34.7812L35.3419 31.909C34.8092 31.5968 34.1785 31.8428 34.1785 32.4639Z" fill="#75B8FD"/>
</g>
</g>
<defs>
<clipPath id="clip0_2227_12088">
<rect width="48" height="48" fill="white" transform="translate(0 0.5)"/>
</clipPath>
<clipPath id="clip1_2227_12088">
<rect width="48.8789" height="41.0378" fill="white" transform="translate(-2.67969 4)"/>
</clipPath>
</defs>
</svg>
