<svg width="23" height="22" viewBox="0 0 23 22" fill="none" xmlns="http://www.w3.org/2000/svg">
<path d="M16.4663 13.2098C16.6774 14.8842 16.7114 14.9115 18.4198 15.1564C18.5763 15.1837 18.6852 15.2926 18.6852 15.4424C18.6852 15.5853 18.5763 15.701 18.4265 15.7282C16.691 16.0618 16.6841 16.0481 16.4663 17.6817C16.4459 17.8314 16.3235 17.9404 16.1805 17.9404C16.024 17.9404 15.9083 17.8247 15.8946 17.6681C15.6905 16.0345 15.6564 16.0073 13.9548 15.7282C13.7847 15.701 13.6758 15.5921 13.6758 15.4424C13.6758 15.3062 13.7779 15.1905 13.9277 15.1564C15.6564 14.8298 15.6905 14.8502 15.8946 13.2166C15.9083 13.06 16.024 12.9443 16.1805 12.9443C16.3302 12.9443 16.4527 13.0533 16.4663 13.2098Z" fill="white"/>
<path d="M9.01719 4.25403C9.24861 5.49283 9.21457 5.45198 10.4533 5.69702C10.5758 5.71744 10.6575 5.80593 10.6575 5.92164C10.6575 6.03735 10.5758 6.13264 10.4533 6.15306C9.21457 6.3981 9.24861 6.35726 9.01719 7.59605C8.99677 7.71857 8.90149 7.79344 8.78578 7.79344C8.67007 7.79344 8.57479 7.71857 8.55436 7.59605C8.32295 6.35726 8.35699 6.3981 7.11825 6.15306C6.99574 6.13264 6.91406 6.03735 6.91406 5.92164C6.91406 5.80593 6.99574 5.71744 7.11825 5.69702C8.35699 5.45198 8.32295 5.49283 8.55436 4.25403C8.57479 4.13151 8.67007 4.05664 8.78578 4.05664C8.90149 4.05664 8.99677 4.13151 9.01719 4.25403Z" fill="white"/>
<path d="M10.698 15.7837C10.698 16.8523 9.82678 17.7236 8.77181 17.7236C7.70323 17.7236 6.83203 16.8523 6.83203 15.7837C6.83203 14.7287 7.70323 13.8574 8.77181 13.8574C9.82678 13.8574 10.698 14.7287 10.698 15.7837Z" fill="white"/>
<path d="M7.91691 9.76083C7.91691 10.7546 7.10016 11.5646 6.12006 11.5646C5.12635 11.5646 4.31641 10.7546 4.31641 9.76083C4.31641 8.78068 5.12635 7.9707 6.12006 7.9707C7.10016 7.9707 7.91691 8.78068 7.91691 9.76083Z" fill="white"/>
<path d="M18.4153 8.032C18.4153 9.63598 17.248 10.9646 15.7144 11.2119C15.7463 11.0396 15.7608 10.8614 15.7608 10.6798C15.7608 8.8556 14.2839 7.37857 12.4598 7.37857C12.3142 7.37857 12.1709 7.38799 12.0312 7.40946C12.3207 5.9301 13.6258 4.8125 15.1891 4.8125C16.9723 4.8125 18.4153 6.2555 18.4153 8.032Z" fill="white"/>
<path d="M12.4529 13.1903C13.8414 13.1903 14.9644 12.074 14.9644 10.6786C14.9644 9.29008 13.8414 8.16699 12.4529 8.16699C11.0644 8.16699 9.94141 9.29008 9.94141 10.6786C9.94141 12.074 11.0644 13.1903 12.4529 13.1903Z" fill="white"/>
</svg>
