<svg width="23" height="23" viewBox="0 0 23 23" fill="none" xmlns="http://www.w3.org/2000/svg">
<path fill-rule="evenodd" clip-rule="evenodd" d="M3.20671 6.23419C2.69141 7.33927 2.69141 8.76423 2.69141 11.6142C2.69141 14.4641 2.69141 15.889 3.20671 16.9941C3.75319 18.166 4.69509 19.1079 5.86701 19.6544C6.97209 20.1697 8.39704 20.1697 11.247 20.1697C14.0969 20.1697 15.5218 20.1697 16.6269 19.6544C17.7988 19.1079 18.7407 18.166 19.2872 16.9941C19.8025 15.889 19.8025 14.4641 19.8025 11.6142C19.8025 8.76423 19.8025 7.33927 19.2872 6.23419C18.7407 5.06228 17.7988 4.12037 16.6269 3.5739C15.5218 3.05859 14.0969 3.05859 11.247 3.05859C8.39704 3.05859 6.97209 3.05859 5.86701 3.5739C4.69509 4.12037 3.75319 5.06228 3.20671 6.23419ZM11.2454 7.99414C10.8446 7.99414 10.5197 8.31905 10.5197 8.71983C10.5197 9.12063 10.8446 9.44553 11.2454 9.44553H12.9768L8.92318 13.4991L7.98493 12.5609C7.70153 12.2775 7.24205 12.2775 6.95864 12.5609C6.67524 12.8443 6.67524 13.3037 6.95864 13.5871L8.51266 15.1412C8.73938 15.3679 9.10697 15.3679 9.33369 15.1412L14.003 10.4718V12.2032C14.003 12.604 14.3279 12.9289 14.7287 12.9289C15.1295 12.9289 15.4544 12.604 15.4544 12.2032V8.5747C15.4544 8.25406 15.1945 7.99414 14.8739 7.99414H11.2454Z" fill="#030303" fill-opacity="0.3"/>
</svg>
