<svg width="23" height="23" viewBox="0 0 23 23" fill="none" xmlns="http://www.w3.org/2000/svg">
<path fill-rule="evenodd" clip-rule="evenodd" d="M3.45671 6.23419C2.94141 7.33927 2.94141 8.76423 2.94141 11.6142C2.94141 14.4641 2.94141 15.889 3.45671 16.9941C4.00319 18.166 4.94509 19.1079 6.11701 19.6544C7.22209 20.1697 8.64704 20.1697 11.497 20.1697C14.3469 20.1697 15.7718 20.1697 16.8769 19.6544C18.0488 19.1079 18.9907 18.166 19.5372 16.9941C20.0525 15.889 20.0525 14.4641 20.0525 11.6142C20.0525 8.76423 20.0525 7.33927 19.5372 6.23419C18.9907 5.06228 18.0488 4.12037 16.8769 3.5739C15.7718 3.05859 14.3469 3.05859 11.497 3.05859C8.64704 3.05859 7.22209 3.05859 6.11701 3.5739C4.94509 4.12037 4.00319 5.06228 3.45671 6.23419ZM11.4954 7.99414C11.0946 7.99414 10.7697 8.31905 10.7697 8.71983C10.7697 9.12063 11.0946 9.44553 11.4954 9.44553H13.2268L9.17318 13.4991L8.23493 12.5609C7.95153 12.2775 7.49205 12.2775 7.20864 12.5609C6.92524 12.8443 6.92524 13.3037 7.20864 13.5871L8.76266 15.1412C8.98938 15.3679 9.35697 15.3679 9.58369 15.1412L14.253 10.4718V12.2032C14.253 12.604 14.5779 12.9289 14.9787 12.9289C15.3795 12.9289 15.7044 12.604 15.7044 12.2032V8.5747C15.7044 8.25406 15.4445 7.99414 15.1239 7.99414H11.4954Z" fill="#030303" fill-opacity="0.3"/>
</svg>
