<svg width="23" height="23" viewBox="0 0 23 23" fill="none" xmlns="http://www.w3.org/2000/svg">
<path fill-rule="evenodd" clip-rule="evenodd" d="M3.15203 6.12091C2.63672 7.22599 2.63672 8.65095 2.63672 11.5009C2.63672 14.3508 2.63672 15.7757 3.15203 16.8808C3.6985 18.0527 4.6404 18.9946 5.81232 19.5411C6.9174 20.0564 8.34236 20.0564 11.1923 20.0564C14.0422 20.0564 15.4672 20.0564 16.5722 19.5411C17.7441 18.9946 18.6861 18.0527 19.2325 16.8808C19.7478 15.7757 19.7478 14.3508 19.7478 11.5009C19.7478 8.65095 19.7478 7.22599 19.2325 6.12091C18.6861 4.949 17.7441 4.00709 16.5722 3.46062C15.4672 2.94531 14.0422 2.94531 11.1923 2.94531C8.34236 2.94531 6.9174 2.94531 5.81232 3.46062C4.6404 4.00709 3.6985 4.949 3.15203 6.12091ZM11.1907 7.88086C10.7899 7.88086 10.465 8.20576 10.465 8.60655C10.465 9.00734 10.7899 9.33225 11.1907 9.33225H12.9221L8.86849 13.3858L7.93024 12.4476C7.64684 12.1642 7.18736 12.1642 6.90396 12.4476C6.62056 12.731 6.62056 13.1905 6.90396 13.4739L8.45797 15.0279C8.6847 15.2546 9.05228 15.2546 9.279 15.0279L13.9483 10.3585V12.0899C13.9483 12.4907 14.2733 12.8156 14.674 12.8156C15.0748 12.8156 15.3997 12.4907 15.3997 12.0899V8.46141C15.3997 8.14078 15.1398 7.88086 14.8192 7.88086H11.1907Z" fill="#030303"/>
</svg>
