<svg width="23" height="23" viewBox="0 0 23 23" fill="none" xmlns="http://www.w3.org/2000/svg">
<path fill-rule="evenodd" clip-rule="evenodd" d="M3.20671 5.67755C2.69141 6.78263 2.69141 8.20759 2.69141 11.0575C2.69141 13.9074 2.69141 15.3324 3.20671 16.4375C3.75319 17.6094 4.69509 18.5513 5.86701 19.0978C6.97209 19.6131 8.39704 19.6131 11.247 19.6131C14.0969 19.6131 15.5218 19.6131 16.6269 19.0978C17.7988 18.5513 18.7407 17.6094 19.2872 16.4375C19.8025 15.3324 19.8025 13.9074 19.8025 11.0575C19.8025 8.20759 19.8025 6.78263 19.2872 5.67755C18.7407 4.50564 17.7988 3.56373 16.6269 3.01726C15.5218 2.50195 14.0969 2.50195 11.247 2.50195C8.39704 2.50195 6.97209 2.50195 5.86701 3.01726C4.69509 3.56373 3.75319 4.50564 3.20671 5.67755ZM11.2454 7.4375C10.8446 7.4375 10.5197 7.7624 10.5197 8.16319C10.5197 8.56398 10.8446 8.88889 11.2454 8.88889H12.9768L8.92318 12.9425L7.98493 12.0042C7.70153 11.7208 7.24205 11.7208 6.95864 12.0042C6.67524 12.2876 6.67524 12.7471 6.95864 13.0305L8.51266 14.5845C8.73938 14.8112 9.10697 14.8112 9.33369 14.5845L14.003 9.91518V11.6465C14.003 12.0473 14.3279 12.3722 14.7287 12.3722C15.1295 12.3722 15.4544 12.0473 15.4544 11.6465V8.01805C15.4544 7.69742 15.1945 7.4375 14.8739 7.4375H11.2454Z" fill="#030303"/>
</svg>
