<svg width="22" height="22" viewBox="0 0 22 22" fill="none" xmlns="http://www.w3.org/2000/svg">
<path d="M10.9262 4.81626C11.7803 4.81626 12.4909 4.10568 12.4909 3.25156C12.4909 2.39026 11.7803 1.67969 10.9262 1.67969C10.0649 1.67969 9.35432 2.39026 9.35432 3.25156C9.35432 4.10568 10.0649 4.81626 10.9262 4.81626ZM11.8521 16.5946C12.132 16.6663 12.6057 16.5658 12.7421 16.1065L13.7828 12.6541C13.8905 12.2808 13.7254 11.9004 13.3307 11.7641L10.5099 10.788L10.8616 8.38347C10.8759 8.23992 11.0626 8.20403 11.1272 8.34041L11.7301 9.51034C11.8664 9.77589 12.1033 9.9051 12.376 9.9051H15.2614C15.6562 9.9051 15.9863 9.59648 15.9863 9.18732C15.9863 8.79977 15.6562 8.4696 15.2614 8.4696H12.8211L11.8808 6.61063C11.5793 6.00772 11.041 5.58425 10.3663 5.45505L9.96441 5.3761C9.22512 5.23255 8.62939 5.39046 8.17003 5.67755L5.83734 7.12741C5.63637 7.26378 5.5 7.49346 5.5 7.75185V10.63C5.5 11.0248 5.83017 11.3621 6.22493 11.3621C6.61969 11.3621 6.94986 11.0248 6.94986 10.63V8.13944L7.9547 7.51499C8.04801 7.46475 8.15567 7.52217 8.13414 7.62983L7.80398 10.2927C7.67478 11.3119 8.01213 12.0081 9.18206 12.2808L12.1751 12.9843L11.364 15.7045C11.2564 16.0777 11.3999 16.4653 11.8521 16.5946ZM6.55509 19.1928C6.81348 19.365 7.28002 19.365 7.54559 18.9775L9.67013 15.8122C9.77061 15.6614 9.82086 15.5466 9.84957 15.3671L10.151 13.2498L9.02415 12.9843C8.85189 12.9483 8.70117 12.8909 8.55762 12.8407L8.40689 15.1159L6.35412 18.1879C6.13162 18.5181 6.21057 18.9703 6.55509 19.1928ZM9.41174 20.3196H11.7229C11.9454 20.3196 12.132 20.133 12.132 19.9105V18.5253H14.0412C14.2566 18.5253 14.436 18.353 14.436 18.1233V16.7309H16.3596C16.582 16.7309 16.7543 16.5586 16.7543 16.3361V14.9437H18.5918C18.8142 14.9437 19.0008 14.7642 19.0008 14.5418C19.0008 14.3264 18.8142 14.1398 18.5918 14.1398H16.3596C16.1371 14.1398 15.9648 14.3264 15.9648 14.5418V15.9342H14.0412C13.8115 15.9342 13.6465 16.1208 13.6465 16.3361V17.7285H11.7229C11.5076 17.7285 11.3353 17.9008 11.3353 18.1233V19.5229H9.41174C9.18206 19.5229 9.01698 19.6952 9.01698 19.9105C9.01698 20.133 9.18206 20.3196 9.41174 20.3196Z" fill="white"/>
</svg>
