<svg width="29" height="28" viewBox="0 0 29 28" fill="none" xmlns="http://www.w3.org/2000/svg">
<g clip-path="url(#clip0_4458_10932)">
<path d="M16.1844 8.69152V9.25851H15.666C15.3522 9.25851 15.0587 9.28865 14.7895 9.35034V8.81822C14.7895 7.62507 14.1015 6.98091 12.9589 6.98091H6.06147C4.92015 6.98091 4.23078 7.62507 4.23078 8.81822V12.8997C4.23078 14.1 4.92606 14.7383 6.06147 14.7383H6.8355C7.18392 14.7383 7.44812 14.9481 7.44812 15.3758V17.1933L9.71822 15.1408C10.0301 14.8551 10.2916 14.7383 10.7051 14.7383H12.5842V16.0514H10.6774L8.27815 18.109C7.80993 18.5131 7.47907 18.7373 7.09264 18.7373C6.52335 18.7373 6.18688 18.3301 6.18688 17.7065V16.0514H5.8684C4.04852 16.0514 2.83594 14.9449 2.83594 13.0718V8.69152C2.83594 6.79116 4.06796 5.66064 5.91635 5.66064H13.104C14.9524 5.66064 16.1844 6.79116 16.1844 8.69152Z" fill="#030303" fill-opacity="0.3"/>
<path d="M10.3657 8.44348L11.9948 12.8911C12.144 13.3078 11.9391 13.7514 11.4379 13.7514C11.1229 13.7514 10.934 13.5756 10.8234 13.224L10.4582 12.1682H8.47514L8.10856 13.224C8.00519 13.5756 7.81039 13.7514 7.49407 13.7514C6.99879 13.7514 6.7893 13.3078 6.93717 12.8911L8.56168 8.44348C8.71717 8.00133 9.02111 7.77197 9.45621 7.77197C9.90829 7.77197 10.2115 8.00521 10.3657 8.44348ZM8.77159 11.1985H10.1545L9.46304 9.0794L8.77159 11.1985Z" fill="#030303" fill-opacity="0.3"/>
<path d="M25.9007 12.2892V16.6694C25.9007 18.5367 24.6894 19.6491 22.8682 19.6491H22.575V21.3042C22.575 21.9278 22.2444 22.3337 21.6751 22.3337C21.2886 22.3337 20.9578 22.1108 20.4896 21.7053L18.0831 19.6491H15.6638C13.742 19.6491 12.582 18.5426 12.582 16.6694V12.2892C12.582 10.3888 13.742 9.2583 15.6638 9.2583H22.8203C24.6687 9.2583 25.9007 10.3888 25.9007 12.2892ZM16.9099 12.8012C16.5927 12.8012 16.3612 13.0196 16.3612 13.3138C16.3612 13.614 16.5953 13.8397 16.9099 13.8397H17.4428C17.6384 14.5322 17.9978 15.19 18.4862 15.7451C18.0122 16.0535 17.4577 16.2846 16.8103 16.4429C16.5076 16.5104 16.3265 16.7987 16.3893 17.1061C16.4736 17.4122 16.7797 17.556 17.11 17.4657C17.8986 17.293 18.6354 16.9619 19.2919 16.4834C19.9156 16.9521 20.6525 17.2858 21.3834 17.4586C21.7608 17.5488 22.0753 17.4253 22.1584 17.1087C22.2454 16.7758 22.0846 16.5104 21.7517 16.4429C21.1122 16.2956 20.561 16.0633 20.07 15.7451C20.5656 15.2045 20.9191 14.5538 21.1135 13.8397H21.6522C21.9668 13.8397 22.2009 13.614 22.2009 13.3138C22.2009 13.0196 21.9681 12.8012 21.6522 12.8012H16.9099ZM19.2919 15.0853C18.9624 14.7159 18.6998 14.2909 18.5381 13.8397H20.024C19.8649 14.285 19.6153 14.71 19.2919 15.0853ZM18.5408 10.8364C18.2754 10.962 18.1609 11.2779 18.2982 11.5624L18.6412 12.2817C18.768 12.5616 19.0827 12.6714 19.3528 12.5557C19.6386 12.4085 19.7543 12.0972 19.617 11.8212L19.2668 11.1065C19.1256 10.811 18.8156 10.6834 18.5408 10.8364Z" fill="#030303" fill-opacity="0.3"/>
</g>
<defs>
<clipPath id="clip0_4458_10932">
<rect width="23.3333" height="16.683" fill="white" transform="translate(2.83203 5.65967)"/>
</clipPath>
</defs>
</svg>
