<svg width="351" height="134" viewBox="0 0 351 134" fill="none" xmlns="http://www.w3.org/2000/svg">
<g clip-path="url(#clip0_4476_22661)">
<rect width="351" height="134" fill="#E7E7E7"/>
<rect x="231" y="30" width="180" height="180" rx="17" fill="#DCDCDC"/>
<rect x="294" y="39" width="54" height="18" rx="9" fill="#CFCFCF"/>
<path d="M261.487 73.4988C264.787 73.4988 266.437 73.4988 268.233 74.0488C270.177 74.7454 271.717 76.2854 272.413 78.2288C273 80.0254 273 81.7121 273 85.0121V94.9854C273 98.2854 273 99.9354 272.45 101.732C271.753 103.675 270.213 105.215 268.27 105.912C266.437 106.499 264.787 106.499 261.487 106.499H251.513C248.213 106.499 246.563 106.499 244.767 105.949C242.787 105.215 241.283 103.712 240.55 101.732C240 99.9721 240 98.3221 240 94.9854V85.0121C240 81.7121 240 80.0621 240.55 78.2654C241.283 76.3221 242.787 74.7821 244.767 74.0854C246.527 73.4988 248.177 73.4988 251.513 73.4988H261.487Z" fill="#CFCFCF"/>
<g opacity="0.4">
<path d="M256.5 101.046C262.601 101.046 267.547 96.0998 267.547 89.9988C267.547 83.8978 262.601 78.9519 256.5 78.9519C250.399 78.9519 245.453 83.8978 245.453 89.9988C245.453 96.0998 250.399 101.046 256.5 101.046Z" fill="#2E2E30"/>
<path d="M257.247 84.1183C257.275 84.1222 257.303 84.1262 257.331 84.1301C257.387 84.138 257.471 84.1498 257.528 84.1577L257.834 83.3999C257.926 83.1554 257.978 83.1913 257.975 83.4196L257.948 84.2169C258.032 84.2287 258.141 84.2725 258.225 84.2843L258.612 83.5664C258.727 83.3538 258.784 83.3617 258.748 83.6142L258.61 84.3956C258.69 84.4355 258.798 84.4793 258.882 84.4911L259.345 83.8411C259.489 83.6325 259.541 83.6684 259.478 83.9169L259.255 84.6866C259.335 84.7264 259.444 84.7703 259.52 84.8382L260.035 84.2241C260.203 84.0475 260.255 84.0834 260.168 84.2999L259.861 85.0577C259.937 85.1257 260.017 85.1655 260.094 85.2335L260.685 84.6873C260.881 84.5146 260.933 84.5506 260.814 84.7912L260.431 85.4811C260.507 85.549 260.583 85.6169 260.631 85.6809L261.295 85.2307C261.487 85.0861 261.54 85.122 261.396 85.3307L260.897 86.0328C260.973 86.1007 261.021 86.1647 261.093 86.2607L261.802 85.9026C262.018 85.7899 262.07 85.8258 261.898 86.0305L261.359 86.6126C261.407 86.6766 261.479 86.7726 261.523 86.8646L262.28 86.5704C262.52 86.4898 262.54 86.5498 262.348 86.6945L261.733 87.2086C261.777 87.3006 261.821 87.3927 261.865 87.4847L262.638 87.2787C262.874 87.226 262.894 87.2861 262.706 87.4027L262.042 87.8528C262.087 87.9449 262.103 88.033 262.147 88.125L262.936 88.007C263.168 87.9825 263.217 88.0465 262.973 88.1552L262.264 88.5133C262.281 88.6014 262.325 88.6934 262.337 88.8096L263.11 88.8038C263.367 88.8112 263.359 88.8673 263.147 88.9519L262.422 89.222C262.438 89.3101 262.451 89.4262 262.467 89.5143L263.256 89.5966C263.509 89.6321 263.501 89.6882 263.265 89.7408L262.496 89.9188C262.512 90.0069 262.496 90.1191 262.484 90.2033L263.23 90.3938C263.478 90.4574 263.471 90.5135 263.21 90.5341L262.425 90.624C262.413 90.7081 262.398 90.8203 262.386 90.9045C262.386 90.9045 262.386 90.9045 262.382 90.9325L263.12 91.1792C263.364 91.2708 263.356 91.3269 263.1 91.3195L262.327 91.3252C262.311 91.4374 262.271 91.5176 262.255 91.6298L262.949 91.9848C263.162 92.1005 263.154 92.1566 262.901 92.1211L262.144 92.0147C262.104 92.0949 262.088 92.2071 262.049 92.2873L262.702 92.7224C262.911 92.8662 262.875 92.9183 262.655 92.8587L261.909 92.6681C261.869 92.7483 261.825 92.8566 261.786 92.9368L262.372 93.4482C262.548 93.6161 262.54 93.6722 262.296 93.5806L261.59 93.3098C261.522 93.3861 261.478 93.4943 261.411 93.5706L261.933 94.1302C262.109 94.2981 262.069 94.3783 261.829 94.2586L261.123 93.7875C261.055 93.8638 260.987 93.9401 260.919 94.0163L261.377 94.6242C261.521 94.8161 261.486 94.8683 261.277 94.7246L260.651 94.2934C260.583 94.3696 260.515 94.4459 260.423 94.4902L260.817 95.1462C260.93 95.3623 260.894 95.4144 260.689 95.2426L260.103 94.7312C260.007 94.8036 259.943 94.8518 259.851 94.896L260.153 95.5964C260.262 95.8405 260.202 95.8606 260.029 95.6648L259.507 95.1051C259.415 95.1494 259.323 95.1937 259.231 95.2379L259.441 95.9825C259.522 96.2227 259.462 96.2429 259.317 96.0509L258.891 95.419C258.799 95.4632 258.707 95.5075 258.587 95.5479L258.709 96.3087C258.761 96.5449 258.701 96.5651 258.561 96.3451L258.199 95.6649C258.111 95.6811 257.99 95.7215 257.902 95.7377L257.94 96.4867C257.961 96.747 257.877 96.7352 257.792 96.5231L257.51 95.8828C257.422 95.899 257.306 95.9113 257.218 95.9275L257.167 96.6927C257.16 96.9491 257.076 96.9373 257.023 96.7011L256.813 95.9565C256.725 95.9727 256.613 95.9569 256.497 95.9692L256.334 96.7187C256.299 96.9711 256.215 96.9593 256.19 96.727L256.128 95.946C256.016 95.9302 255.932 95.9184 255.816 95.9307L255.569 96.6683C255.477 96.9129 255.421 96.905 255.429 96.6486L255.423 95.8755C255.311 95.8597 255.227 95.8479 255.118 95.8041L254.792 96.5018C254.704 96.7184 254.62 96.7065 254.655 96.4541L254.734 95.6928C254.625 95.649 254.541 95.6372 254.461 95.5973L254.026 96.2512C253.91 96.4638 253.826 96.452 253.89 96.2035L254.052 95.454C253.972 95.4141 253.864 95.3703 253.783 95.3304L253.296 95.9484C253.152 96.1571 253.072 96.1172 253.164 95.8726L253.41 95.135C253.33 95.0951 253.254 95.0272 253.146 94.9834L252.582 95.5334C252.414 95.7101 252.362 95.6741 252.45 95.4576L252.805 94.7638C252.728 94.6959 252.652 94.628 252.572 94.5881L251.96 95.0742C251.768 95.2188 251.716 95.1829 251.86 94.9743L252.295 94.3203C252.219 94.2524 252.142 94.1845 252.098 94.0925L251.45 94.4304C251.23 94.5711 251.182 94.5071 251.35 94.3305L251.837 93.7125C251.761 93.6446 251.716 93.5525 251.668 93.4885L250.964 93.8186C250.748 93.9313 250.7 93.8673 250.867 93.6907L251.431 93.1406C251.387 93.0485 251.339 92.9846 251.294 92.8925L250.546 93.1306C250.306 93.2112 250.285 93.1512 250.477 93.0066L251.117 92.5244C251.073 92.4324 251.029 92.3403 251.012 92.2522L250.248 92.4022C250.011 92.4548 249.991 92.3948 250.211 92.2541L250.895 91.8639C250.851 91.7719 250.835 91.6838 250.819 91.5957L249.982 91.6497C249.721 91.6703 249.701 91.6103 249.945 91.5016L250.674 91.2035C250.657 91.1154 250.645 90.9993 250.629 90.9112L249.832 90.8849C249.575 90.8775 249.583 90.8214 249.823 90.7407L250.572 90.5027C250.556 90.4146 250.571 90.3024 250.555 90.2143L249.774 90.0759C249.521 90.0404 249.533 89.9563 249.765 89.9317L250.558 89.7857C250.57 89.7015 250.558 89.5854 250.57 89.5013L249.8 89.2787C249.551 89.2151 249.563 89.131 249.82 89.1384L250.625 89.1086C250.637 89.0244 250.652 88.9122 250.664 88.8281L249.934 88.5253C249.718 88.4376 249.73 88.3535 249.982 88.389L250.775 88.4433C250.787 88.3591 250.831 88.2508 250.871 88.1706L250.181 87.7876C249.969 87.672 249.976 87.6159 250.229 87.6513L251.01 87.7898C251.05 87.7096 251.094 87.6013 251.134 87.5211L250.484 87.0579C250.275 86.9142 250.311 86.862 250.56 86.9255L251.325 87.1762C251.365 87.096 251.433 87.0197 251.473 86.9395L250.891 86.4C250.714 86.2322 250.75 86.18 250.967 86.2677L251.693 86.5985C251.761 86.5222 251.8 86.442 251.868 86.3658L251.354 85.75C251.181 85.5541 251.245 85.5059 251.454 85.6497L252.14 86.0607C252.208 85.9844 252.272 85.9362 252.34 85.86L251.894 85.168C251.753 84.948 251.813 84.9278 251.994 85.0676L252.64 85.5588C252.708 85.4826 252.8 85.4383 252.867 85.362L252.521 84.5697C252.409 84.3536 252.473 84.3054 252.649 84.4732L253.227 85.0408C253.291 84.9925 253.383 84.9483 253.475 84.904L253.209 84.1515C253.129 83.9113 253.189 83.8912 253.333 84.0831L253.843 84.7269C253.936 84.6826 254.028 84.6384 254.092 84.5901L253.917 83.7934C253.865 83.5572 253.925 83.537 254.07 83.7289L254.488 84.417C254.58 84.3727 254.668 84.3565 254.756 84.3403L254.67 83.5273C254.649 83.267 254.709 83.2468 254.818 83.4909L255.144 84.2232C255.232 84.207 255.32 84.1908 255.408 84.1745L255.435 83.3773C255.442 83.1209 255.498 83.1288 255.579 83.369L255.813 84.1456C255.901 84.1294 256.017 84.1171 256.101 84.1289L256.216 83.3155C256.251 83.063 256.307 83.0709 256.36 83.3071L256.534 84.1039C256.618 84.1157 256.734 84.1034 256.818 84.1153L257.013 83.3417C257.076 83.0932 257.133 83.1011 257.153 83.3614L257.247 84.1183ZM255.825 94.8451C258.49 95.2196 260.953 93.3633 261.328 90.6986C261.702 88.0339 259.846 85.5705 257.181 85.196C254.517 84.8215 252.029 86.6458 251.655 89.3105C251.28 91.9752 253.161 94.4706 255.825 94.8451Z" fill="black"/>
<path d="M257.247 84.1183C257.275 84.1222 257.303 84.1262 257.331 84.1301C257.387 84.138 257.471 84.1498 257.528 84.1577L257.834 83.3999C257.926 83.1554 257.978 83.1913 257.975 83.4196L257.948 84.2169C258.032 84.2287 258.141 84.2725 258.225 84.2843L258.612 83.5664C258.727 83.3538 258.784 83.3617 258.748 83.6142L258.61 84.3956C258.69 84.4355 258.798 84.4793 258.882 84.4911L259.345 83.8411C259.489 83.6325 259.541 83.6684 259.478 83.9169L259.255 84.6866C259.335 84.7264 259.444 84.7703 259.52 84.8382L260.035 84.2241C260.203 84.0475 260.255 84.0834 260.168 84.2999L259.861 85.0577C259.937 85.1257 260.017 85.1655 260.094 85.2335L260.685 84.6873C260.881 84.5146 260.933 84.5506 260.814 84.7912L260.431 85.4811C260.507 85.549 260.583 85.6169 260.631 85.6809L261.295 85.2307C261.487 85.0861 261.54 85.122 261.396 85.3307L260.897 86.0328C260.973 86.1007 261.021 86.1647 261.093 86.2607L261.802 85.9026C262.018 85.7899 262.07 85.8258 261.898 86.0305L261.359 86.6126C261.407 86.6766 261.479 86.7726 261.523 86.8646L262.28 86.5704C262.52 86.4898 262.54 86.5498 262.348 86.6945L261.733 87.2086C261.777 87.3006 261.821 87.3927 261.865 87.4847L262.638 87.2787C262.874 87.226 262.894 87.2861 262.706 87.4027L262.042 87.8528C262.087 87.9449 262.103 88.033 262.147 88.125L262.936 88.007C263.168 87.9825 263.217 88.0465 262.973 88.1552L262.264 88.5133C262.281 88.6014 262.325 88.6934 262.337 88.8096L263.11 88.8038C263.367 88.8112 263.359 88.8673 263.147 88.9519L262.422 89.222C262.438 89.3101 262.451 89.4262 262.467 89.5143L263.256 89.5966C263.509 89.6321 263.501 89.6882 263.265 89.7408L262.496 89.9188C262.512 90.0069 262.496 90.1191 262.484 90.2033L263.23 90.3938C263.478 90.4574 263.471 90.5135 263.21 90.5341L262.425 90.624C262.413 90.7081 262.398 90.8203 262.386 90.9045C262.386 90.9045 262.386 90.9045 262.382 90.9325L263.12 91.1792C263.364 91.2708 263.356 91.3269 263.1 91.3195L262.327 91.3252C262.311 91.4374 262.271 91.5176 262.255 91.6298L262.949 91.9848C263.162 92.1005 263.154 92.1566 262.901 92.1211L262.144 92.0147C262.104 92.0949 262.088 92.2071 262.049 92.2873L262.702 92.7224C262.911 92.8662 262.875 92.9183 262.655 92.8587L261.909 92.6681C261.869 92.7483 261.825 92.8566 261.786 92.9368L262.372 93.4482C262.548 93.6161 262.54 93.6722 262.296 93.5806L261.59 93.3098C261.522 93.3861 261.478 93.4943 261.411 93.5706L261.933 94.1302C262.109 94.2981 262.069 94.3783 261.829 94.2586L261.123 93.7875C261.055 93.8638 260.987 93.9401 260.919 94.0163L261.377 94.6242C261.521 94.8161 261.486 94.8683 261.277 94.7246L260.651 94.2934C260.583 94.3696 260.515 94.4459 260.423 94.4902L260.817 95.1462C260.93 95.3623 260.894 95.4144 260.689 95.2426L260.103 94.7312C260.007 94.8036 259.943 94.8518 259.851 94.896L260.153 95.5964C260.262 95.8405 260.202 95.8606 260.029 95.6648L259.507 95.1051C259.415 95.1494 259.323 95.1937 259.231 95.2379L259.441 95.9825C259.522 96.2227 259.462 96.2429 259.317 96.0509L258.891 95.419C258.799 95.4632 258.707 95.5075 258.587 95.5479L258.709 96.3087C258.761 96.5449 258.701 96.5651 258.561 96.3451L258.199 95.6649C258.111 95.6811 257.99 95.7215 257.902 95.7377L257.94 96.4867C257.961 96.747 257.877 96.7352 257.792 96.5231L257.51 95.8828C257.422 95.899 257.306 95.9113 257.218 95.9275L257.167 96.6927C257.16 96.9491 257.076 96.9373 257.023 96.7011L256.813 95.9565C256.725 95.9727 256.613 95.9569 256.497 95.9692L256.334 96.7187C256.299 96.9711 256.215 96.9593 256.19 96.727L256.128 95.946C256.016 95.9302 255.932 95.9184 255.816 95.9307L255.569 96.6683C255.477 96.9129 255.421 96.905 255.429 96.6486L255.423 95.8755C255.311 95.8597 255.227 95.8479 255.118 95.8041L254.792 96.5018C254.704 96.7184 254.62 96.7065 254.655 96.4541L254.734 95.6928C254.625 95.649 254.541 95.6372 254.461 95.5973L254.026 96.2512C253.91 96.4638 253.826 96.452 253.89 96.2035L254.052 95.454C253.972 95.4141 253.864 95.3703 253.783 95.3304L253.296 95.9484C253.152 96.1571 253.072 96.1172 253.164 95.8726L253.41 95.135C253.33 95.0951 253.254 95.0272 253.146 94.9834L252.582 95.5334C252.414 95.7101 252.362 95.6741 252.45 95.4576L252.805 94.7638C252.728 94.6959 252.652 94.628 252.572 94.5881L251.96 95.0742C251.768 95.2188 251.716 95.1829 251.86 94.9743L252.295 94.3203C252.219 94.2524 252.142 94.1845 252.098 94.0925L251.45 94.4304C251.23 94.5711 251.182 94.5071 251.35 94.3305L251.837 93.7125C251.761 93.6446 251.716 93.5525 251.668 93.4885L250.964 93.8186C250.748 93.9313 250.7 93.8673 250.867 93.6907L251.431 93.1406C251.387 93.0485 251.339 92.9846 251.294 92.8925L250.546 93.1306C250.306 93.2112 250.285 93.1512 250.477 93.0066L251.117 92.5244C251.073 92.4324 251.029 92.3403 251.012 92.2522L250.248 92.4022C250.011 92.4548 249.991 92.3948 250.211 92.2541L250.895 91.8639C250.851 91.7719 250.835 91.6838 250.819 91.5957L249.982 91.6497C249.721 91.6703 249.701 91.6103 249.945 91.5016L250.674 91.2035C250.657 91.1154 250.645 90.9993 250.629 90.9112L249.832 90.8849C249.575 90.8775 249.583 90.8214 249.823 90.7407L250.572 90.5027C250.556 90.4146 250.571 90.3024 250.555 90.2143L249.774 90.0759C249.521 90.0404 249.533 89.9563 249.765 89.9317L250.558 89.7857C250.57 89.7015 250.558 89.5854 250.57 89.5013L249.8 89.2787C249.551 89.2151 249.563 89.131 249.82 89.1384L250.625 89.1086C250.637 89.0244 250.652 88.9122 250.664 88.8281L249.934 88.5253C249.718 88.4376 249.73 88.3535 249.982 88.389L250.775 88.4433C250.787 88.3591 250.831 88.2508 250.871 88.1706L250.181 87.7876C249.969 87.672 249.976 87.6159 250.229 87.6513L251.01 87.7898C251.05 87.7096 251.094 87.6013 251.134 87.5211L250.484 87.0579C250.275 86.9142 250.311 86.862 250.56 86.9255L251.325 87.1762C251.365 87.096 251.433 87.0197 251.473 86.9395L250.891 86.4C250.714 86.2322 250.75 86.18 250.967 86.2677L251.693 86.5985C251.761 86.5222 251.8 86.442 251.868 86.3658L251.354 85.75C251.181 85.5541 251.245 85.5059 251.454 85.6497L252.14 86.0607C252.208 85.9844 252.272 85.9362 252.34 85.86L251.894 85.168C251.753 84.948 251.813 84.9278 251.994 85.0676L252.64 85.5588C252.708 85.4826 252.8 85.4383 252.867 85.362L252.521 84.5697C252.409 84.3536 252.473 84.3054 252.649 84.4732L253.227 85.0408C253.291 84.9925 253.383 84.9483 253.475 84.904L253.209 84.1515C253.129 83.9113 253.189 83.8912 253.333 84.0831L253.843 84.7269C253.936 84.6826 254.028 84.6384 254.092 84.5901L253.917 83.7934C253.865 83.5572 253.925 83.537 254.07 83.7289L254.488 84.417C254.58 84.3727 254.668 84.3565 254.756 84.3403L254.67 83.5273C254.649 83.267 254.709 83.2468 254.818 83.4909L255.144 84.2232C255.232 84.207 255.32 84.1908 255.408 84.1745L255.435 83.3773C255.442 83.1209 255.498 83.1288 255.579 83.369L255.813 84.1456C255.901 84.1294 256.017 84.1171 256.101 84.1289L256.216 83.3155C256.251 83.063 256.307 83.0709 256.36 83.3071L256.534 84.1039C256.618 84.1157 256.734 84.1034 256.818 84.1153L257.013 83.3417C257.076 83.0932 257.133 83.1011 257.153 83.3614L257.247 84.1183ZM255.825 94.8451C258.49 95.2196 260.953 93.3633 261.328 90.6986C261.702 88.0339 259.846 85.5705 257.181 85.196C254.517 84.8215 252.029 86.6458 251.655 89.3105C251.28 91.9752 253.161 94.4706 255.825 94.8451Z" fill="#7F7F7F"/>
<path d="M257.247 84.1183C257.275 84.1222 257.303 84.1262 257.331 84.1301C257.387 84.138 257.471 84.1498 257.528 84.1577L257.834 83.3999C257.926 83.1554 257.978 83.1913 257.975 83.4196L257.948 84.2169C258.032 84.2287 258.141 84.2725 258.225 84.2843L258.612 83.5664C258.727 83.3538 258.784 83.3617 258.748 83.6142L258.61 84.3956C258.69 84.4355 258.798 84.4793 258.882 84.4911L259.345 83.8411C259.489 83.6325 259.541 83.6684 259.478 83.9169L259.255 84.6866C259.335 84.7264 259.444 84.7703 259.52 84.8382L260.035 84.2241C260.203 84.0475 260.255 84.0834 260.168 84.2999L259.861 85.0577C259.937 85.1257 260.017 85.1655 260.094 85.2335L260.685 84.6873C260.881 84.5146 260.933 84.5506 260.814 84.7912L260.431 85.4811C260.507 85.549 260.583 85.6169 260.631 85.6809L261.295 85.2307C261.487 85.0861 261.54 85.122 261.396 85.3307L260.897 86.0328C260.973 86.1007 261.021 86.1647 261.093 86.2607L261.802 85.9026C262.018 85.7899 262.07 85.8258 261.898 86.0305L261.359 86.6126C261.407 86.6766 261.479 86.7726 261.523 86.8646L262.28 86.5704C262.52 86.4898 262.54 86.5498 262.348 86.6945L261.733 87.2086C261.777 87.3006 261.821 87.3927 261.865 87.4847L262.638 87.2787C262.874 87.226 262.894 87.2861 262.706 87.4027L262.042 87.8528C262.087 87.9449 262.103 88.033 262.147 88.125L262.936 88.007C263.168 87.9825 263.217 88.0465 262.973 88.1552L262.264 88.5133C262.281 88.6014 262.325 88.6934 262.337 88.8096L263.11 88.8038C263.367 88.8112 263.359 88.8673 263.147 88.9519L262.422 89.222C262.438 89.3101 262.451 89.4262 262.467 89.5143L263.256 89.5966C263.509 89.6321 263.501 89.6882 263.265 89.7408L262.496 89.9188C262.512 90.0069 262.496 90.1191 262.484 90.2033L263.23 90.3938C263.478 90.4574 263.471 90.5135 263.21 90.5341L262.425 90.624C262.413 90.7081 262.398 90.8203 262.386 90.9045C262.386 90.9045 262.386 90.9045 262.382 90.9325L263.12 91.1792C263.364 91.2708 263.356 91.3269 263.1 91.3195L262.327 91.3252C262.311 91.4374 262.271 91.5176 262.255 91.6298L262.949 91.9848C263.162 92.1005 263.154 92.1566 262.901 92.1211L262.144 92.0147C262.104 92.0949 262.088 92.2071 262.049 92.2873L262.702 92.7224C262.911 92.8662 262.875 92.9183 262.655 92.8587L261.909 92.6681C261.869 92.7483 261.825 92.8566 261.786 92.9368L262.372 93.4482C262.548 93.6161 262.54 93.6722 262.296 93.5806L261.59 93.3098C261.522 93.3861 261.478 93.4943 261.411 93.5706L261.933 94.1302C262.109 94.2981 262.069 94.3783 261.829 94.2586L261.123 93.7875C261.055 93.8638 260.987 93.9401 260.919 94.0163L261.377 94.6242C261.521 94.8161 261.486 94.8683 261.277 94.7246L260.651 94.2934C260.583 94.3696 260.515 94.4459 260.423 94.4902L260.817 95.1462C260.93 95.3623 260.894 95.4144 260.689 95.2426L260.103 94.7312C260.007 94.8036 259.943 94.8518 259.851 94.896L260.153 95.5964C260.262 95.8405 260.202 95.8606 260.029 95.6648L259.507 95.1051C259.415 95.1494 259.323 95.1937 259.231 95.2379L259.441 95.9825C259.522 96.2227 259.462 96.2429 259.317 96.0509L258.891 95.419C258.799 95.4632 258.707 95.5075 258.587 95.5479L258.709 96.3087C258.761 96.5449 258.701 96.5651 258.561 96.3451L258.199 95.6649C258.111 95.6811 257.99 95.7215 257.902 95.7377L257.94 96.4867C257.961 96.747 257.877 96.7352 257.792 96.5231L257.51 95.8828C257.422 95.899 257.306 95.9113 257.218 95.9275L257.167 96.6927C257.16 96.9491 257.076 96.9373 257.023 96.7011L256.813 95.9565C256.725 95.9727 256.613 95.9569 256.497 95.9692L256.334 96.7187C256.299 96.9711 256.215 96.9593 256.19 96.727L256.128 95.946C256.016 95.9302 255.932 95.9184 255.816 95.9307L255.569 96.6683C255.477 96.9129 255.421 96.905 255.429 96.6486L255.423 95.8755C255.311 95.8597 255.227 95.8479 255.118 95.8041L254.792 96.5018C254.704 96.7184 254.62 96.7065 254.655 96.4541L254.734 95.6928C254.625 95.649 254.541 95.6372 254.461 95.5973L254.026 96.2512C253.91 96.4638 253.826 96.452 253.89 96.2035L254.052 95.454C253.972 95.4141 253.864 95.3703 253.783 95.3304L253.296 95.9484C253.152 96.1571 253.072 96.1172 253.164 95.8726L253.41 95.135C253.33 95.0951 253.254 95.0272 253.146 94.9834L252.582 95.5334C252.414 95.7101 252.362 95.6741 252.45 95.4576L252.805 94.7638C252.728 94.6959 252.652 94.628 252.572 94.5881L251.96 95.0742C251.768 95.2188 251.716 95.1829 251.86 94.9743L252.295 94.3203C252.219 94.2524 252.142 94.1845 252.098 94.0925L251.45 94.4304C251.23 94.5711 251.182 94.5071 251.35 94.3305L251.837 93.7125C251.761 93.6446 251.716 93.5525 251.668 93.4885L250.964 93.8186C250.748 93.9313 250.7 93.8673 250.867 93.6907L251.431 93.1406C251.387 93.0485 251.339 92.9846 251.294 92.8925L250.546 93.1306C250.306 93.2112 250.285 93.1512 250.477 93.0066L251.117 92.5244C251.073 92.4324 251.029 92.3403 251.012 92.2522L250.248 92.4022C250.011 92.4548 249.991 92.3948 250.211 92.2541L250.895 91.8639C250.851 91.7719 250.835 91.6838 250.819 91.5957L249.982 91.6497C249.721 91.6703 249.701 91.6103 249.945 91.5016L250.674 91.2035C250.657 91.1154 250.645 90.9993 250.629 90.9112L249.832 90.8849C249.575 90.8775 249.583 90.8214 249.823 90.7407L250.572 90.5027C250.556 90.4146 250.571 90.3024 250.555 90.2143L249.774 90.0759C249.521 90.0404 249.533 89.9563 249.765 89.9317L250.558 89.7857C250.57 89.7015 250.558 89.5854 250.57 89.5013L249.8 89.2787C249.551 89.2151 249.563 89.131 249.82 89.1384L250.625 89.1086C250.637 89.0244 250.652 88.9122 250.664 88.8281L249.934 88.5253C249.718 88.4376 249.73 88.3535 249.982 88.389L250.775 88.4433C250.787 88.3591 250.831 88.2508 250.871 88.1706L250.181 87.7876C249.969 87.672 249.976 87.6159 250.229 87.6513L251.01 87.7898C251.05 87.7096 251.094 87.6013 251.134 87.5211L250.484 87.0579C250.275 86.9142 250.311 86.862 250.56 86.9255L251.325 87.1762C251.365 87.096 251.433 87.0197 251.473 86.9395L250.891 86.4C250.714 86.2322 250.75 86.18 250.967 86.2677L251.693 86.5985C251.761 86.5222 251.8 86.442 251.868 86.3658L251.354 85.75C251.181 85.5541 251.245 85.5059 251.454 85.6497L252.14 86.0607C252.208 85.9844 252.272 85.9362 252.34 85.86L251.894 85.168C251.753 84.948 251.813 84.9278 251.994 85.0676L252.64 85.5588C252.708 85.4826 252.8 85.4383 252.867 85.362L252.521 84.5697C252.409 84.3536 252.473 84.3054 252.649 84.4732L253.227 85.0408C253.291 84.9925 253.383 84.9483 253.475 84.904L253.209 84.1515C253.129 83.9113 253.189 83.8912 253.333 84.0831L253.843 84.7269C253.936 84.6826 254.028 84.6384 254.092 84.5901L253.917 83.7934C253.865 83.5572 253.925 83.537 254.07 83.7289L254.488 84.417C254.58 84.3727 254.668 84.3565 254.756 84.3403L254.67 83.5273C254.649 83.267 254.709 83.2468 254.818 83.4909L255.144 84.2232C255.232 84.207 255.32 84.1908 255.408 84.1745L255.435 83.3773C255.442 83.1209 255.498 83.1288 255.579 83.369L255.813 84.1456C255.901 84.1294 256.017 84.1171 256.101 84.1289L256.216 83.3155C256.251 83.063 256.307 83.0709 256.36 83.3071L256.534 84.1039C256.618 84.1157 256.734 84.1034 256.818 84.1153L257.013 83.3417C257.076 83.0932 257.133 83.1011 257.153 83.3614L257.247 84.1183ZM255.825 94.8451C258.49 95.2196 260.953 93.3633 261.328 90.6986C261.702 88.0339 259.846 85.5705 257.181 85.196C254.517 84.8215 252.029 86.6458 251.655 89.3105C251.28 91.9752 253.161 94.4706 255.825 94.8451Z" fill="#777777"/>
<path d="M266.444 90.5085C266.812 90.4518 266.812 90.3669 266.444 90.2819L265.396 90.0836C265.396 90.0553 265.396 90.027 265.396 89.9986C265.396 89.857 265.396 89.7154 265.396 89.5738L266.415 89.3188C266.784 89.2339 266.755 89.1206 266.387 89.0922L265.339 89.0073C265.311 88.8373 265.311 88.6957 265.282 88.5257L266.274 88.1575C266.614 88.0159 266.614 87.9309 266.245 87.9309L265.197 87.9592C265.169 87.7893 265.112 87.6476 265.084 87.4777L266.019 86.9962C266.359 86.8262 266.302 86.7412 265.962 86.7979L264.914 86.9678C264.858 86.8262 264.801 86.6562 264.744 86.5146L265.622 85.9198C265.934 85.6932 265.877 85.6082 265.537 85.7215L264.518 86.0048C264.433 85.8631 264.376 85.7215 264.291 85.5799L265.084 84.8718C265.367 84.6168 265.311 84.5319 264.971 84.6735L264.008 85.07C263.923 84.9284 263.81 84.7868 263.725 84.6735L264.433 83.8804C264.688 83.5971 264.631 83.5405 264.291 83.7104L263.3 84.2203C263.186 84.107 263.101 83.9653 262.988 83.852L263.611 82.974C263.838 82.6624 263.753 82.6057 263.441 82.804L262.592 83.4272C262.478 83.3139 262.365 83.2006 262.223 83.1156L262.733 82.1808C262.903 81.8409 262.818 81.7843 262.563 82.0392L261.798 82.7474C261.657 82.6624 261.543 82.5491 261.402 82.4641L261.798 81.4727C261.94 81.1328 261.855 81.0762 261.6 81.3594L260.92 82.1525C260.779 82.0675 260.637 82.0109 260.495 81.9259L260.75 80.9062C260.835 80.538 260.75 80.5097 260.552 80.8212L259.986 81.6993C259.844 81.6427 259.674 81.586 259.532 81.5294L259.674 80.4813C259.731 80.1131 259.646 80.0848 259.476 80.4247L258.994 81.3594C258.853 81.3028 258.683 81.2744 258.513 81.2461L258.541 80.1981C258.541 79.8298 258.456 79.8015 258.314 80.1698L257.946 81.1611C257.776 81.1328 257.635 81.1045 257.465 81.1045L257.295 80.0848C257.266 79.7165 257.153 79.7165 257.068 80.0565L256.813 81.0762C256.7 81.0762 256.587 81.0762 256.473 81.0762C256.417 81.0762 256.36 81.0762 256.332 81.0762L256.105 80.0281C256.02 79.6599 255.935 79.6599 255.878 80.0281L255.765 81.0762C255.595 81.0762 255.454 81.1045 255.284 81.1328L254.915 80.1414C254.802 79.8015 254.689 79.8015 254.689 80.1698L254.717 81.2178C254.547 81.2461 254.405 81.2744 254.236 81.3311L253.782 80.368C253.612 80.0281 253.527 80.0565 253.556 80.4247L253.669 81.4727C253.527 81.5294 253.357 81.586 253.216 81.6427L252.649 80.7646C252.451 80.453 252.366 80.4813 252.451 80.8496L252.706 81.8693C252.564 81.9259 252.423 82.0109 252.281 82.0959L251.601 81.2744C251.375 80.9912 251.29 81.0478 251.403 81.3877L251.771 82.3791C251.63 82.4641 251.488 82.5491 251.375 82.6341L250.61 81.8976C250.327 81.6427 250.27 81.6993 250.44 82.0392L250.921 82.974C250.808 83.0873 250.667 83.1722 250.553 83.2855L249.703 82.6624C249.392 82.4358 249.335 82.5208 249.534 82.804L250.128 83.6821C250.015 83.7954 249.902 83.9087 249.788 84.0503L248.882 83.5121C248.57 83.3139 248.486 83.3988 248.74 83.6821L249.42 84.4752C249.335 84.5885 249.222 84.7301 249.137 84.8718L248.174 84.4469C247.834 84.3052 247.777 84.3902 248.061 84.6452L248.854 85.3533C248.769 85.4949 248.684 85.6365 248.627 85.7782L247.607 85.4949C247.239 85.3816 247.211 85.4949 247.522 85.6932L248.372 86.288C248.316 86.4296 248.231 86.5713 248.174 86.7412L247.126 86.5713C246.758 86.5146 246.729 86.5996 247.041 86.7696L247.976 87.2794C247.919 87.421 247.891 87.591 247.834 87.7326L246.786 87.7043C246.418 87.7043 246.389 87.7893 246.729 87.9309L247.721 88.2991C247.692 88.4691 247.664 88.6107 247.636 88.7806L246.588 88.9223C246.219 88.9506 246.219 89.0356 246.559 89.1489L247.579 89.4321C247.579 89.6021 247.551 89.7437 247.551 89.9137L246.503 90.1119C246.135 90.1686 246.135 90.2819 246.503 90.3385L247.551 90.4802C247.551 90.6501 247.579 90.7917 247.579 90.9617L246.559 91.2733C246.191 91.3866 246.219 91.4716 246.588 91.4999L247.636 91.5282C247.664 91.6982 247.692 91.8398 247.721 92.0097L246.758 92.4629C246.418 92.6329 246.446 92.7179 246.814 92.6895L247.862 92.5762C247.919 92.7462 247.947 92.8878 248.004 93.0578L247.098 93.596C246.786 93.7942 246.814 93.8792 247.183 93.7942L248.231 93.5676C248.287 93.7093 248.372 93.8509 248.429 94.0208L247.607 94.6723C247.324 94.8989 247.352 94.9839 247.721 94.8706L248.712 94.5307C248.797 94.6723 248.882 94.8139 248.967 94.9556L248.287 95.6354C248.032 95.8903 248.089 95.9753 248.401 95.8053L249.364 95.3521C249.449 95.4937 249.562 95.607 249.675 95.7204L249.024 96.5418C248.797 96.825 248.854 96.91 249.165 96.7117L250.043 96.1452C250.157 96.2585 250.27 96.3718 250.383 96.4851L249.845 97.3915C249.647 97.7031 249.732 97.7598 250.015 97.5332L250.837 96.8534C250.95 96.9667 251.091 97.0516 251.233 97.1649L250.78 98.128C250.61 98.4679 250.695 98.5246 250.95 98.2413L251.686 97.4765C251.828 97.5615 251.97 97.6465 252.111 97.7315L251.771 98.7228C251.658 99.0627 251.743 99.1194 251.97 98.8361L252.621 97.9864C252.763 98.043 252.904 98.128 253.074 98.1847L252.876 99.2327C252.791 99.6009 252.904 99.6292 253.074 99.3177L253.612 98.4113C253.754 98.4679 253.924 98.5246 254.066 98.5529L253.952 99.6292C253.924 99.9975 254.009 100.026 254.179 99.6859L254.604 98.7228C254.774 98.7512 254.915 98.7795 255.085 98.8078L255.142 99.8559C255.17 100.224 255.255 100.224 255.369 99.8842L255.652 98.8645C255.822 98.8928 255.992 98.8928 256.133 98.8928L256.303 99.9408C256.36 100.309 256.445 100.309 256.53 99.9408L256.728 98.8928C256.898 98.8928 257.04 98.8928 257.21 98.8645L257.493 99.8842C257.606 100.252 257.691 100.224 257.72 99.8559L257.776 98.8078C257.946 98.7795 258.088 98.7512 258.258 98.7228L258.654 99.6859C258.796 100.026 258.881 99.9975 258.881 99.6292L258.768 98.6379C258.938 98.6095 259.079 98.5529 259.221 98.4962L259.759 99.4026C259.957 99.7142 260.042 99.6859 259.957 99.3177L259.759 98.2696C259.901 98.213 260.071 98.1563 260.212 98.0714L260.835 98.9211C261.062 99.2327 261.147 99.176 261.034 98.8078L260.75 97.8447C260.892 97.7598 261.034 97.6748 261.175 97.5898L261.883 98.3546C262.138 98.6379 262.223 98.5812 262.082 98.2413L261.657 97.2782C261.798 97.1933 261.912 97.08 262.053 96.995L262.875 97.6748C263.158 97.9014 263.243 97.8447 263.045 97.5332L262.507 96.6268C262.62 96.5135 262.733 96.4002 262.846 96.2869L263.725 96.8534C264.036 97.0516 264.093 96.995 263.866 96.6834L263.215 95.862C263.328 95.7487 263.413 95.6071 263.526 95.4937L264.489 95.9753C264.829 96.1452 264.886 96.0603 264.631 95.8053L263.866 95.0405C263.951 94.8989 264.036 94.7856 264.121 94.644L265.112 94.9839C265.452 95.0972 265.509 95.0122 265.226 94.7856L264.404 94.1341C264.489 93.9925 264.546 93.8509 264.631 93.6809L265.651 93.9075C266.019 93.9925 266.047 93.9075 265.736 93.7093L264.829 93.1427C264.886 93.0011 264.943 92.8312 264.999 92.6895L266.047 92.8028C266.415 92.8312 266.444 92.7462 266.104 92.5762L265.141 92.123C265.169 91.9531 265.226 91.8115 265.254 91.6415L266.302 91.6132C266.67 91.6132 266.699 91.4999 266.33 91.3866L265.339 91.1316C265.367 90.9617 265.367 90.8201 265.396 90.6501L266.444 90.5085ZM252.791 95.4937C252.508 96.0036 251.771 96.0603 251.318 95.8053C251.006 95.6354 250.27 94.9272 249.59 93.8226C248.967 92.6895 248.627 91.4149 248.627 90.027C248.627 87.7043 249.619 85.6365 251.233 84.1919C251.743 83.9087 252.451 83.9653 252.734 84.4469L255.539 89.2622C255.765 89.6587 255.765 90.4235 255.51 90.8201L252.791 95.4937ZM262.563 94.9839C261.657 96.0603 260.495 96.91 259.136 97.3915C257.38 97.9014 255.085 97.9297 254.207 97.4482C253.612 97.1649 253.386 96.5418 253.669 96.0319L256.445 91.2166C256.672 90.8201 257.266 90.4802 257.72 90.4802H263.13C263.725 90.4802 264.121 90.99 264.121 91.4999C264.121 91.9531 263.753 93.511 262.563 94.9839ZM256.077 89.9986C256.077 89.772 256.275 89.5738 256.502 89.5738C256.728 89.5738 256.926 89.772 256.926 89.9986C256.926 90.2252 256.728 90.4235 256.502 90.4235C256.275 90.4235 256.077 90.2252 256.077 89.9986ZM263.243 89.4888H257.578C257.096 89.4605 256.53 89.0639 256.303 88.639L253.612 83.9653C253.329 83.4555 253.641 82.889 254.094 82.6341C254.405 82.4641 255.397 82.1525 256.7 82.1525C260.41 82.2375 263.47 84.9284 264.178 88.4407C264.263 89.0356 263.753 89.4888 263.243 89.4888Z" fill="url(#paint0_linear_4476_22661)"/>
</g>
<rect x="282.75" y="73.4988" width="33" height="33" rx="7.35" fill="#CFCFCF"/>
<rect x="325.5" y="73.4988" width="33" height="33" rx="7.35" fill="#CFCFCF"/>
<rect x="240" y="115.499" width="33" height="33" rx="7.35" fill="#CFCFCF"/>
<rect x="282.75" y="115.499" width="33" height="33" rx="7.35" fill="#CFCFCF"/>
<rect x="325.5" y="115.499" width="33" height="33" rx="7.35" fill="#CFCFCF"/>
</g>
<defs>
<linearGradient id="paint0_linear_4476_22661" x1="256.496" y1="79.7863" x2="256.496" y2="100.239" gradientUnits="userSpaceOnUse">
<stop stop-color="#D9DADB"/>
<stop offset="1" stop-color="#7D8082"/>
</linearGradient>
<clipPath id="clip0_4476_22661">
<rect width="351" height="134" fill="white"/>
</clipPath>
</defs>
</svg>
