<svg width="351" height="134" viewBox="0 0 351 134" fill="none" xmlns="http://www.w3.org/2000/svg">
<g clip-path="url(#clip0_4476_22721)">
<rect width="351" height="134" fill="#E7E7E7"/>
<rect x="231" y="30" width="180" height="180" rx="17" fill="#DCDCDC"/>
<rect x="240" y="45" width="146" height="29" rx="8" fill="#CFCFCF"/>
<path opacity="0.5" d="M249.84 63.418V62.124C249.84 61.7725 250.006 61.5771 250.304 61.5527H250.367C250.851 61.2891 251.026 60.7178 251.085 59.7266L251.3 56.1816C251.329 55.7178 251.637 55.4541 252.13 55.4541H255.387C255.729 55.4541 255.934 55.6689 255.934 56.0205V61.5527H256.295C256.612 61.5527 256.812 61.7676 256.812 62.1045V63.418C256.812 63.7354 256.622 63.9502 256.314 63.9502C256.007 63.9502 255.812 63.7354 255.812 63.418V62.5H250.846V63.418C250.846 63.7354 250.65 63.9502 250.343 63.9502C250.04 63.9502 249.84 63.7354 249.84 63.418ZM251.617 61.5527H254.84V56.3965H252.315L252.101 59.7754C252.047 60.6787 251.92 61.1523 251.617 61.5137V61.5527ZM259.964 62.5977C258.495 62.5977 257.528 61.5869 257.528 59.9316C257.528 58.2812 258.499 57.2705 259.964 57.2705C261.429 57.2705 262.401 58.2812 262.401 59.9316C262.401 61.5869 261.434 62.5977 259.964 62.5977ZM259.964 61.7285C260.794 61.7285 261.327 61.0742 261.327 59.9316C261.327 58.7939 260.789 58.1396 259.964 58.1396C259.139 58.1396 258.602 58.7939 258.602 59.9316C258.602 61.0742 259.139 61.7285 259.964 61.7285ZM265.699 62.5977C264.088 62.5977 263.219 61.5381 263.219 59.5166C263.219 56.6406 264.073 55.5078 266.007 55.4395C266.632 55.4199 266.934 55.3662 267.125 55.332C267.252 55.3076 267.325 55.293 267.418 55.293C267.667 55.293 267.867 55.415 267.867 55.6934C267.867 55.9424 267.711 56.1084 267.374 56.2061C267.169 56.2744 266.871 56.3086 266.075 56.333C264.771 56.3721 264.283 56.9141 264.078 58.4473H264.117C264.434 57.8516 265.05 57.5098 265.87 57.5098C267.257 57.5098 268.145 58.4766 268.145 59.9902C268.145 61.6064 267.213 62.5977 265.699 62.5977ZM265.689 61.7139C266.563 61.7139 267.066 61.0938 267.066 60.0049C267.066 58.9648 266.558 58.3691 265.689 58.3691C264.81 58.3691 264.303 58.9648 264.303 60.0049C264.303 61.0938 264.805 61.7139 265.689 61.7139ZM270.662 62.5879C269.656 62.5879 268.948 61.9629 268.948 61.04C268.948 60.1416 269.642 59.5898 270.858 59.5215L272.269 59.4385V59.043C272.269 58.4717 271.883 58.1299 271.238 58.1299C270.731 58.1299 270.394 58.3105 270.101 58.7793C269.993 58.9355 269.857 59.0039 269.671 59.0039C269.407 59.0039 269.217 58.8281 269.217 58.5645C269.217 58.457 269.246 58.3398 269.31 58.2227C269.578 57.6416 270.355 57.2705 271.278 57.2705C272.523 57.2705 273.319 57.9297 273.319 58.96V62.0605C273.319 62.3926 273.109 62.5928 272.811 62.5928C272.518 62.5928 272.318 62.4023 272.308 62.0898V61.6553H272.283C271.986 62.2266 271.331 62.5879 270.662 62.5879ZM270.95 61.7529C271.688 61.7529 272.269 61.2451 272.269 60.5762V60.1709L270.999 60.249C270.369 60.293 270.013 60.5713 270.013 61.0107C270.013 61.46 270.389 61.7529 270.95 61.7529ZM275.074 62.5C274.732 62.5 274.527 62.2852 274.527 61.9336V57.9346C274.527 57.5781 274.732 57.3633 275.074 57.3633H276.861C277.862 57.3633 278.467 57.8613 278.467 58.6719C278.467 59.2041 278.087 59.6875 277.593 59.7803V59.8193C278.257 59.9072 278.697 60.376 278.697 61.0205C278.697 61.9238 278.004 62.5 276.89 62.5H275.074ZM275.567 59.4775H276.544C277.139 59.4775 277.437 59.248 277.437 58.7939C277.437 58.3691 277.159 58.1299 276.646 58.1299H275.567V59.4775ZM275.567 61.7334H276.729C277.325 61.7334 277.647 61.4697 277.647 60.9766C277.647 60.4688 277.305 60.2148 276.612 60.2148H275.567V61.7334ZM280.311 62.5928C279.935 62.5928 279.734 62.3682 279.734 62.0068V57.8125C279.734 57.4756 279.949 57.2705 280.252 57.2705C280.555 57.2705 280.774 57.4756 280.774 57.8125V60.9619H280.813L282.986 57.6709C283.177 57.3779 283.357 57.2705 283.646 57.2705C283.997 57.2705 284.227 57.4951 284.227 57.8564V62.0508C284.227 62.3926 284.007 62.5928 283.704 62.5928C283.401 62.5928 283.187 62.3926 283.187 62.0508V58.8916H283.147L280.97 62.1973C280.779 62.4902 280.599 62.5928 280.311 62.5928ZM287.222 62.5928C286.91 62.5928 286.704 62.3926 286.704 62.085V58.1982H285.415C285.186 58.1982 285.015 58.042 285.015 57.7881C285.015 57.5391 285.186 57.3633 285.415 57.3633H289.043C289.268 57.3633 289.444 57.5391 289.444 57.7881C289.444 58.042 289.268 58.1982 289.043 58.1982H287.754V62.085C287.754 62.3926 287.539 62.5928 287.222 62.5928ZM290.784 62.5C290.442 62.5 290.237 62.2852 290.237 61.9336V57.7832C290.237 57.4707 290.442 57.2705 290.755 57.2705C291.072 57.2705 291.287 57.4707 291.287 57.7832V58.9502H292.268C293.455 58.9502 294.221 59.6387 294.221 60.7227C294.221 61.8115 293.455 62.5 292.268 62.5H290.784ZM291.287 61.6699H292.176C292.781 61.6699 293.172 61.2891 293.172 60.7227C293.172 60.1514 292.776 59.7754 292.176 59.7754H291.287V61.6699ZM299.177 62.5977C298.245 62.5977 297.507 62.251 297.229 61.6797C297.175 61.5771 297.151 61.4697 297.151 61.3672C297.151 61.0986 297.337 60.9277 297.61 60.9277C297.8 60.9277 297.893 60.9912 298.03 61.167C298.328 61.5771 298.63 61.748 299.177 61.748C299.827 61.748 300.227 61.4551 300.227 60.9814C300.227 60.4736 299.89 60.2344 299.182 60.2344H298.748C298.518 60.2344 298.367 60.083 298.367 59.8486C298.367 59.6094 298.518 59.458 298.748 59.458H299.168C299.763 59.458 300.061 59.2334 300.061 58.7842C300.061 58.3545 299.739 58.1104 299.182 58.1104C298.65 58.1104 298.342 58.291 298.118 58.6719C297.986 58.877 297.879 58.9453 297.683 58.9453C297.415 58.9453 297.244 58.7793 297.244 58.5205C297.244 58.3936 297.263 58.2959 297.312 58.1836C297.566 57.6074 298.264 57.2705 299.177 57.2705C300.383 57.2705 301.091 57.793 301.091 58.6816C301.091 59.2041 300.774 59.6484 300.276 59.7754V59.8145C300.916 59.9609 301.272 60.376 301.272 60.9766C301.272 61.958 300.447 62.5977 299.177 62.5977ZM303.813 62.5879C302.808 62.5879 302.1 61.9629 302.1 61.04C302.1 60.1416 302.793 59.5898 304.009 59.5215L305.42 59.4385V59.043C305.42 58.4717 305.034 58.1299 304.39 58.1299C303.882 58.1299 303.545 58.3105 303.252 58.7793C303.145 58.9355 303.008 59.0039 302.822 59.0039C302.559 59.0039 302.368 58.8281 302.368 58.5645C302.368 58.457 302.397 58.3398 302.461 58.2227C302.729 57.6416 303.506 57.2705 304.429 57.2705C305.674 57.2705 306.47 57.9297 306.47 58.96V62.0605C306.47 62.3926 306.26 62.5928 305.962 62.5928C305.669 62.5928 305.469 62.4023 305.459 62.0898V61.6553H305.435C305.137 62.2266 304.482 62.5879 303.813 62.5879ZM304.102 61.7529C304.839 61.7529 305.42 61.2451 305.42 60.5762V60.1709L304.15 60.249C303.521 60.293 303.164 60.5713 303.164 61.0107C303.164 61.46 303.54 61.7529 304.102 61.7529ZM309.363 62.5928C309.05 62.5928 308.845 62.3926 308.845 62.085V58.1982H307.556C307.327 58.1982 307.156 58.042 307.156 57.7881C307.156 57.5391 307.327 57.3633 307.556 57.3633H311.184C311.409 57.3633 311.584 57.5391 311.584 57.7881C311.584 58.042 311.409 58.1982 311.184 58.1982H309.895V62.085C309.895 62.3926 309.68 62.5928 309.363 62.5928ZM315.635 62.5928C315.322 62.5928 315.112 62.3975 315.112 62.0898V60.7373H314.306L313.179 62.2803C312.998 62.5293 312.89 62.5928 312.671 62.5928C312.388 62.5928 312.192 62.4023 312.192 62.168C312.192 62.0361 312.231 61.9238 312.334 61.8018L313.291 60.5322C312.573 60.332 312.143 59.7998 312.143 59.0967C312.143 58.0273 312.92 57.3633 314.126 57.3633H315.605C315.942 57.3633 316.147 57.5781 316.147 57.9346V62.0898C316.147 62.3975 315.947 62.5928 315.635 62.5928ZM315.107 59.9268V58.1934H314.179C313.579 58.1934 313.193 58.5352 313.193 59.0918C313.193 59.5801 313.584 59.9268 314.179 59.9268H315.107ZM320.642 62.5928C320.324 62.5928 320.119 62.373 320.119 62.0312V60.1318H320.085L318.249 62.2852C318.059 62.5244 317.932 62.5928 317.697 62.5928C317.434 62.5928 317.219 62.4072 317.219 62.1143C317.219 61.9727 317.282 61.8555 317.385 61.7285L319.079 59.7803L317.453 58.0859C317.331 57.9541 317.287 57.8613 317.287 57.71C317.287 57.4561 317.502 57.2705 317.771 57.2705C317.932 57.2705 318.064 57.3389 318.186 57.4854L320.085 59.5605H320.119V57.8369C320.119 57.4902 320.324 57.2705 320.642 57.2705C320.954 57.2705 321.159 57.4902 321.159 57.8369V59.5605H321.198L323.098 57.4854C323.22 57.3389 323.352 57.2705 323.513 57.2705C323.786 57.2705 323.996 57.4561 323.996 57.71C323.996 57.8613 323.952 57.9541 323.83 58.0859L322.204 59.7803L323.899 61.7285C324.001 61.8555 324.065 61.9727 324.065 62.1143C324.065 62.4072 323.85 62.5928 323.586 62.5928C323.352 62.5928 323.225 62.5244 323.034 62.2852L321.198 60.1318H321.159V62.0312C321.159 62.373 320.954 62.5928 320.642 62.5928ZM325.673 62.5928C325.361 62.5928 325.156 62.3926 325.156 62.085V57.7832C325.156 57.4707 325.361 57.2705 325.673 57.2705C325.991 57.2705 326.206 57.4707 326.206 57.7832V59.5605H326.245L328.32 57.4609C328.452 57.3193 328.554 57.2705 328.711 57.2705C328.974 57.2705 329.179 57.4561 329.179 57.71C329.179 57.8467 329.145 57.9346 329.013 58.0615L327.241 59.7754L329.096 61.7432C329.209 61.8701 329.253 61.9775 329.253 62.1094C329.253 62.3828 329.047 62.5928 328.769 62.5928C328.564 62.5928 328.427 62.5098 328.3 62.3584L326.245 60.1318H326.206V62.085C326.206 62.3926 325.991 62.5928 325.673 62.5928ZM330.905 64.4141C330.417 64.4141 330.148 64.2334 330.148 63.9062C330.148 63.6816 330.305 63.5352 330.559 63.5352C330.671 63.5352 330.71 63.54 330.832 63.54C331.125 63.54 331.423 63.3789 331.613 62.8516L331.711 62.5537L329.992 58.0566C329.953 57.9492 329.934 57.8418 329.934 57.7588C329.934 57.4707 330.163 57.2705 330.471 57.2705C330.734 57.2705 330.886 57.3828 330.979 57.6758L332.287 61.543H332.302L333.615 57.6758C333.703 57.3877 333.85 57.2705 334.118 57.2705C334.421 57.2705 334.631 57.4707 334.631 57.7539C334.631 57.8369 334.611 57.9443 334.577 58.0469L332.795 62.7588C332.341 63.9941 331.857 64.4141 330.905 64.4141Z" fill="#030303"/>
</g>
<defs>
<clipPath id="clip0_4476_22721">
<rect width="351" height="134" fill="white"/>
</clipPath>
</defs>
</svg>
