<svg width="28" height="28" viewBox="0 0 28 28" fill="none" xmlns="http://www.w3.org/2000/svg">
<path d="M13.9968 23.4681C12.4818 23.4681 11.3701 22.3564 11.2536 21.1012H16.749C16.6325 22.3564 15.5208 23.4681 13.9968 23.4681ZM15.1188 4.84671C14.4748 5.6008 14.0865 6.57855 14.0865 7.64399C14.0865 10.0199 16.0319 11.9743 18.4165 11.9743C18.9145 11.9743 19.3947 11.8878 19.8404 11.7246C19.9044 12.2374 19.939 12.7855 19.9495 13.364C20.0212 14.395 20.1826 15.6681 20.7743 16.2868C21.5452 17.0847 22.4596 17.8916 22.4596 18.7882C22.4596 19.4427 21.9487 19.873 21.106 19.873H6.89666C6.045 19.873 5.54297 19.4427 5.54297 18.7882C5.54297 17.8916 6.44842 17.0847 7.22837 16.2868C7.82005 15.6681 7.98141 14.395 8.05314 13.364C8.11588 9.92123 9.0303 7.55433 11.415 6.69364C11.7467 5.51915 12.679 4.5957 13.9968 4.5957C14.4122 4.5957 14.7881 4.68622 15.1188 4.84671Z" fill="#030303" fill-opacity="0.3"/>
<path d="M18.4154 10.7473C20.1098 10.7473 21.5263 9.34868 21.5263 7.64522C21.5263 5.9328 20.1098 4.53418 18.4154 4.53418C16.7032 4.53418 15.3047 5.9328 15.3047 7.64522C15.3047 9.34868 16.7032 10.7473 18.4154 10.7473Z" fill="#030303" fill-opacity="0.3"/>
</svg>
