<svg width="72" height="72" viewBox="0 0 72 72" fill="none" xmlns="http://www.w3.org/2000/svg">
<path d="M34.6035 7.82738C26.1114 8.3239 18.4799 12.3709 13.4398 19.0323C13.1639 19.4073 13.043 19.6832 13.043 19.9476C13.043 20.6094 13.6823 21.0397 14.3113 20.8075C14.4104 20.7632 14.8516 20.2782 15.2929 19.727C19.4505 14.5107 25.1967 11.125 31.7914 10.0219C36.8868 9.1614 42.4118 9.94476 47.2313 12.2056C47.9922 12.5586 48.1247 12.5586 48.544 12.2056C48.908 11.9078 48.9962 11.4666 48.7755 11.0478C48.5331 10.6066 45.7538 9.43788 43.4377 8.79794C40.6032 8.0261 37.328 7.66207 34.6035 7.82738Z" fill="white"/>
<path d="M51.183 12.886C50.7417 13.1175 50.5983 13.8565 50.907 14.2315C50.9623 14.3087 51.5245 14.7609 52.1311 15.2349C53.6972 16.4589 54.7225 17.4295 55.9137 18.8194C59.906 23.4844 62.0459 29.0094 62.3103 35.263L62.3765 36.9835L62.6962 37.2479C63.1259 37.6119 63.5009 37.601 63.8983 37.2041C64.207 36.8954 64.218 36.8401 64.218 35.9029C64.218 32.1641 63.2693 27.9075 61.6375 24.2787C59.6969 19.9886 56.0681 15.5771 52.4513 13.1175C51.7895 12.6654 51.6242 12.6435 51.183 12.886Z" fill="white"/>
<path d="M33.9423 14.7069C26.6967 15.3906 20.2339 19.7688 16.9363 26.2315C15.9548 28.1501 14.918 31.3487 14.918 32.4736C14.918 33.3117 15.7895 33.742 16.396 33.1907C16.6166 33.0035 16.7266 32.7167 16.9144 31.8561C18.1384 26.099 21.9326 21.2024 27.2261 18.5667C30.3584 17.0115 34.152 16.2615 37.4496 16.5593C42.1475 16.9786 46.1842 18.7982 49.4709 21.9633C52.7685 25.1394 54.5109 28.6023 55.3934 33.7195C55.5921 34.8335 55.6693 35.0869 55.9009 35.2856C56.2539 35.6053 56.7389 35.6053 57.1139 35.2856C57.478 34.966 57.4889 34.6238 57.1692 32.8814C56.4636 28.9882 55.1071 25.8012 52.9782 23.022C52.2726 22.0849 50.4196 20.1985 49.4381 19.4047C45.0702 15.8762 39.4898 14.1891 33.9423 14.7069Z" fill="white"/>
<path d="M33.7743 21.5882C27.8634 22.5253 23.2202 26.8488 21.7421 32.7822C21.389 34.2049 21.3562 37.5244 21.6868 38.9027C21.8522 39.5865 21.9075 40.3036 21.9403 42.035C21.9731 44.1743 21.9846 44.3068 22.2162 44.5493C22.5359 44.8914 23.0762 44.8799 23.4846 44.5383L23.7933 44.2734L23.8261 42.4313C23.8595 40.8323 23.8261 40.3358 23.5727 38.7478C23.0433 35.5383 23.3083 33.1341 24.4551 30.708C26.0103 27.4323 28.6237 25.0833 31.9876 23.9584C37.8438 21.9954 44.3613 24.6312 47.2074 30.1124C48.0455 31.7223 48.4533 33.2113 48.8726 36.2111C49.391 39.9056 49.4129 44.0746 48.9279 47.6147C48.663 49.5006 48.6739 49.633 49.0385 49.9418C49.5788 50.4158 50.3069 50.2062 50.5275 49.5115C50.7038 48.9269 50.9797 46.5451 51.1121 44.3171C51.3656 40.1481 50.7591 34.2153 49.7885 31.3473C48.0351 26.1749 43.5129 22.4032 38.076 21.587C36.7961 21.3895 35.0318 21.3895 33.7743 21.5882Z" fill="white"/>
<path d="M11.1819 22.8247C11.0384 22.9238 10.6969 23.4756 10.4209 24.0597C7.80703 29.6515 7.10085 35.9379 8.41356 41.9376C8.58982 42.7428 8.70042 43.0406 8.92103 43.2278C9.25165 43.5256 9.69288 43.5475 10.046 43.305C10.4653 43.0072 10.5091 42.7203 10.2775 41.706C9.8363 39.7424 9.69288 38.3088 9.69288 35.927C9.69288 31.9457 10.3547 28.8249 11.9981 25.1523C12.759 23.4652 12.7808 23.1231 12.1524 22.8034C11.755 22.5932 11.5015 22.5932 11.1819 22.8247Z" fill="white"/>
<path d="M34.1611 28.4576C31.4919 29.1414 29.4851 31.0053 28.5808 33.652C28.4592 33.9826 28.3711 34.4129 28.3711 34.6226C28.3711 35.4169 29.3636 35.8466 29.8929 35.2844C30.0254 35.141 30.2126 34.755 30.3122 34.4238C31.0622 31.8762 33.3559 30.1338 35.9807 30.1338C38.6056 30.1338 40.9989 31.9643 41.6492 34.4791C41.9579 35.6369 42.2776 38.0855 42.4101 40.3244C42.5426 42.398 42.5645 42.519 42.807 42.7177C43.0938 42.9492 43.6675 42.9821 43.9319 42.7839C44.3403 42.4642 44.395 42.1774 44.3178 40.5122C44.2297 38.6263 43.8991 35.9572 43.5898 34.5126C42.9613 31.6452 41.0755 29.5278 38.2963 28.5901C37.2825 28.2486 35.2423 28.1823 34.1611 28.4576Z" fill="white"/>
<path d="M35.3329 35.361C35.0351 35.6807 35.0132 36.0009 35.2557 37.3568C36.6675 45.5182 34.3514 54.2192 28.9917 60.8144C28.1864 61.7959 28.043 62.0384 28.043 62.3806C28.043 63.0309 28.6604 63.4612 29.2779 63.2296C29.6529 63.0862 31.1528 61.2113 32.3768 59.3589C33.4355 57.749 34.9574 54.7711 35.5864 53.0615C37.4831 47.9109 38.0016 42.3197 37.0863 36.8609C36.8991 35.7803 36.8328 35.5597 36.5898 35.3391C36.2038 35.0085 35.6526 35.0194 35.3329 35.361Z" fill="white"/>
<path d="M14.8994 36.2143L14.5578 36.545L14.635 37.5593C14.6794 38.1105 14.8113 39.1254 14.9328 39.8201C15.5612 43.548 14.7122 46.4481 12.2861 48.8305C11.7348 49.3598 11.6133 49.5476 11.6133 49.8339C11.6133 50.3413 11.7124 50.5285 12.0764 50.7163C12.6167 50.9922 12.9479 50.8263 13.896 49.8448C16.6309 46.9775 17.5686 43.5365 16.7524 39.2908C16.6643 38.8386 16.5646 38.0224 16.5209 37.4712C16.4437 36.5997 16.3993 36.4563 16.124 36.1809C15.7156 35.7731 15.3297 35.7841 14.8994 36.2143Z" fill="white"/>
<path d="M28.9126 38.2846C28.5929 38.6043 28.5929 38.6267 28.6701 39.4205C28.8244 40.9094 28.7582 44.317 28.5485 45.6188C27.7767 50.3829 25.6368 54.6182 22.262 58.1249C21.3905 59.0292 21.2695 59.1945 21.2695 59.5476C21.2695 60.0441 21.7108 60.4629 22.2292 60.4629C22.527 60.4629 22.7366 60.2976 23.63 59.3933C27.1811 55.776 29.4644 51.2872 30.3797 46.1263C30.5784 44.9794 30.6222 44.3176 30.6222 42.2665C30.6331 39.3329 30.5559 38.5939 30.1919 38.2299C29.8169 37.8543 29.3204 37.8768 28.9126 38.2846Z" fill="white"/>
<path d="M56.3315 38.2322L56.0666 38.4966V41.6836C56.0775 46.6574 55.725 49.5472 54.5004 54.6972C54.3351 55.3809 54.4785 55.844 54.9082 56.0427C55.7244 56.4067 56.1438 55.9655 56.5297 54.3441C57.6546 49.569 58.184 44.3084 57.9524 40.0731C57.8643 38.5288 57.8534 38.4851 57.5665 38.2311C57.1587 37.8906 56.6737 37.8906 56.3315 38.2322Z" fill="white"/>
<path d="M42.8792 45.4542C42.4161 45.6529 42.2945 45.9392 42.052 47.5606C41.324 52.4572 39.4162 57.5306 36.7251 61.7319C35.8317 63.1328 35.7436 63.5187 36.2511 63.9484C36.6704 64.3124 37.1445 64.2905 37.5085 63.8931C38.3909 62.9335 40.6518 58.754 41.6442 56.2173C42.7473 53.4381 43.5963 50.2511 43.9713 47.4829C44.17 46.0826 44.1147 45.7848 43.6072 45.5198C43.2432 45.3332 43.1879 45.3332 42.8792 45.4542Z" fill="white"/>
<path d="M21.3 47.4469C21.201 47.5022 20.7707 48.2631 20.3404 49.123C19.4033 51.0088 18.4765 52.2881 16.9328 53.788C15.8959 54.803 15.7969 54.9349 15.7969 55.3098C15.7969 56.0379 16.4697 56.4457 17.1205 56.1041C17.6827 55.8173 19.6463 53.7662 20.4291 52.6522C21.6312 50.9536 22.7452 48.7815 22.7452 48.1525C22.7452 47.5569 21.8628 47.1157 21.3 47.4469Z" fill="white"/>
<path d="M48.31 52.7333C48.0122 52.8768 47.9131 53.0202 47.7478 53.5714C46.9206 56.3178 46.0054 58.7658 45.1448 60.5744C44.737 61.4344 44.726 61.6775 45.0676 62.0743C45.3545 62.4274 45.9719 62.4937 46.2916 62.2287C46.8872 61.7322 49.1262 56.0638 49.5674 53.9464C49.6889 53.3508 49.678 53.2736 49.4793 52.9977C49.1809 52.6009 48.7621 52.5018 48.31 52.7333Z" fill="white"/>
</svg>
