<svg width="28" height="28" viewBox="0 0 28 28" fill="none" xmlns="http://www.w3.org/2000/svg">
<path d="M10.1696 11.0008C9.80718 11.0008 9.54273 10.7168 9.54273 10.3642C9.54273 10.0214 9.80718 9.75691 10.1696 9.75691H17.8389C18.1915 9.75691 18.4559 10.0214 18.4559 10.3642C18.4559 10.7168 18.1915 11.0008 17.8389 11.0008H10.1696ZM10.1696 14.527C9.80718 14.527 9.54273 14.2429 9.54273 13.8903C9.54273 13.5475 9.80718 13.283 10.1696 13.283H17.8389C18.1915 13.283 18.4559 13.5475 18.4559 13.8903C18.4559 14.2429 18.1915 14.527 17.8389 14.527H10.1696ZM10.1696 18.0531C9.80718 18.0531 9.54273 17.7788 9.54273 17.436C9.54273 17.0834 9.80718 16.8092 10.1696 16.8092H13.7937C14.1659 16.8092 14.4205 17.0834 14.4205 17.436C14.4205 17.7788 14.1659 18.0531 13.7937 18.0531H10.1696ZM5.76172 19.4668C5.76172 21.5139 6.77058 22.5325 8.7981 22.5325H19.2001C21.2277 22.5325 22.2366 21.5139 22.2366 19.4668L22.2368 8.54236C22.2368 6.50505 21.2279 5.4668 19.2003 5.4668H8.79832C6.7708 5.4668 5.76194 6.50505 5.76194 8.54236L5.76172 19.4668Z" fill="#030303" fill-opacity="0.3"/>
</svg>
