<svg width="73" height="72" viewBox="0 0 73 72" fill="none" xmlns="http://www.w3.org/2000/svg">
<rect x="0.6875" width="72" height="72" rx="16.0312" fill="#4AA1FD"/>
<path d="M14.5623 39.3357C14.2327 39.3357 14.0308 39.1338 14.0308 38.7836V33.8727C14.0308 33.5266 14.2327 33.3206 14.5623 33.3206H16.3421C17.5245 33.3206 18.3443 34.124 18.3443 35.3105C18.3443 36.4971 17.4998 37.3004 16.2968 37.3004H15.0938V38.7836C15.0938 39.1338 14.896 39.3357 14.5623 39.3357ZM15.0938 36.4435H16.0578C16.82 36.4435 17.2649 36.0315 17.2649 35.3105C17.2649 34.5978 16.8241 34.1899 16.0619 34.1899H15.0938V36.4435ZM19.6482 39.348C19.3474 39.348 19.1332 39.1544 19.1332 38.8083V33.778C19.1332 33.4319 19.3474 33.2383 19.6482 33.2383C19.9489 33.2383 20.1591 33.4319 20.1591 33.778V38.8083C20.1591 39.1544 19.9489 39.348 19.6482 39.348ZM22.3981 39.3357C21.5535 39.3357 20.9397 38.8042 20.9397 38.0173C20.9397 37.2428 21.5371 36.7772 22.6 36.7113L23.7577 36.6454V36.3323C23.7577 35.875 23.4487 35.6113 22.9419 35.6113C22.5423 35.6113 22.2828 35.7473 22.0273 36.1222C21.9202 36.2622 21.7843 36.3282 21.6112 36.3282C21.3599 36.3282 21.1786 36.1634 21.1786 35.9162C21.1786 35.8214 21.2034 35.7308 21.2487 35.636C21.4711 35.1293 22.1468 34.8079 22.9831 34.8079C24.0667 34.8079 24.7712 35.3806 24.7712 36.2581V38.833C24.7712 39.1626 24.5611 39.348 24.2727 39.348C23.9925 39.348 23.7989 39.1791 23.7824 38.8742V38.5694H23.7618C23.5105 39.0432 22.9625 39.3357 22.3981 39.3357ZM22.7112 38.5611C23.288 38.5611 23.7577 38.1739 23.7577 37.6465V37.3128L22.7442 37.3746C22.2498 37.4076 21.9655 37.63 21.9655 37.9761C21.9655 38.3345 22.2663 38.5611 22.7112 38.5611ZM27.6035 39.3521C26.3263 39.3521 25.5024 38.487 25.5024 37.0862C25.5024 35.6937 26.3222 34.8079 27.5953 34.8079C28.4522 34.8079 29.1814 35.2487 29.3915 35.8626C29.4245 35.9491 29.4451 36.0356 29.4451 36.1098C29.4451 36.3652 29.2514 36.5218 29.0043 36.5218C28.7983 36.5218 28.6747 36.4353 28.5552 36.2293C28.3368 35.8297 28.0484 35.6401 27.6241 35.6401C26.9649 35.6401 26.5447 36.1881 26.5447 37.0821C26.5447 37.9885 26.969 38.524 27.62 38.524C28.0732 38.524 28.3533 38.3139 28.5511 37.9637C28.6911 37.733 28.8024 37.6465 29.0249 37.6465C29.2679 37.6465 29.4574 37.8113 29.4574 38.0667C29.4574 38.145 29.4368 38.2315 29.3956 38.3304C29.1526 38.9278 28.4275 39.3521 27.6035 39.3521ZM32.1744 39.3521C30.8396 39.3521 30.0527 38.5158 30.0527 37.0986C30.0527 35.7061 30.8561 34.8079 32.1167 34.8079C33.3115 34.8079 34.1272 35.6566 34.1272 36.8431C34.1272 37.148 33.9542 37.3293 33.6493 37.3293H31.0744V37.3622C31.0744 38.0915 31.4988 38.5611 32.1662 38.5611C32.6276 38.5611 32.9284 38.4005 33.2579 37.9802C33.3651 37.8607 33.4598 37.8154 33.604 37.8154C33.8347 37.8154 34.016 37.9637 34.016 38.2109C34.016 38.2892 33.9913 38.3799 33.946 38.4705C33.6576 39.0267 33.0066 39.3521 32.1744 39.3521ZM31.0826 36.6536H33.122C33.1014 36.0192 32.6976 35.6031 32.1209 35.6031C31.5441 35.6031 31.1238 36.0274 31.0826 36.6536ZM35.4187 39.348C35.118 39.348 34.9037 39.1544 34.9037 38.8083V33.7656C34.9037 33.4401 35.0974 33.2383 35.4105 33.2383C35.7277 33.2383 35.9172 33.4401 35.9172 33.7656V35.6484H35.9378C36.1727 35.1169 36.6547 34.8162 37.318 34.8162C38.282 34.8162 38.8465 35.4506 38.8465 36.4518V38.8083C38.8465 39.1544 38.6322 39.348 38.3315 39.348C38.0307 39.348 37.8206 39.1544 37.8206 38.8083V36.6619C37.8206 36.0521 37.5157 35.6855 36.9225 35.6855C36.3045 35.6855 35.9296 36.1139 35.9296 36.7566V38.8083C35.9296 39.1544 35.7195 39.348 35.4187 39.348ZM41.687 39.3521C40.4058 39.3521 39.5735 38.4993 39.5735 37.0821C39.5735 35.6731 40.414 34.8079 41.687 34.8079C42.9601 34.8079 43.8005 35.669 43.8005 37.0821C43.8005 38.4993 42.9683 39.3521 41.687 39.3521ZM41.687 38.5405C42.338 38.5405 42.7582 38.0132 42.7582 37.0821C42.7582 36.1551 42.338 35.6237 41.687 35.6237C41.0402 35.6237 40.6159 36.1551 40.6159 37.0821C40.6159 38.0132 41.0361 38.5405 41.687 38.5405ZM45.0879 39.348C44.7872 39.348 44.5729 39.1544 44.5729 38.8083V33.778C44.5729 33.4319 44.7872 33.2383 45.0879 33.2383C45.3887 33.2383 45.5988 33.4319 45.5988 33.778V38.8083C45.5988 39.1544 45.3887 39.348 45.0879 39.348ZM48.188 39.3357C47.088 39.3357 46.3753 38.4664 46.3753 37.078C46.3753 35.6978 47.088 34.8244 48.188 34.8244C48.8143 34.8244 49.3086 35.1499 49.5393 35.6319H49.5641V33.778C49.5641 33.4319 49.7742 33.2383 50.0749 33.2383C50.3757 33.2383 50.5899 33.4319 50.5899 33.778V38.833C50.5899 39.1626 50.3798 39.348 50.0832 39.348C49.7865 39.348 49.5641 39.1667 49.5641 38.833V38.4911H49.5435C49.3334 38.9937 48.8637 39.3357 48.188 39.3357ZM48.497 38.4952C49.1438 38.4952 49.5682 37.9473 49.5682 37.0821C49.5682 36.2252 49.1438 35.669 48.497 35.669C47.8378 35.669 47.4259 36.2169 47.4259 37.0821C47.4259 37.9514 47.8337 38.4952 48.497 38.4952ZM53.4758 39.3521C52.141 39.3521 51.3541 38.5158 51.3541 37.0986C51.3541 35.7061 52.1574 34.8079 53.4181 34.8079C54.6129 34.8079 55.4286 35.6566 55.4286 36.8431C55.4286 37.148 55.2556 37.3293 54.9507 37.3293H52.3758V37.3622C52.3758 38.0915 52.8001 38.5611 53.4676 38.5611C53.929 38.5611 54.2297 38.4005 54.5593 37.9802C54.6665 37.8607 54.7612 37.8154 54.9054 37.8154C55.1361 37.8154 55.3174 37.9637 55.3174 38.2109C55.3174 38.2892 55.2927 38.3799 55.2474 38.4705C54.959 39.0267 54.308 39.3521 53.4758 39.3521ZM52.384 36.6536H54.4234C54.4028 36.0192 53.999 35.6031 53.4222 35.6031C52.8455 35.6031 52.4252 36.0274 52.384 36.6536ZM56.6872 39.348C56.3782 39.348 56.1763 39.1461 56.1763 38.8083V35.3311C56.1763 35.0098 56.3741 34.812 56.6666 34.812C56.9508 34.812 57.1527 35.0098 57.1527 35.3311V35.6649H57.1733C57.2928 35.154 57.6718 34.8244 58.1085 34.8244C58.2692 34.8244 58.3928 34.8656 58.4711 34.9356C58.5658 35.0139 58.6153 35.1375 58.6153 35.3064C58.6153 35.4671 58.5658 35.5866 58.4628 35.669C58.364 35.7555 58.2115 35.8008 58.0096 35.8049C57.4246 35.8091 57.2021 36.1757 57.2021 36.7072V38.8083C57.2021 39.1461 56.9962 39.348 56.6872 39.348Z" fill="white"/>
</svg>
