<svg width="19" height="19" viewBox="0 0 19 19" fill="none" xmlns="http://www.w3.org/2000/svg">
<path d="M5.12067 15.6787H14.0196C15.4417 15.6787 16.1945 14.919 16.1945 13.4972V5.61704C16.1945 4.19318 15.4417 3.43555 14.0196 3.43555H5.12067C3.69861 3.43555 2.94141 4.18876 2.94141 5.61704V13.4972C2.94141 14.9234 3.69861 15.6787 5.12067 15.6787ZM5.16327 14.2332C4.64808 14.2332 4.3738 13.9735 4.3738 13.4277V7.52539C4.3738 6.98394 4.64808 6.72191 5.16327 6.72191H13.9682C14.4834 6.72191 14.7621 6.98394 14.7621 7.52539V13.4277C14.7621 13.9735 14.4834 14.2332 13.9682 14.2332H5.16327ZM8.34551 8.90978H8.72501C8.95627 8.90978 9.03316 8.83867 9.03316 8.60529V8.22232C9.03316 7.98894 8.95627 7.91341 8.72501 7.91341H8.34551C8.11424 7.91341 8.03297 7.98894 8.03297 8.22232V8.60529C8.03297 8.83867 8.11424 8.90978 8.34551 8.90978ZM10.4217 8.90978H10.8012C11.0325 8.90978 11.1158 8.83867 11.1158 8.60529V8.22232C11.1158 7.98894 11.0325 7.91341 10.8012 7.91341H10.4217C10.1904 7.91341 10.1092 7.98894 10.1092 8.22232V8.60529C10.1092 8.83867 10.1904 8.90978 10.4217 8.90978ZM12.4999 8.90978H12.8794C13.1107 8.90978 13.1919 8.83867 13.1919 8.60529V8.22232C13.1919 7.98894 13.1107 7.91341 12.8794 7.91341H12.4999C12.2686 7.91341 12.1918 7.98894 12.1918 8.22232V8.60529C12.1918 8.83867 12.2686 8.90978 12.4999 8.90978ZM6.26932 10.9725H6.64239C6.88009 10.9725 6.95698 10.9014 6.95698 10.668V10.285C6.95698 10.0517 6.88009 9.98056 6.64239 9.98056H6.26932C6.03163 9.98056 5.95473 10.0517 5.95473 10.285V10.668C5.95473 10.9014 6.03163 10.9725 6.26932 10.9725ZM8.34551 10.9725H8.72501C8.95627 10.9725 9.03316 10.9014 9.03316 10.668V10.285C9.03316 10.0517 8.95627 9.98056 8.72501 9.98056H8.34551C8.11424 9.98056 8.03297 10.0517 8.03297 10.285V10.668C8.03297 10.9014 8.11424 10.9725 8.34551 10.9725ZM10.4217 10.9725H10.8012C11.0325 10.9725 11.1158 10.9014 11.1158 10.668V10.285C11.1158 10.0517 11.0325 9.98056 10.8012 9.98056H10.4217C10.1904 9.98056 10.1092 10.0517 10.1092 10.285V10.668C10.1092 10.9014 10.1904 10.9725 10.4217 10.9725ZM12.4999 10.9725H12.8794C13.1107 10.9725 13.1919 10.9014 13.1919 10.668V10.285C13.1919 10.0517 13.1107 9.98056 12.8794 9.98056H12.4999C12.2686 9.98056 12.1918 10.0517 12.1918 10.285V10.668C12.1918 10.9014 12.2686 10.9725 12.4999 10.9725ZM6.26932 13.0396H6.64239C6.88009 13.0396 6.95698 12.9662 6.95698 12.7308V12.3498C6.95698 12.1144 6.88009 12.0453 6.64239 12.0453H6.26932C6.03163 12.0453 5.95473 12.1144 5.95473 12.3498V12.7308C5.95473 12.9662 6.03163 13.0396 6.26932 13.0396ZM8.34551 13.0396H8.72501C8.95627 13.0396 9.03316 12.9662 9.03316 12.7308V12.3498C9.03316 12.1144 8.95627 12.0453 8.72501 12.0453H8.34551C8.11424 12.0453 8.03297 12.1144 8.03297 12.3498V12.7308C8.03297 12.9662 8.11424 13.0396 8.34551 13.0396ZM10.4217 13.0396H10.8012C11.0325 13.0396 11.1158 12.9662 11.1158 12.7308V12.3498C11.1158 12.1144 11.0325 12.0453 10.8012 12.0453H10.4217C10.1904 12.0453 10.1092 12.1144 10.1092 12.3498V12.7308C10.1092 12.9662 10.1904 13.0396 10.4217 13.0396Z" fill="white" fill-opacity="0.56"/>
</svg>
