<svg width="22" height="22" viewBox="0 0 22 22" fill="none" xmlns="http://www.w3.org/2000/svg">
<path d="M4.87081 15.4375H15.1811C16.3027 15.4375 17.2472 15.3325 17.9162 14.6635C18.5852 13.9946 18.6835 13.0632 18.6835 11.9416V10.0593C18.6835 8.93775 18.5852 8.0064 17.9162 7.33741C17.2472 6.66842 16.3027 6.56348 15.1811 6.56348H4.8577C3.75583 6.56348 2.81136 6.66842 2.14237 7.33741C1.47338 8.0064 1.375 8.9443 1.375 10.0396V11.9416C1.375 13.0632 1.47338 13.9946 2.14237 14.6635C2.81136 15.3325 3.75582 15.4375 4.87081 15.4375ZM4.69373 14.3815C4.01818 14.3815 3.30983 14.2897 2.90975 13.8962C2.51622 13.4961 2.43096 12.7943 2.43096 12.1187V9.89532C2.43096 9.20665 2.51622 8.50486 2.90975 8.10478C3.30983 7.7047 4.02473 7.61944 4.7134 7.61944H15.3648C16.0403 7.61944 16.7487 7.71125 17.1423 8.10478C17.5423 8.50486 17.6276 9.20009 17.6276 9.87564V12.1187C17.6276 12.7943 17.5423 13.4961 17.1423 13.8962C16.7487 14.2897 16.0403 14.3815 15.3648 14.3815H4.69373ZM19.5755 12.6959C20.0937 12.6631 20.7889 12.0007 20.7889 10.9972C20.7889 10.0003 20.0937 9.33783 19.5755 9.30503V12.6959Z" fill="white"/>
<path d="M4.35091 13.6213H5.62331C6.07586 13.6213 6.33821 13.5557 6.51529 13.3721C6.69894 13.1884 6.77108 12.9261 6.77108 12.4735V9.52864C6.77108 9.07608 6.69894 8.81374 6.52185 8.63009C6.33821 8.44644 6.0693 8.38086 5.62331 8.38086H4.37058C3.89836 8.38086 3.62945 8.44644 3.45236 8.63009C3.26871 8.81374 3.20312 9.08264 3.20312 9.54175V12.4735C3.20312 12.9261 3.26871 13.1884 3.45236 13.3721C3.63601 13.5557 3.90492 13.6213 4.35091 13.6213Z" fill="white"/>
</svg>
