<svg width="22" height="22" viewBox="0 0 22 22" fill="none" xmlns="http://www.w3.org/2000/svg">
<path d="M7.34349 16.5892L4.79022 17.0829C3.09453 17.4078 2.10051 16.3423 2.5423 14.6856L4.59531 6.90233C4.92015 5.6874 5.90118 4.8623 7.05762 4.8623C8.41547 4.8623 9.33153 5.73938 9.33153 7.04525V12.3662L8.5649 12.5351L6.57685 10.742C6.37545 10.5601 6.02462 10.5666 5.82972 10.7745C5.6478 10.9889 5.67379 11.3332 5.88169 11.5216L7.311 12.8015L5.56334 13.1718C5.30347 13.2238 5.11506 13.5096 5.16703 13.7825C5.21901 14.0619 5.51787 14.2438 5.79073 14.1853L9.33153 13.4317V14.1138C9.33153 15.5756 8.72082 16.3228 7.34349 16.5892ZM14.9448 4.8623C16.1013 4.8623 17.0823 5.6874 17.4072 6.90233L19.4602 14.6856C19.902 16.3423 18.9079 17.4078 17.2122 17.0829L14.659 16.5892C13.2816 16.3228 12.6709 15.5756 12.6709 14.1138V13.4317L16.2117 14.1853C16.4846 14.2438 16.7835 14.0619 16.8354 13.7825C16.8874 13.5096 16.699 13.2238 16.4391 13.1718L14.6914 12.8015L16.1208 11.5216C16.3287 11.3332 16.3546 10.9889 16.1727 10.7745C15.9778 10.5666 15.627 10.5601 15.4256 10.742L13.4376 12.5351L12.6709 12.3662V7.04525C12.6709 5.73938 13.587 4.8623 14.9448 4.8623Z" fill="white"/>
<path d="M11.0018 13.0873L12.6714 13.4317V12.3662L11.5149 12.1193V5.68088C11.5149 5.39502 11.2876 5.16113 11.0018 5.16113C10.7159 5.16113 10.482 5.39502 10.482 5.68088V12.1193L9.33203 12.3662V13.4317L11.0018 13.0873Z" fill="white"/>
</svg>
