<svg width="19" height="19" viewBox="0 0 19 19" fill="none" xmlns="http://www.w3.org/2000/svg">
<path d="M2.44531 14.9387C2.44531 15.2261 2.68164 15.4497 2.95629 15.4497H16.178C16.459 15.4497 16.6953 15.2261 16.6953 14.9387C16.6953 14.6577 16.459 14.4277 16.178 14.4277H2.95629C2.68164 14.4277 2.44531 14.6577 2.44531 14.9387Z" fill="white" fill-opacity="0.56"/>
<path d="M13.4219 12.8046C13.4219 13.1623 13.6454 13.3731 14.0159 13.3731H15.4914C15.8554 13.3731 16.0854 13.1623 16.0854 12.8046V8.58266C16.0854 8.22498 15.8554 8.00781 15.4914 8.00781H14.0159C13.6454 8.00781 13.4219 8.22498 13.4219 8.58266V12.8046Z" fill="white" fill-opacity="0.56"/>
<path d="M9.96094 12.806C9.96094 13.1637 10.1909 13.3745 10.555 13.3745H12.0304C12.4009 13.3745 12.6309 13.1637 12.6309 12.806V5.67784C12.6309 5.32016 12.4009 5.10938 12.0304 5.10938H10.555C10.1909 5.10938 9.96094 5.32016 9.96094 5.67784V12.806Z" fill="white" fill-opacity="0.56"/>
<path d="M6.50781 12.8053C6.50781 13.163 6.73136 13.3738 7.09544 13.3738H8.57729C8.94136 13.3738 9.1713 13.163 9.1713 12.8053V4.22081C9.1713 3.86312 8.94136 3.65234 8.57729 3.65234H7.09544C6.73136 3.65234 6.50781 3.86312 6.50781 4.22081V12.8053Z" fill="white" fill-opacity="0.56"/>
<path d="M3.04688 12.8052C3.04688 13.1629 3.27682 13.3737 3.64089 13.3737H5.11635C5.48681 13.3737 5.71676 13.1629 5.71676 12.8052V7.15245C5.71676 6.80115 5.48681 6.58398 5.11635 6.58398H3.64089C3.27682 6.58398 3.04688 6.80115 3.04688 7.15245V12.8052Z" fill="white" fill-opacity="0.56"/>
</svg>
