<svg width="351" height="134" viewBox="0 0 351 134" fill="none" xmlns="http://www.w3.org/2000/svg">
<g clip-path="url(#clip0_4495_36170)">
<rect width="351" height="134" fill="#E7E7E7"/>
<rect x="224.855" y="115.026" width="44.0261" height="12.2854" rx="6.1427" transform="rotate(-90 224.855 115.026)" fill="#CFCFCF"/>
<path d="M231 57.2C231 47.6791 231 42.9187 232.853 39.2822C234.483 36.0834 237.083 33.4827 240.282 31.8529C243.919 30 248.679 30 258.2 30H383.8C393.321 30 398.081 30 401.718 31.8529C404.917 33.4827 407.517 36.0834 409.147 39.2822C411 42.9187 411 47.6791 411 57.2V182.8C411 192.321 411 197.081 409.147 200.718C407.517 203.917 404.917 206.517 401.718 208.147C398.081 210 393.321 210 383.8 210H258.2C248.679 210 243.919 210 240.282 208.147C237.083 206.517 234.483 203.917 232.853 200.718C231 197.081 231 192.321 231 182.8V57.2Z" fill="#DCDCDC"/>
<rect x="294" y="39" width="54" height="18" rx="9" fill="#CFCFCF"/>
</g>
<defs>
<clipPath id="clip0_4495_36170">
<rect width="351" height="134" fill="white"/>
</clipPath>
</defs>
</svg>
