<svg width="28" height="28" viewBox="0 0 28 28" fill="none" xmlns="http://www.w3.org/2000/svg">
<path d="M13.9987 23.912C14.384 23.912 14.6783 23.6328 14.7475 23.2281C15.6198 16.4406 16.5782 15.4737 23.2014 14.7505C23.6232 14.7073 23.9154 14.3914 23.9154 13.9997C23.9154 13.608 23.6232 13.2921 23.2014 13.2489C16.5782 12.5257 15.6198 11.5588 14.7475 4.77121C14.6783 4.36653 14.384 4.0874 13.9987 4.0874C13.6286 4.0874 13.3213 4.36653 13.2499 4.77121C12.3775 11.5588 11.4192 12.5257 4.79604 13.2489C4.37415 13.2921 4.08203 13.608 4.08203 13.9997C4.08203 14.3914 4.37415 14.7007 4.79604 14.7505C11.4254 15.6279 12.3276 16.4598 13.2499 23.2281C13.3213 23.6328 13.6286 23.912 13.9987 23.912Z" fill="#030303" fill-opacity="0.3"/>
</svg>
