<svg width="351" height="134" viewBox="0 0 351 134" fill="none" xmlns="http://www.w3.org/2000/svg">
<g clip-path="url(#clip0_4476_22699)">
<rect width="351" height="134" fill="#E7E7E7"/>
<rect x="231" y="30" width="180" height="180" rx="17" fill="#DCDCDC"/>
<g clip-path="url(#clip1_4476_22699)">
<rect x="240" y="45" width="114" height="29" rx="8" fill="#CFCFCF"/>
<rect x="246" y="51.5" width="16" height="16" rx="3" fill="#AAAAAA"/>
<g clip-path="url(#clip2_4476_22699)">
<path d="M254 54.8555C251.438 54.8555 249.355 56.9378 249.355 59.5C249.355 62.0622 251.438 64.1445 254 64.1445C256.562 64.1445 258.645 62.0622 258.645 59.5C258.645 56.9378 256.562 54.8555 254 54.8555ZM254 63.3704C251.867 63.3704 250.13 61.6326 250.13 59.5C250.13 57.3674 251.867 55.6296 254 55.6296C256.133 55.6296 257.87 57.3674 257.87 59.5C257.87 61.6326 256.133 63.3704 254 63.3704ZM253.226 57.1777C253.226 56.752 253.574 56.4036 254 56.4036C254.426 56.4036 254.774 56.752 254.774 57.1777C254.774 57.6035 254.426 57.9518 254 57.9518C253.574 57.9518 253.226 57.6035 253.226 57.1777ZM254.774 58.9891V60.3554L255.517 62.0584L254.809 62.368L254.066 60.665H253.938L253.195 62.368L252.487 62.0584L253.23 60.3554V58.9891L251.538 58.3118L251.825 57.5919L253.69 58.3389H254.317L256.183 57.5919L256.469 58.3118L254.778 58.9891H254.774Z" fill="#D9D9D9"/>
</g>
<path opacity="0.5" d="M268.68 63.0439C268.201 63.0439 267.918 62.8535 267.918 62.5166C267.918 62.2529 268.104 62.0869 268.475 62.0869H268.484C269.036 62.0869 269.319 61.833 269.559 61.4326L267.4 56.623C267.356 56.5303 267.342 56.4277 267.342 56.3398C267.342 56.0615 267.566 55.8613 267.884 55.8613C268.143 55.8613 268.27 55.9639 268.401 56.2812L270.101 60.2852H270.174L271.819 56.2715C271.941 55.9688 272.068 55.8613 272.342 55.8613C272.659 55.8613 272.859 56.0469 272.859 56.3252C272.859 56.4131 272.845 56.5156 272.806 56.6084L270.867 60.998C270.188 62.541 269.612 63.0439 268.68 63.0439ZM274.029 63.0928C273.711 63.0928 273.506 62.873 273.506 62.5361V58.332C273.506 57.9902 273.711 57.7705 274.029 57.7705C274.346 57.7705 274.556 57.9902 274.556 58.332V59.9336H276.88V58.332C276.88 57.9902 277.085 57.7705 277.408 57.7705C277.725 57.7705 277.93 57.9902 277.93 58.332V62.5361C277.93 62.873 277.725 63.0928 277.408 63.0928C277.085 63.0928 276.88 62.873 276.88 62.5361V60.7637H274.556V62.5361C274.556 62.873 274.346 63.0928 274.029 63.0928ZM279.749 63.0928C279.373 63.0928 279.173 62.8682 279.173 62.5068V58.3125C279.173 57.9756 279.387 57.7705 279.69 57.7705C279.993 57.7705 280.213 57.9756 280.213 58.3125V61.4619H280.252L282.425 58.1709C282.615 57.8779 282.796 57.7705 283.084 57.7705C283.435 57.7705 283.665 57.9951 283.665 58.3564V62.5508C283.665 62.8926 283.445 63.0928 283.142 63.0928C282.84 63.0928 282.625 62.8926 282.625 62.5508V59.3916H282.586L280.408 62.6973C280.218 62.9902 280.037 63.0928 279.749 63.0928ZM285.445 63C285.103 63 284.898 62.7852 284.898 62.4336V58.4346C284.898 58.0781 285.103 57.8633 285.445 57.8633H287.232C288.233 57.8633 288.838 58.3613 288.838 59.1719C288.838 59.7041 288.457 60.1875 287.964 60.2803V60.3193C288.628 60.4072 289.068 60.876 289.068 61.5205C289.068 62.4238 288.374 63 287.261 63H285.445ZM285.938 59.9775H286.914C287.51 59.9775 287.808 59.748 287.808 59.2939C287.808 58.8691 287.529 58.6299 287.017 58.6299H285.938V59.9775ZM285.938 62.2334H287.1C287.696 62.2334 288.018 61.9697 288.018 61.4766C288.018 60.9688 287.676 60.7148 286.983 60.7148H285.938V62.2334ZM292.337 63.0977C290.789 63.0977 289.88 62.1162 289.88 60.4561C289.88 58.8252 290.808 57.7705 292.263 57.7705C293.63 57.7705 294.573 58.7568 294.573 60.1582C294.573 60.5 294.378 60.6953 294.05 60.6953H290.945V60.7197C290.945 61.6572 291.472 62.2432 292.312 62.2432C292.888 62.2432 293.25 62.043 293.64 61.5107C293.753 61.3789 293.86 61.3252 294.011 61.3252C294.265 61.3252 294.451 61.4912 294.451 61.7549C294.451 61.8379 294.421 61.9355 294.378 62.0381C294.041 62.7119 293.294 63.0977 292.337 63.0977ZM290.95 59.958H293.518C293.494 59.1523 292.991 58.6201 292.258 58.6201C291.531 58.6201 291.004 59.1572 290.95 59.958ZM296.108 64.8213C295.796 64.8213 295.581 64.6064 295.581 64.2598V58.3125C295.581 57.9756 295.791 57.7705 296.089 57.7705C296.387 57.7705 296.602 57.9756 296.602 58.3125V58.7471H296.621C296.924 58.1562 297.515 57.7803 298.257 57.7803C299.561 57.7803 300.42 58.8057 300.42 60.4316C300.42 62.0576 299.565 63.0879 298.276 63.0879C297.539 63.0879 296.953 62.7266 296.66 62.1553H296.636V64.2598C296.636 64.6064 296.416 64.8213 296.108 64.8213ZM297.979 62.1943C298.813 62.1943 299.336 61.5107 299.336 60.4316C299.336 59.3574 298.813 58.6689 297.979 58.6689C297.173 58.6689 296.631 59.3721 296.631 60.4316C296.631 61.501 297.168 62.1943 297.979 62.1943ZM303.625 63.0977C302.156 63.0977 301.199 62.0771 301.199 60.4414C301.199 58.8154 302.151 57.7705 303.616 57.7705C304.607 57.7705 305.456 58.2979 305.681 59.0156C305.715 59.0986 305.73 59.1865 305.73 59.2598C305.73 59.5283 305.539 59.6943 305.281 59.6943C305.056 59.6943 304.929 59.6064 304.802 59.3721C304.538 58.8838 304.177 58.6494 303.64 58.6494C302.81 58.6494 302.273 59.3379 302.273 60.4316C302.273 61.5498 302.82 62.2139 303.635 62.2139C304.206 62.2139 304.553 61.96 304.802 61.5156C304.949 61.2617 305.066 61.1738 305.29 61.1738C305.549 61.1738 305.74 61.3496 305.74 61.6133C305.74 61.6963 305.72 61.7842 305.681 61.8867C305.412 62.5947 304.578 63.0977 303.625 63.0977ZM308.281 63.0879C307.275 63.0879 306.567 62.4629 306.567 61.54C306.567 60.6416 307.261 60.0898 308.476 60.0215L309.888 59.9385V59.543C309.888 58.9717 309.502 58.6299 308.857 58.6299C308.349 58.6299 308.013 58.8105 307.72 59.2793C307.612 59.4355 307.475 59.5039 307.29 59.5039C307.026 59.5039 306.836 59.3281 306.836 59.0645C306.836 58.957 306.865 58.8398 306.929 58.7227C307.197 58.1416 307.973 57.7705 308.896 57.7705C310.141 57.7705 310.937 58.4297 310.937 59.46V62.5605C310.937 62.8926 310.727 63.0928 310.429 63.0928C310.137 63.0928 309.936 62.9023 309.927 62.5898V62.1553H309.902C309.604 62.7266 308.95 63.0879 308.281 63.0879ZM308.569 62.2529C309.306 62.2529 309.888 61.7451 309.888 61.0762V60.6709L308.618 60.749C307.988 60.793 307.632 61.0713 307.632 61.5107C307.632 61.96 308.008 62.2529 308.569 62.2529ZM312.287 63.0293C311.872 63.0293 311.604 62.8193 311.604 62.5166C311.604 62.2725 311.75 62.1162 311.994 62.1162H312.038C312.448 62.1064 312.658 61.7109 312.727 60.7295L312.883 58.4346C312.903 58.0684 313.088 57.8633 313.43 57.8633H315.925C316.262 57.8633 316.472 58.0781 316.472 58.4346V62.585C316.472 62.8926 316.267 63.0928 315.949 63.0928C315.637 63.0928 315.422 62.8926 315.422 62.585V58.6982H313.84L313.694 60.7588C313.586 62.3115 313.142 63.0293 312.287 63.0293ZM318.252 63C317.91 63 317.705 62.7852 317.705 62.4336V58.2832C317.705 57.9707 317.91 57.7705 318.222 57.7705C318.54 57.7705 318.754 57.9707 318.754 58.2832V59.4502H319.736C320.922 59.4502 321.689 60.1387 321.689 61.2227C321.689 62.3115 320.922 63 319.736 63H318.252ZM318.754 62.1699H319.643C320.249 62.1699 320.639 61.7891 320.639 61.2227C320.639 60.6514 320.244 60.2754 319.643 60.2754H318.754V62.1699ZM323.19 63.0928C322.873 63.0928 322.668 62.873 322.668 62.5361V58.332C322.668 57.9902 322.873 57.7705 323.19 57.7705C323.508 57.7705 323.718 57.9902 323.718 58.332V59.9336H326.042V58.332C326.042 57.9902 326.247 57.7705 326.569 57.7705C326.887 57.7705 327.092 57.9902 327.092 58.332V62.5361C327.092 62.873 326.887 63.0928 326.569 63.0928C326.247 63.0928 326.042 62.873 326.042 62.5361V60.7637H323.718V62.5361C323.718 62.873 323.508 63.0928 323.19 63.0928ZM328.881 63C328.539 63 328.334 62.7852 328.334 62.4336V58.2832C328.334 57.9707 328.539 57.7705 328.852 57.7705C329.169 57.7705 329.384 57.9707 329.384 58.2832V59.4502H330.366C331.552 59.4502 332.319 60.1387 332.319 61.2227C332.319 62.3115 331.552 63 330.366 63H328.881ZM333.427 63.0928C333.11 63.0928 332.9 62.873 332.9 62.5361V58.332C332.9 57.9902 333.11 57.7705 333.427 57.7705C333.745 57.7705 333.954 57.9902 333.954 58.332V62.5361C333.954 62.873 333.745 63.0928 333.427 63.0928ZM329.384 62.1699H330.273C330.878 62.1699 331.269 61.7891 331.269 61.2227C331.269 60.6514 330.873 60.2754 330.273 60.2754H329.384V62.1699ZM337.443 57.1553C336.598 57.1553 335.998 56.6914 335.871 56.0566C335.856 55.9834 335.846 55.915 335.846 55.8467C335.846 55.627 335.978 55.4854 336.179 55.4854C336.369 55.4854 336.471 55.583 336.53 55.8174C336.647 56.2764 336.97 56.5547 337.438 56.5547C337.922 56.5547 338.249 56.2666 338.356 55.8174C338.415 55.583 338.512 55.4854 338.703 55.4854C338.908 55.4854 339.035 55.6318 339.035 55.8467C339.035 55.9053 339.025 55.9736 339.015 56.0322C338.898 56.6816 338.288 57.1553 337.443 57.1553ZM335.768 63.0928C335.392 63.0928 335.192 62.8682 335.192 62.5068V58.3125C335.192 57.9756 335.407 57.7705 335.71 57.7705C336.012 57.7705 336.232 57.9756 336.232 58.3125V61.4619H336.271L338.444 58.1709C338.635 57.8779 338.815 57.7705 339.103 57.7705C339.455 57.7705 339.684 57.9951 339.684 58.3564V62.5508C339.684 62.8926 339.465 63.0928 339.162 63.0928C338.859 63.0928 338.644 62.8926 338.644 62.5508V59.3916H338.605L336.428 62.6973C336.237 62.9902 336.056 63.0928 335.768 63.0928ZM343.068 64.4502C342.77 64.4502 342.575 64.2646 342.575 63.9766V62.6729C342.575 62.375 342.741 62.1846 343.004 62.165H343.014C343.39 61.9307 343.537 61.3105 343.586 60.6172L343.737 58.4346C343.756 58.083 343.952 57.8633 344.279 57.8633H346.969C347.306 57.8633 347.516 58.0781 347.516 58.4346V62.165H347.819C348.131 62.165 348.327 62.375 348.327 62.7119V63.9766C348.327 64.2646 348.141 64.4502 347.843 64.4502C347.546 64.4502 347.355 64.2646 347.355 63.9766V63H343.546V63.9766C343.546 64.2646 343.361 64.4502 343.068 64.4502ZM346.466 62.165V58.6982H344.679L344.538 60.6611C344.499 61.2666 344.372 61.7939 344.137 62.126V62.165H346.466ZM351.327 63.0977C349.857 63.0977 348.891 62.0869 348.891 60.4316C348.891 58.7812 349.862 57.7705 351.327 57.7705C352.792 57.7705 353.764 58.7812 353.764 60.4316C353.764 62.0869 352.797 63.0977 351.327 63.0977ZM351.327 62.2285C352.157 62.2285 352.689 61.5742 352.689 60.4316C352.689 59.2939 352.152 58.6396 351.327 58.6396C350.502 58.6396 349.965 59.2939 349.965 60.4316C349.965 61.5742 350.502 62.2285 351.327 62.2285ZM356.969 63.0977C355.499 63.0977 354.542 62.0771 354.542 60.4414C354.542 58.8154 355.495 57.7705 356.959 57.7705C357.951 57.7705 358.8 58.2979 359.025 59.0156C359.059 59.0986 359.074 59.1865 359.074 59.2598C359.074 59.5283 358.883 59.6943 358.624 59.6943C358.4 59.6943 358.273 59.6064 358.146 59.3721C357.882 58.8838 357.521 58.6494 356.984 58.6494C356.154 58.6494 355.617 59.3379 355.617 60.4316C355.617 61.5498 356.163 62.2139 356.979 62.2139C357.55 62.2139 357.897 61.96 358.146 61.5156C358.292 61.2617 358.41 61.1738 358.634 61.1738C358.893 61.1738 359.083 61.3496 359.083 61.6133C359.083 61.6963 359.064 61.7842 359.025 61.8867C358.756 62.5947 357.921 63.0977 356.969 63.0977ZM361.771 63.0928C361.459 63.0928 361.254 62.8926 361.254 62.585V58.6982H359.965C359.735 58.6982 359.564 58.542 359.564 58.2881C359.564 58.0391 359.735 57.8633 359.965 57.8633H363.593C363.817 57.8633 363.993 58.0391 363.993 58.2881C363.993 58.542 363.817 58.6982 363.593 58.6982H362.304V62.585C362.304 62.8926 362.089 63.0928 361.771 63.0928ZM365.426 64.9141C364.938 64.9141 364.669 64.7334 364.669 64.4062C364.669 64.1816 364.825 64.0352 365.079 64.0352C365.192 64.0352 365.231 64.04 365.353 64.04C365.646 64.04 365.944 63.8789 366.134 63.3516L366.232 63.0537L364.513 58.5566C364.474 58.4492 364.454 58.3418 364.454 58.2588C364.454 57.9707 364.684 57.7705 364.991 57.7705C365.255 57.7705 365.406 57.8828 365.499 58.1758L366.808 62.043H366.822L368.136 58.1758C368.224 57.8877 368.37 57.7705 368.639 57.7705C368.942 57.7705 369.152 57.9707 369.152 58.2539C369.152 58.3369 369.132 58.4443 369.098 58.5469L367.316 63.2588C366.862 64.4941 366.378 64.9141 365.426 64.9141ZM370.56 63.0928C370.248 63.0928 370.043 62.8926 370.043 62.585V58.4346C370.043 58.0781 370.248 57.8633 370.589 57.8633H373.876C374.213 57.8633 374.422 58.0781 374.422 58.4346V62.585C374.422 62.8926 374.217 63.0928 373.9 63.0928C373.588 63.0928 373.368 62.8926 373.368 62.585V58.6982H371.092V62.585C371.092 62.8926 370.878 63.0928 370.56 63.0928Z" fill="#030303"/>
</g>
</g>
<defs>
<clipPath id="clip0_4476_22699">
<rect width="351" height="134" fill="white"/>
</clipPath>
<clipPath id="clip1_4476_22699">
<rect x="240" y="45" width="114" height="29" rx="8" fill="white"/>
</clipPath>
<clipPath id="clip2_4476_22699">
<rect width="9.28906" height="9.28906" fill="white" transform="translate(249.355 54.8555)"/>
</clipPath>
</defs>
</svg>
