<svg width="351" height="134" viewBox="0 0 351 134" fill="none" xmlns="http://www.w3.org/2000/svg">
<g clip-path="url(#clip0_4476_22770)">
<rect width="351" height="134" fill="#E7E7E7"/>
<rect x="231.445" y="30" width="180" height="180" rx="17" fill="#DCDCDC"/>
<rect x="240.445" y="45" width="146" height="29" rx="8" fill="#CFCFCF"/>
<g opacity="0.5">
<path d="M249.289 58.5051C249.289 60.8254 251.177 62.7133 253.497 62.7133C254.415 62.7133 255.253 62.418 255.944 61.9223L258.539 64.522C258.66 64.6434 258.818 64.7014 258.987 64.7014C259.345 64.7014 259.593 64.4324 259.593 64.0791C259.593 63.9103 259.53 63.7574 259.419 63.6467L256.841 61.0522C257.384 60.3455 257.705 59.4648 257.705 58.5051C257.705 56.1848 255.818 54.2969 253.497 54.2969C251.177 54.2969 249.289 56.1848 249.289 58.5051ZM250.191 58.5051C250.191 56.6805 251.673 55.1986 253.497 55.1986C255.322 55.1986 256.804 56.6805 256.804 58.5051C256.804 60.3297 255.322 61.8115 253.497 61.8115C251.673 61.8115 250.191 60.3297 250.191 58.5051Z" fill="#030303"/>
</g>
<path opacity="0.5" d="M267.881 63.5938C267.471 63.5938 267.225 63.3359 267.225 62.9141V55.7246C267.225 55.3027 267.471 55.0449 267.881 55.0449H270.395C272.035 55.0449 273.178 56.1758 273.178 57.8223C273.178 59.4746 272.012 60.6113 270.354 60.6113H268.537V62.9141C268.537 63.3359 268.285 63.5938 267.881 63.5938ZM268.537 59.5098H270.043C271.186 59.5098 271.836 58.8945 271.836 57.8281C271.836 56.7617 271.186 56.1523 270.049 56.1523H268.537V59.5098ZM276.427 63.6113C275.085 63.6113 274.265 62.7383 274.265 61.3262V57.8984C274.265 57.4766 274.522 57.2246 274.897 57.2246C275.266 57.2246 275.53 57.4766 275.53 57.8984V61.0801C275.53 62.0176 275.975 62.5215 276.849 62.5215C277.763 62.5215 278.313 61.8887 278.313 60.9277V57.8984C278.313 57.4766 278.577 57.2246 278.946 57.2246C279.321 57.2246 279.579 57.4766 279.579 57.8984V62.9668C279.579 63.3594 279.339 63.6113 278.975 63.6113C278.612 63.6113 278.366 63.3594 278.366 62.9727V62.457H278.337C277.997 63.1953 277.37 63.6113 276.427 63.6113ZM281.961 63.6113C281.574 63.6113 281.322 63.3711 281.322 62.9492V58.3379H280.883C280.584 58.3379 280.379 58.1621 280.379 57.8457C280.379 57.541 280.584 57.3477 280.883 57.3477H281.322V56.7441C281.322 55.5488 281.902 54.9922 282.963 54.9863C283.636 54.9863 283.959 55.2031 283.959 55.543C283.959 55.748 283.859 55.8711 283.654 55.9297C283.566 55.9531 283.461 55.9707 283.332 55.9707C282.799 55.9766 282.576 56.2285 282.576 56.791V57.3477H283.408C283.707 57.3477 283.912 57.541 283.912 57.8457C283.912 58.1621 283.707 58.3379 283.408 58.3379H282.594V62.9492C282.594 63.3711 282.342 63.6113 281.961 63.6113ZM285.948 63.6113C285.561 63.6113 285.309 63.3711 285.309 62.9492V58.3379H284.87C284.571 58.3379 284.366 58.1621 284.366 57.8457C284.366 57.541 284.571 57.3477 284.87 57.3477H285.309V56.7441C285.309 55.5488 285.889 54.9922 286.95 54.9863C287.624 54.9863 287.946 55.2031 287.946 55.543C287.946 55.748 287.846 55.8711 287.641 55.9297C287.553 55.9531 287.448 55.9707 287.319 55.9707C286.786 55.9766 286.563 56.2285 286.563 56.791V57.3477H287.395C287.694 57.3477 287.899 57.541 287.899 57.8457C287.899 58.1621 287.694 58.3379 287.395 58.3379H286.581V62.9492C286.581 63.3711 286.329 63.6113 285.948 63.6113ZM289.607 63.6113C289.238 63.6113 288.974 63.3594 288.974 62.9434V55.6016C288.974 55.1855 289.238 54.9336 289.607 54.9336C289.976 54.9336 290.24 55.1855 290.24 55.6016V62.9434C290.24 63.3594 289.976 63.6113 289.607 63.6113ZM294.332 63.6172C292.475 63.6172 291.385 62.4395 291.385 60.4473C291.385 58.4902 292.498 57.2246 294.245 57.2246C295.885 57.2246 297.016 58.4082 297.016 60.0898C297.016 60.5 296.782 60.7344 296.389 60.7344H292.663V60.7637C292.663 61.8887 293.295 62.5918 294.303 62.5918C294.995 62.5918 295.428 62.3516 295.897 61.7129C296.032 61.5547 296.161 61.4902 296.342 61.4902C296.647 61.4902 296.87 61.6895 296.87 62.0059C296.87 62.1055 296.834 62.2227 296.782 62.3457C296.377 63.1543 295.481 63.6172 294.332 63.6172ZM292.668 59.8496H295.75C295.721 58.8828 295.118 58.2441 294.239 58.2441C293.366 58.2441 292.733 58.8887 292.668 59.8496ZM300.394 63.6172C299.181 63.6172 298.29 63.1191 297.997 62.3633C297.956 62.2695 297.945 62.1816 297.945 62.0996C297.945 61.7832 298.173 61.5957 298.49 61.5957C298.7 61.5957 298.882 61.6953 299.04 61.9297C299.357 62.4277 299.726 62.6504 300.458 62.6504C301.179 62.6504 301.665 62.3398 301.665 61.8301C301.665 61.4258 301.425 61.209 300.763 61.0508L299.79 60.8223C298.595 60.541 298.009 59.9551 298.009 59.0762C298.009 57.9629 298.976 57.2246 300.441 57.2246C301.554 57.2246 302.468 57.793 302.644 58.5195C302.656 58.5898 302.667 58.6484 302.667 58.707C302.667 58.9883 302.491 59.1758 302.175 59.1758C301.97 59.1758 301.788 59.1055 301.665 58.9062C301.39 58.4375 301.015 58.1914 300.394 58.1914C299.714 58.1914 299.245 58.5254 299.245 59.0059C299.245 59.3926 299.544 59.6621 300.195 59.8145L301.15 60.0371C302.445 60.3359 302.943 60.7988 302.943 61.7129C302.943 62.8555 301.917 63.6172 300.394 63.6172ZM306.315 63.6172C305.102 63.6172 304.211 63.1191 303.918 62.3633C303.877 62.2695 303.865 62.1816 303.865 62.0996C303.865 61.7832 304.094 61.5957 304.41 61.5957C304.621 61.5957 304.803 61.6953 304.961 61.9297C305.278 62.4277 305.647 62.6504 306.379 62.6504C307.1 62.6504 307.586 62.3398 307.586 61.8301C307.586 61.4258 307.346 61.209 306.684 61.0508L305.711 60.8223C304.516 60.541 303.93 59.9551 303.93 59.0762C303.93 57.9629 304.897 57.2246 306.361 57.2246C307.475 57.2246 308.389 57.793 308.565 58.5195C308.576 58.5898 308.588 58.6484 308.588 58.707C308.588 58.9883 308.412 59.1758 308.096 59.1758C307.891 59.1758 307.709 59.1055 307.586 58.9062C307.311 58.4375 306.936 58.1914 306.315 58.1914C305.635 58.1914 305.166 58.5254 305.166 59.0059C305.166 59.3926 305.465 59.6621 306.115 59.8145L307.07 60.0371C308.365 60.3359 308.863 60.7988 308.863 61.7129C308.863 62.8555 307.838 63.6172 306.315 63.6172Z" fill="#030303"/>
<rect x="240.445" y="91" width="31.0681" height="31.0681" rx="15.534" fill="#CFCFCF"/>
<path d="M255.664 101.612C255.956 101.523 256.228 101.478 256.537 101.478C257.5 101.478 258.358 101.955 258.876 102.694C258.874 102.694 258.871 102.694 258.868 102.694C257.594 102.694 256.44 103.217 255.619 104.091C255.464 104.067 255.321 104.055 255.159 104.055C253.518 104.055 252.101 105.066 251.532 106.526C250.265 106.869 249.263 107.84 248.884 109.072C247.741 108.616 247.023 107.557 247.023 106.289C247.023 104.852 248.022 103.646 249.386 103.329C249.536 101.55 251.013 100.122 252.833 100.122C253.999 100.122 255.027 100.692 255.664 101.612Z" fill="white"/>
<path d="M252.602 112.935H261.505C263.381 112.935 264.668 111.603 264.668 109.908C264.668 108.472 263.671 107.26 262.313 106.942C262.157 105.165 260.686 103.743 258.866 103.743C257.694 103.743 256.666 104.312 256.029 105.231C255.737 105.144 255.465 105.099 255.156 105.099C253.762 105.099 252.595 106.099 252.344 107.444C250.889 107.539 249.762 108.733 249.762 110.174C249.762 111.721 250.913 112.935 252.602 112.935Z" fill="white"/>
</g>
<defs>
<clipPath id="clip0_4476_22770">
<rect width="351" height="134" fill="white"/>
</clipPath>
</defs>
</svg>
