<svg width="28" height="28" viewBox="0 0 28 28" fill="none" xmlns="http://www.w3.org/2000/svg">
<path d="M16.4019 22.0696H20.3908C21.5041 22.0696 22.0652 21.5173 22.0652 20.3601V16.4323C22.0652 15.2838 21.5041 14.7227 20.3908 14.7227H16.4019C15.2798 14.7227 14.7188 15.2838 14.7188 16.4323V20.3601C14.7188 21.5173 15.2798 22.0696 16.4019 22.0696Z" fill="#030303" fill-opacity="0.3"/>
<path d="M7.60412 22.0696H11.6017C12.7151 22.0696 13.2761 21.5173 13.2761 20.3601V16.4323C13.2761 15.2838 12.7151 14.7227 11.6017 14.7227H7.60412C6.49075 14.7227 5.92969 15.2838 5.92969 16.4323V20.3601C5.92969 21.5173 6.49075 22.0696 7.60412 22.0696Z" fill="#030303" fill-opacity="0.3"/>
<path d="M16.4019 13.2762H20.3908C21.5041 13.2762 22.0652 12.7151 22.0652 11.5578V7.63882C22.0652 6.48154 21.5041 5.9292 20.3908 5.9292H16.4019C15.2798 5.9292 14.7188 6.48154 14.7188 7.63882V11.5578C14.7188 12.7151 15.2798 13.2762 16.4019 13.2762Z" fill="#030303" fill-opacity="0.3"/>
<path d="M7.60412 13.2762H11.6017C12.7151 13.2762 13.2761 12.7151 13.2761 11.5578V7.63882C13.2761 6.48154 12.7151 5.9292 11.6017 5.9292H7.60412C6.49075 5.9292 5.92969 6.48154 5.92969 7.63882V11.5578C5.92969 12.7151 6.49075 13.2762 7.60412 13.2762Z" fill="#030303" fill-opacity="0.3"/>
</svg>
