<svg width="69" height="69" viewBox="0 0 69 69" fill="none" xmlns="http://www.w3.org/2000/svg">
<g clip-path="url(#clip0_3331_98451)">
<path d="M15.3207 58.5131C16.3549 58.5131 17.1921 57.7006 17.1921 56.6663V42.9751C17.8077 42.7043 20.1224 41.8177 23.7422 41.8177C32.8532 41.8177 38.566 46.2748 47.2338 46.2748C51.0751 46.2748 52.5033 45.8562 54.3747 45.0191C56.074 44.2556 57.182 42.9751 57.182 40.7098V15.7161C57.182 14.3863 56.0493 13.623 54.6211 13.623C53.4146 13.623 51.149 14.6572 46.9135 14.6572C38.246 14.6572 32.5577 10.2002 23.4221 10.2002C19.5807 10.2002 18.1278 10.6188 16.2564 11.456C14.5573 12.2194 13.4492 13.4999 13.4492 15.7407V56.6663C13.4492 57.6759 14.3111 58.5131 15.3207 58.5131ZM17.1921 31.7218V23.3742C17.5369 22.5616 19.5807 21.4289 23.4221 21.4289C24.21 21.4289 25.2935 21.4781 26.1554 21.5766V14.0662C29.4797 14.411 32.41 15.3713 35.4141 16.2578V23.7682C38.4674 24.7039 41.3241 25.4919 44.6482 25.7874V18.277C45.387 18.3509 46.1258 18.3755 46.9135 18.3755C49.5977 18.3755 51.8139 18.0554 53.4637 17.5875V25.0979C52.2325 25.4427 49.8685 25.8859 46.9135 25.8859C46.1503 25.8859 45.3623 25.8366 44.6482 25.7874V34.135C45.3623 34.2089 46.0519 34.2335 46.9135 34.2335C49.5977 34.2335 51.8139 33.9134 53.4637 33.4456V40.6112C53.119 41.4239 51.0751 42.5566 47.2338 42.5566C46.3472 42.5566 45.4853 42.5074 44.6482 42.4088V34.135C41.3241 33.7657 38.566 33.1501 35.4141 32.1158V40.1679C32.5577 39.3061 29.6028 38.4689 26.1554 38.1734V29.9243C25.2196 29.8258 24.5794 29.7765 23.4221 29.7765C19.5807 29.7765 17.5369 30.9093 17.1921 31.7218ZM26.1554 29.9243C29.5535 30.2936 32.1391 31.1555 35.4141 32.1158V23.7682C32.3361 22.8571 29.5781 21.9214 26.1554 21.5766V29.9243Z" fill="url(#paint0_linear_3331_98451)"/>
</g>
<defs>
<linearGradient id="paint0_linear_3331_98451" x1="35.3156" y1="10.2002" x2="35.3156" y2="58.5131" gradientUnits="userSpaceOnUse">
<stop stop-color="#4AA1FD"/>
<stop offset="1" stop-color="#BFDEFE"/>
</linearGradient>
<clipPath id="clip0_3331_98451">
<rect width="45.3333" height="48.3375" fill="white" transform="translate(11.832 10.1724)"/>
</clipPath>
</defs>
</svg>
