<svg width="23" height="22" viewBox="0 0 23 22" fill="none" xmlns="http://www.w3.org/2000/svg">
<path fill-rule="evenodd" clip-rule="evenodd" d="M17.177 5.98398V6.73568C17.6072 6.73568 18.0199 6.89235 18.3241 7.17122C18.6283 7.45009 18.7992 7.82833 18.7992 8.22271V15.6579C18.7992 16.0523 18.6283 16.4305 18.3241 16.7094C18.0199 16.9883 17.6072 17.1449 17.177 17.1449H5.82144C5.3912 17.1449 4.97858 16.9883 4.67436 16.7094C4.37013 16.4305 4.19922 16.0523 4.19922 15.6579V8.22271C4.19922 7.44574 4.8765 6.74088 5.66976 6.53344L14.592 4.19656C14.8938 4.11749 15.2115 4.10373 15.5201 4.15636C15.8287 4.20898 16.1198 4.32656 16.3704 4.49984C16.6209 4.67311 16.8242 4.89735 16.9642 5.15489C17.1042 5.41243 17.177 5.69624 17.177 5.98398ZM14.3381 10.825C14.0154 10.825 13.706 10.9425 13.4778 11.1517C13.2496 11.3608 13.1214 11.6445 13.1214 11.9403C13.1214 12.2361 13.2496 12.5198 13.4778 12.7289C13.706 12.9381 14.0154 13.0556 14.3381 13.0556C14.6608 13.0556 14.9703 12.9381 15.1984 12.7289C15.4266 12.5198 15.5548 12.2361 15.5548 11.9403C15.5548 11.6445 15.4266 11.3608 15.1984 11.1517C14.9703 10.9425 14.6608 10.825 14.3381 10.825ZM15.5548 5.98398C15.5548 5.9315 15.5427 5.8796 15.5193 5.8317C15.4959 5.78381 15.4617 5.741 15.419 5.70609C15.3762 5.67118 15.3259 5.64497 15.2713 5.62918C15.2167 5.61338 15.159 5.60836 15.1022 5.61445L15.0373 5.62635L10.8017 6.73568H15.5548V5.98398Z" fill="white"/>
</svg>
