<svg width="64" height="64" viewBox="0 0 64 64" fill="none" xmlns="http://www.w3.org/2000/svg">
<path opacity="0.44" d="M27.1309 15.7041V22.6423H27.6632C34.8235 22.6423 39.7909 25.1262 42.8226 29.5773C38.0277 30.2312 34.1181 33.8081 32.9678 38.435C31.3853 38.1049 29.6245 37.9685 27.6632 37.9685H27.1309V44.9801C27.1309 46.2099 26.2316 47.1276 24.9834 47.1276C24.084 47.1276 23.3499 46.7606 22.4689 45.9345L7.98688 32.2601C7.28939 31.5995 7.05078 30.902 7.05078 30.2962C7.05078 29.6722 7.27104 28.9929 7.98688 28.3139L22.4689 14.768C23.4416 13.8503 24.0474 13.4648 24.9467 13.4648C26.2316 13.4648 27.1309 14.4744 27.1309 15.7041Z" fill="#75B8FD"/>
<path d="M53.7617 41.2909C53.7617 46.3752 49.4852 50.6152 44.4375 50.6152C39.3165 50.6152 35.1133 46.4118 35.1133 41.2909C35.1133 36.1699 39.3165 31.9482 44.4375 31.9482C49.54 31.9482 53.7617 36.1699 53.7617 41.2909ZM43.3913 35.8579V40.465H40.0875C39.4633 40.465 38.931 40.9604 38.931 41.5846C38.931 42.2086 39.4451 42.7043 40.0875 42.7043H44.5292C45.1716 42.7043 45.6672 42.2086 45.6672 41.5846V35.8579C45.6672 35.2521 45.1534 34.7566 44.5292 34.7566C43.9052 34.7566 43.3913 35.2521 43.3913 35.8579Z" fill="#75B8FD"/>
</svg>
