<svg width="19" height="19" viewBox="0 0 19 19" fill="none" xmlns="http://www.w3.org/2000/svg">
<path d="M6.31459 9.90669C5.99601 9.90669 5.75038 9.66107 5.75038 9.34248C5.75038 9.02833 5.99601 8.7827 6.31459 8.7827H8.93578V5.19623C8.93578 4.88 9.1814 4.63644 9.49559 4.63644C9.8118 4.63644 10.0598 4.88 10.0598 5.19623V9.34248C10.0598 9.66107 9.8118 9.90669 9.49559 9.90669H6.31459ZM9.49997 15.7725C13.2283 15.7725 16.2521 12.7443 16.2521 9.02243C16.2521 5.29618 13.2283 2.27246 9.49997 2.27246C5.77814 2.27246 2.75 5.29618 2.75 9.02243C2.75 12.7443 5.77814 15.7725 9.49997 15.7725Z" fill="#4AA1FD"/>
</svg>
