<svg width="351" height="134" viewBox="0 0 351 134" fill="none" xmlns="http://www.w3.org/2000/svg">
<g clip-path="url(#clip0_4495_36177)">
<rect width="351" height="134" fill="#E7E7E7"/>
<rect x="231" y="30" width="180" height="180" rx="17" fill="#DCDCDC"/>
<rect x="243" y="42" width="54" height="57" rx="12.7932" fill="#CFCFCF"/>
<circle cx="259.285" cy="58.8511" r="9.19509" fill="#D9D9D9"/>
<circle cx="282.273" cy="70.8272" r="9.19509" fill="#D9D9D9"/>
<circle cx="259.285" cy="82.8384" r="9.19509" fill="#D9D9D9"/>
<g clip-path="url(#clip1_4495_36177)">
<path d="M327.127 117.604C326.827 118.524 326.341 119.377 325.756 120.087V120.088C325.166 120.802 324.378 121.433 323.501 121.852C322.696 122.236 321.813 122.442 320.935 122.374L320.666 122.353L320.631 122.085C320.517 121.222 320.649 120.349 320.926 119.54C321.249 118.6 321.772 117.741 322.333 117.091L322.333 117.091C322.914 116.411 323.692 115.819 324.526 115.39C325.363 114.96 326.262 114.69 327.08 114.657L327.389 114.645L327.423 114.953C327.522 115.857 327.402 116.759 327.127 117.604Z" fill="#CFCFCF"/>
<path d="M332.812 125.72C332.516 125.903 329.65 127.676 329.686 131.249C329.723 135.558 333.376 137.051 333.578 137.133H333.579L333.588 137.137L333.875 137.256L333.776 137.549C333.771 137.566 333.777 137.548 333.769 137.575C333.676 137.874 333.044 139.898 331.616 141.984C330.969 142.93 330.309 143.875 329.53 144.603C328.723 145.358 327.802 145.867 326.663 145.888C325.591 145.908 324.888 145.604 324.158 145.288C323.462 144.987 322.738 144.674 321.605 144.674C320.415 144.674 319.654 144.998 318.922 145.31C318.232 145.604 317.565 145.888 316.604 145.927H316.602C315.493 145.968 314.53 145.427 313.675 144.626C312.857 143.859 312.14 142.855 311.487 141.91C310.012 139.781 308.73 136.683 308.333 133.533C308.007 130.941 308.28 128.309 309.533 126.135C310.232 124.919 311.209 123.926 312.352 123.234C313.49 122.544 314.791 122.152 316.146 122.131V122.131C317.332 122.11 318.451 122.554 319.429 122.942C320.122 123.217 320.739 123.462 321.201 123.462C321.61 123.462 322.212 123.224 322.915 122.947C324.101 122.48 325.552 121.908 327.086 122.06C327.73 122.088 329.072 122.243 330.444 122.986C331.318 123.46 332.204 124.171 332.933 125.237L333.125 125.519L332.838 125.704C332.823 125.714 332.838 125.704 332.812 125.72Z" fill="#CFCFCF"/>
</g>
</g>
<defs>
<clipPath id="clip0_4495_36177">
<rect width="351" height="134" fill="white"/>
</clipPath>
<clipPath id="clip1_4495_36177">
<rect width="42.5859" height="42.5859" fill="white" transform="translate(299.707 109)"/>
</clipPath>
</defs>
</svg>
