<svg width="351" height="134" viewBox="0 0 351 134" fill="none" xmlns="http://www.w3.org/2000/svg">
<g clip-path="url(#clip0_4476_22631)">
<rect width="351" height="134" fill="#E7E7E7"/>
<rect x="231.5" y="30" width="180" height="180" rx="17" fill="#DCDCDC"/>
<rect x="242.5" y="43" width="33" height="33" rx="7.34766" fill="#B5D9FF"/>
<g opacity="0.7" filter="url(#filter0_f_4476_22631)">
<path fill-rule="evenodd" clip-rule="evenodd" d="M251.002 57.5314C249.338 55.8676 249.338 53.1701 251.002 51.5064C252.665 49.8426 255.363 49.8426 257.027 51.5064L258.997 53.4762L260.966 51.5065C262.63 49.8427 265.328 49.8427 266.991 51.5065C268.655 53.1703 268.655 55.8678 266.991 57.5315L265.022 59.5012L266.99 61.4694C268.654 63.1331 268.654 65.8306 266.99 67.4944C265.326 69.1582 262.628 69.1582 260.965 67.4944L258.997 65.5262L257.028 67.4945C255.365 69.1583 252.667 69.1583 251.003 67.4945C249.339 65.8307 249.339 63.1332 251.003 61.4695L252.972 59.5012L251.002 57.5314ZM251.591 56.9423C250.252 55.6039 250.252 53.4339 251.591 52.0955C252.929 50.757 255.099 50.757 256.438 52.0955L258.997 54.6544L261.555 52.0956C262.894 50.7572 265.064 50.7572 266.402 52.0956C267.741 53.434 267.741 55.604 266.402 56.9424L263.843 59.5012L266.401 62.0584C267.739 63.3969 267.739 65.5669 266.401 66.9053C265.062 68.2437 262.892 68.2437 261.554 66.9053L258.997 64.3481L256.439 66.9054C255.101 68.2438 252.931 68.2438 251.592 66.9054C250.254 65.567 250.254 63.397 251.592 62.0586L254.15 59.5012L251.591 56.9423Z" fill="white"/>
<rect x="264.48" y="50.1716" width="6.85449" height="20.9443" rx="3.42724" transform="rotate(45 264.48 50.1716)" fill="white" fill-opacity="0.28"/>
<rect x="249.079" y="55.0183" width="7.68759" height="21.7774" rx="3.84379" transform="rotate(-45 249.079 55.0183)" fill="#ABCFF8" stroke="white" stroke-width="0.833099"/>
<rect x="255.906" y="57.1607" width="7.68759" height="10.3532" rx="3.84379" transform="rotate(45 255.906 57.1607)" fill="#D9E9FC" stroke="white" stroke-width="0.833099"/>
</g>
<path fill-rule="evenodd" clip-rule="evenodd" d="M251.006 57.5316C249.342 55.8679 249.342 53.1704 251.006 51.5066C252.669 49.8428 255.367 49.8428 257.031 51.5066L259 53.4764L260.97 51.5067C262.634 49.843 265.331 49.843 266.995 51.5067C268.659 53.1705 268.659 55.868 266.995 57.5318L265.026 59.5015L266.994 61.4696C268.657 63.1334 268.657 65.8309 266.994 67.4946C265.33 69.1584 262.632 69.1584 260.969 67.4946L259 65.5265L257.032 67.4948C255.368 69.1585 252.671 69.1585 251.007 67.4948C249.343 65.831 249.343 63.1335 251.007 61.4697L252.975 59.5015L251.006 57.5316ZM251.595 56.9426C250.256 55.6041 250.256 53.4341 251.595 52.0957C252.933 50.7573 255.103 50.7573 256.442 52.0957L259 54.6546L261.559 52.0958C262.898 50.7574 265.068 50.7574 266.406 52.0958C267.745 53.4343 267.745 55.6043 266.406 56.9427L263.847 59.5015L266.405 62.0587C267.743 63.3971 267.743 65.5671 266.405 66.9055C265.066 68.244 262.896 68.244 261.558 66.9055L259 64.3483L256.443 66.9057C255.105 68.2441 252.935 68.2441 251.596 66.9057C250.258 65.5672 250.258 63.3972 251.596 62.0588L254.154 59.5015L251.595 56.9426Z" fill="white"/>
<rect x="263.984" y="49.6719" width="6.85449" height="20.9443" rx="3.42724" transform="rotate(45 263.984 49.6719)" fill="#C8E2FE"/>
<rect x="248.583" y="54.5186" width="7.68759" height="21.7774" rx="3.84379" transform="rotate(-45 248.583 54.5186)" fill="#B4D8FE" stroke="white" stroke-width="0.833099"/>
<rect x="255.91" y="57.1607" width="7.68759" height="10.3532" rx="3.84379" transform="rotate(45 255.91 57.1607)" fill="#C8E2FE" stroke="white" stroke-width="0.833099"/>
<path opacity="0.5" d="M284.623 65.8362C284.213 65.8362 283.967 65.5784 283.967 65.1565V57.967C283.967 57.5452 284.213 57.2874 284.623 57.2874H287.137C288.777 57.2874 289.92 58.4182 289.92 60.0647C289.92 61.717 288.754 62.8538 287.096 62.8538H285.279V65.1565C285.279 65.5784 285.027 65.8362 284.623 65.8362ZM285.279 61.7522H286.785C287.928 61.7522 288.578 61.137 288.578 60.0706C288.578 59.0042 287.928 58.3948 286.791 58.3948H285.279V61.7522ZM293.169 65.8538C291.827 65.8538 291.007 64.9807 291.007 63.5686V60.1409C291.007 59.719 291.265 59.467 291.64 59.467C292.009 59.467 292.272 59.719 292.272 60.1409V63.3225C292.272 64.26 292.718 64.7639 293.591 64.7639C294.505 64.7639 295.056 64.1311 295.056 63.1702V60.1409C295.056 59.719 295.319 59.467 295.688 59.467C296.063 59.467 296.321 59.719 296.321 60.1409V65.2092C296.321 65.6018 296.081 65.8538 295.718 65.8538C295.354 65.8538 295.108 65.6018 295.108 65.2151V64.6995H295.079C294.739 65.4377 294.112 65.8538 293.169 65.8538ZM298.703 65.8538C298.316 65.8538 298.064 65.6135 298.064 65.1917V60.5803H297.625C297.326 60.5803 297.121 60.4045 297.121 60.0881C297.121 59.7834 297.326 59.5901 297.625 59.5901H298.064V58.9866C298.064 57.7913 298.644 57.2346 299.705 57.2288C300.379 57.2288 300.701 57.4456 300.701 57.7854C300.701 57.9905 300.601 58.1135 300.396 58.1721C300.308 58.1956 300.203 58.2131 300.074 58.2131C299.541 58.219 299.318 58.4709 299.318 59.0334V59.5901H300.15C300.449 59.5901 300.654 59.7834 300.654 60.0881C300.654 60.4045 300.449 60.5803 300.15 60.5803H299.336V65.1917C299.336 65.6135 299.084 65.8538 298.703 65.8538ZM302.69 65.8538C302.303 65.8538 302.051 65.6135 302.051 65.1917V60.5803H301.612C301.313 60.5803 301.108 60.4045 301.108 60.0881C301.108 59.7834 301.313 59.5901 301.612 59.5901H302.051V58.9866C302.051 57.7913 302.631 57.2346 303.692 57.2288C304.366 57.2288 304.688 57.4456 304.688 57.7854C304.688 57.9905 304.589 58.1135 304.383 58.1721C304.296 58.1956 304.19 58.2131 304.061 58.2131C303.528 58.219 303.305 58.4709 303.305 59.0334V59.5901H304.137C304.436 59.5901 304.641 59.7834 304.641 60.0881C304.641 60.4045 304.436 60.5803 304.137 60.5803H303.323V65.1917C303.323 65.6135 303.071 65.8538 302.69 65.8538ZM306.349 65.8538C305.98 65.8538 305.716 65.6018 305.716 65.1858V57.844C305.716 57.428 305.98 57.176 306.349 57.176C306.718 57.176 306.982 57.428 306.982 57.844V65.1858C306.982 65.6018 306.718 65.8538 306.349 65.8538ZM311.075 65.8596C309.217 65.8596 308.127 64.6819 308.127 62.6897C308.127 60.7327 309.241 59.467 310.987 59.467C312.627 59.467 313.758 60.6506 313.758 62.3323C313.758 62.7424 313.524 62.9768 313.131 62.9768H309.405V63.0061C309.405 64.1311 310.038 64.8342 311.045 64.8342C311.737 64.8342 312.17 64.594 312.639 63.9553C312.774 63.7971 312.903 63.7327 313.084 63.7327C313.389 63.7327 313.612 63.9319 313.612 64.2483C313.612 64.3479 313.577 64.4651 313.524 64.5881C313.12 65.3967 312.223 65.8596 311.075 65.8596ZM309.411 62.092H312.493C312.463 61.1252 311.86 60.4866 310.981 60.4866C310.108 60.4866 309.475 61.1311 309.411 62.092ZM317.136 65.8596C315.923 65.8596 315.032 65.3616 314.74 64.6057C314.699 64.512 314.687 64.4241 314.687 64.342C314.687 64.0256 314.915 63.8381 315.232 63.8381C315.443 63.8381 315.624 63.9377 315.782 64.1721C316.099 64.6702 316.468 64.8928 317.2 64.8928C317.921 64.8928 318.407 64.5823 318.407 64.0725C318.407 63.6682 318.167 63.4514 317.505 63.2932L316.532 63.0647C315.337 62.7834 314.751 62.1975 314.751 61.3186C314.751 60.2053 315.718 59.467 317.183 59.467C318.296 59.467 319.21 60.0354 319.386 60.762C319.398 60.8323 319.409 60.8909 319.409 60.9495C319.409 61.2307 319.234 61.4182 318.917 61.4182C318.712 61.4182 318.531 61.3479 318.407 61.1487C318.132 60.6799 317.757 60.4338 317.136 60.4338C316.456 60.4338 315.988 60.7678 315.988 61.2483C315.988 61.635 316.286 61.9045 316.937 62.0569L317.892 62.2795C319.187 62.5784 319.685 63.0413 319.685 63.9553C319.685 65.0979 318.659 65.8596 317.136 65.8596ZM323.057 65.8596C321.844 65.8596 320.953 65.3616 320.66 64.6057C320.619 64.512 320.608 64.4241 320.608 64.342C320.608 64.0256 320.836 63.8381 321.153 63.8381C321.363 63.8381 321.545 63.9377 321.703 64.1721C322.02 64.6702 322.389 64.8928 323.121 64.8928C323.842 64.8928 324.328 64.5823 324.328 64.0725C324.328 63.6682 324.088 63.4514 323.426 63.2932L322.453 63.0647C321.258 62.7834 320.672 62.1975 320.672 61.3186C320.672 60.2053 321.639 59.467 323.104 59.467C324.217 59.467 325.131 60.0354 325.307 60.762C325.319 60.8323 325.33 60.8909 325.33 60.9495C325.33 61.2307 325.154 61.4182 324.838 61.4182C324.633 61.4182 324.451 61.3479 324.328 61.1487C324.053 60.6799 323.678 60.4338 323.057 60.4338C322.377 60.4338 321.908 60.7678 321.908 61.2483C321.908 61.635 322.207 61.9045 322.858 62.0569L323.813 62.2795C325.108 62.5784 325.606 63.0413 325.606 63.9553C325.606 65.0979 324.58 65.8596 323.057 65.8596Z" fill="#030303"/>
</g>
<defs>
<filter id="filter0_f_4476_22631" x="247.356" y="48.4427" width="23.1982" height="22.7016" filterUnits="userSpaceOnUse" color-interpolation-filters="sRGB">
<feFlood flood-opacity="0" result="BackgroundImageFix"/>
<feBlend mode="normal" in="SourceGraphic" in2="BackgroundImageFix" result="shape"/>
<feGaussianBlur stdDeviation="0.907947" result="effect1_foregroundBlur_4476_22631"/>
</filter>
<clipPath id="clip0_4476_22631">
<rect width="351" height="134" fill="white"/>
</clipPath>
</defs>
</svg>
