<svg width="170" height="261" viewBox="0 0 170 261" fill="none" xmlns="http://www.w3.org/2000/svg">
<g clip-path="url(#clip0_4833_74701)">
<rect width="170" height="261" fill="#F6F6F6"/>
<path d="M106.911 266.506C105.355 266.327 104.236 264.959 104.415 263.403L109.846 216.292C108.966 215.778 105.637 214.043 100.19 213.415C86.4803 211.835 77.111 217.551 64.0682 216.047C58.288 215.381 56.2116 214.503 53.5407 212.919C51.1162 211.475 49.671 209.357 50.0639 205.948L54.3989 168.339C54.6295 166.338 56.4663 165.386 58.6153 165.633C60.4309 165.843 63.6607 167.792 70.0339 168.526C83.0762 170.03 92.4088 164.31 106.156 165.894C111.936 166.56 114.049 167.442 116.72 169.027C119.144 170.47 120.59 172.589 120.201 175.961L110.048 264.052C110.011 264.368 109.92 264.666 109.784 264.939C109.269 265.977 108.114 266.645 106.911 266.506ZM111.797 199.359L113.245 186.798C112.867 185.516 109.988 183.457 104.208 182.79C103.022 182.654 101.383 182.54 100.069 182.539L101.372 171.237C96.3101 171.18 91.7342 172.116 87.06 172.929L85.7574 184.231C81.0006 185.109 76.5654 185.799 71.5122 185.667L72.8148 174.366C71.6903 174.349 70.5743 174.258 69.389 174.121C65.35 173.656 62.0707 172.79 59.6693 171.8L58.3667 183.101C60.1596 183.833 63.6399 184.91 68.0864 185.423C69.2349 185.555 70.4291 185.618 71.5122 185.667L70.0644 198.228C68.977 198.216 67.935 198.133 66.6385 197.984C62.5995 197.518 59.3203 196.652 56.9189 195.662L55.676 206.444C56.0538 207.727 58.9329 209.786 64.7131 210.452C66.0472 210.606 67.3526 210.681 68.6294 210.678L70.0644 198.228C75.1304 198.249 79.3873 197.801 84.3095 196.792L82.913 208.908C87.3606 208.106 91.9522 207.359 97.1909 207.512L98.6217 195.1C100.047 195.114 101.019 195.151 102.76 195.351C108.54 196.018 111.419 198.077 111.797 199.359ZM98.6217 195.1C93.4443 195.066 89.4042 195.915 84.3095 196.792L85.7574 184.231C90.547 183.393 94.8593 182.464 100.069 182.539L98.6217 195.1Z" fill="url(#paint0_linear_4833_74701)"/>
</g>
<defs>
<linearGradient id="paint0_linear_4833_74701" x1="87.0019" y1="173.999" x2="72.002" y2="306.999" gradientUnits="userSpaceOnUse">
<stop stop-color="#8DC5FF"/>
<stop offset="1" stop-color="#C8E3FF"/>
</linearGradient>
<clipPath id="clip0_4833_74701">
<rect width="170" height="261" fill="white"/>
</clipPath>
</defs>
</svg>
