<svg width="24" height="24" viewBox="0 0 24 24" fill="none" xmlns="http://www.w3.org/2000/svg">
<path d="M12 20.4964C12.3303 20.4964 12.5825 20.2571 12.6418 19.9102C13.3896 14.0923 14.211 13.2636 19.888 12.6437C20.2496 12.6067 20.5 12.3359 20.5 12.0001C20.5 11.6644 20.2496 11.3936 19.888 11.3566C14.211 10.7367 13.3896 9.90794 12.6418 4.09003C12.5825 3.74316 12.3303 3.50391 12 3.50391C11.6828 3.50391 11.4194 3.74316 11.3582 4.09003C10.6104 9.90794 9.78902 10.7367 4.112 11.3566C3.75039 11.3936 3.5 11.6644 3.5 12.0001C3.5 12.3359 3.75039 12.601 4.112 12.6437C9.79433 13.3957 10.5676 14.1088 11.3582 19.9102C11.4194 20.2571 11.6828 20.4964 12 20.4964Z" fill="#75B8FD"/>
</svg>
