<svg width="28" height="28" viewBox="0 0 28 28" fill="none" xmlns="http://www.w3.org/2000/svg">
<path d="M23.6996 13.9997C23.6996 19.2942 19.3081 23.6952 14.0041 23.6952C8.70958 23.6952 4.30859 19.2942 4.30859 13.9997C4.30859 8.69568 8.70008 4.3042 13.9946 4.3042C19.2986 4.3042 23.6996 8.69568 23.6996 13.9997ZM16.6751 10.2546L14.0041 12.9066L11.3521 10.2641C11.2 10.1215 11.0289 10.0454 10.8103 10.0454C10.373 10.0454 10.0308 10.3781 10.0308 10.8249C10.0308 11.034 10.1069 11.2241 10.259 11.3762L12.8919 14.0092L10.259 16.6516C10.1069 16.7942 10.0308 16.9939 10.0308 17.203C10.0308 17.6403 10.373 17.9919 10.8103 17.9919C11.0289 17.9919 11.2285 17.9159 11.3806 17.7638L14.0041 15.1213L16.637 17.7638C16.7796 17.9159 16.9793 17.9919 17.1979 17.9919C17.6447 17.9919 17.9963 17.6403 17.9963 17.203C17.9963 16.9843 17.9203 16.7848 17.7587 16.6422L15.1257 14.0092L17.7682 11.3667C17.9393 11.1956 18.0059 11.0245 18.0059 10.8059C18.0059 10.3686 17.6541 10.0264 17.2169 10.0264C17.0078 10.0264 16.8367 10.093 16.6751 10.2546Z" fill="#FF7D7D"/>
</svg>
