<svg width="23" height="22" viewBox="0 0 23 22" fill="none" xmlns="http://www.w3.org/2000/svg">
<path d="M3.87777 10.5166C3.60552 10.5166 3.39453 10.7344 3.39453 10.9998C3.39453 11.2652 3.60552 11.4763 3.87777 11.4763H19.1306C19.4029 11.4763 19.607 11.2652 19.607 10.9998C19.607 10.7344 19.4029 10.5166 19.1306 10.5166H3.87777ZM11.9772 3.36999C11.9772 3.09774 11.7662 2.89355 11.5008 2.89355C11.2353 2.89355 11.0175 3.09774 11.0175 3.36999V18.6228C11.0175 18.8882 11.2353 19.106 11.5008 19.106C11.7662 19.106 11.9772 18.8882 11.9772 18.6228V3.36999ZM14.5908 4.81292C14.6861 4.56109 14.5636 4.28203 14.3322 4.18674C14.0736 4.09145 13.7945 4.20716 13.6924 4.43858L8.41074 17.1867C8.31545 17.4385 8.43796 17.7175 8.66938 17.8128C8.92801 17.9082 9.20026 17.7925 9.30916 17.5542L14.5908 4.81292ZM18.1981 4.98988C18.3683 4.80611 18.3683 4.50663 18.1845 4.31606C17.994 4.13229 17.6945 4.1391 17.5107 4.31606L4.80342 17.0029C4.62646 17.1935 4.63327 17.493 4.81704 17.6835C5.00761 17.8673 5.30709 17.8605 5.49085 17.6835L18.1981 4.98988ZM18.062 8.80138C18.2934 8.69929 18.4091 8.42703 18.307 8.18201C18.2185 7.93699 17.9395 7.82128 17.6876 7.91657L4.93955 13.1914C4.70814 13.2935 4.59243 13.5658 4.69452 13.8176C4.78301 14.0626 5.06206 14.1715 5.3139 14.0762L18.062 8.80138ZM17.6876 14.0899C17.9395 14.1851 18.2118 14.0626 18.3138 13.8176C18.4091 13.5658 18.3002 13.3003 18.0484 13.1982L5.3139 7.90976C5.06206 7.81448 4.78981 7.93699 4.68772 8.18201C4.59243 8.42703 4.70133 8.69248 4.95316 8.79458L17.6876 14.0899ZM17.5107 17.6904C17.6945 17.8673 17.994 17.8673 18.1845 17.6835C18.3683 17.493 18.3683 17.2071 18.1845 17.0165L5.49085 4.30245C5.30709 4.12549 5.00761 4.13229 4.81704 4.31606C4.63327 4.50663 4.63327 4.7925 4.81704 4.98308L17.5107 17.6904ZM13.6924 17.561C13.7945 17.7992 14.0803 17.9082 14.3185 17.8061C14.5636 17.7175 14.6725 17.4317 14.5772 17.1935L9.30916 4.43858C9.20026 4.20035 8.92121 4.09145 8.68299 4.19355C8.43796 4.28203 8.32226 4.55428 8.42435 4.80611L13.6924 17.561Z" fill="white"/>
</svg>
