<svg width="21" height="20" viewBox="0 0 21 20" fill="none" xmlns="http://www.w3.org/2000/svg">
<path d="M15.7162 7.87685C15.7162 7.37407 15.3212 6.98718 14.8684 6.98718C14.4099 6.98718 14.0317 7.38382 14.0317 7.84938V10.061L14.1648 13.0906L13.0311 11.7851L6.65811 5.41375C6.48282 5.24006 6.27051 5.14844 6.04614 5.14844C5.58517 5.14844 5.17578 5.57236 5.17578 6.02607C5.17578 6.2359 5.27467 6.45549 5.44836 6.63076L11.8124 13.0037L13.1106 14.1302L10.0593 14.0116H7.87673C7.41115 14.0116 7.02019 14.3914 7.02019 14.841C7.02019 15.2938 7.38369 15.6889 7.89535 15.6889H14.8088C15.3623 15.6889 15.7106 15.3188 15.7106 14.7815L15.7162 7.87685Z" fill="#030303" fill-opacity="0.22"/>
</svg>
