<svg width="351" height="134" viewBox="0 0 351 134" fill="none" xmlns="http://www.w3.org/2000/svg">
<g clip-path="url(#clip0_4495_36693)">
<rect width="351" height="134" fill="#E7E7E7"/>
<rect x="231" y="30" width="180" height="180" rx="17" fill="#DCDCDC"/>
<rect x="240" y="45" width="146" height="29" rx="8" fill="#CFCFCF"/>
<rect x="246" y="51.5" width="16" height="16" rx="3" fill="#AAAAAA"/>
<g clip-path="url(#clip1_4495_36693)">
<path d="M254 54.8555C251.438 54.8555 249.355 56.9378 249.355 59.5C249.355 62.0622 251.438 64.1445 254 64.1445C256.562 64.1445 258.645 62.0622 258.645 59.5C258.645 56.9378 256.562 54.8555 254 54.8555ZM254 63.3704C251.867 63.3704 250.13 61.6326 250.13 59.5C250.13 57.3674 251.867 55.6296 254 55.6296C256.133 55.6296 257.87 57.3674 257.87 59.5C257.87 61.6326 256.133 63.3704 254 63.3704ZM253.226 57.1777C253.226 56.752 253.574 56.4036 254 56.4036C254.426 56.4036 254.774 56.752 254.774 57.1777C254.774 57.6035 254.426 57.9518 254 57.9518C253.574 57.9518 253.226 57.6035 253.226 57.1777ZM254.774 58.9891V60.3554L255.517 62.0584L254.809 62.368L254.066 60.665H253.938L253.195 62.368L252.487 62.0584L253.23 60.3554V58.9891L251.538 58.3118L251.825 57.5919L253.69 58.3389H254.317L256.183 57.5919L256.469 58.3118L254.778 58.9891H254.774Z" fill="#D9D9D9"/>
</g>
<path opacity="0.5" d="M267.996 63.5938C267.604 63.5938 267.34 63.3535 267.34 62.9961C267.34 62.8965 267.363 62.7676 267.422 62.6094L269.994 55.6367C270.164 55.168 270.451 54.9512 270.914 54.9512C271.371 54.9512 271.652 55.1621 271.828 55.6309L274.406 62.6094C274.465 62.7734 274.488 62.8848 274.488 62.9961C274.488 63.3418 274.213 63.5938 273.832 63.5938C273.48 63.5938 273.287 63.4297 273.17 63.0547L272.525 61.2324H269.291L268.652 63.0488C268.529 63.4297 268.336 63.5938 267.996 63.5938ZM269.625 60.1602H272.191L270.92 56.4512H270.885L269.625 60.1602ZM278.048 63.6172C276.284 63.6172 275.136 62.3926 275.136 60.4297C275.136 58.4785 276.278 57.2246 278.036 57.2246C279.225 57.2246 280.245 57.8574 280.515 58.7188C280.55 58.8184 280.573 58.9238 280.573 59.0117C280.573 59.334 280.345 59.5332 280.034 59.5332C279.765 59.5332 279.612 59.4277 279.46 59.1465C279.143 58.5605 278.71 58.2793 278.059 58.2793C277.069 58.2793 276.425 59.1055 276.425 60.418C276.425 61.7598 277.081 62.5566 278.059 62.5566C278.745 62.5566 279.161 62.252 279.46 61.7188C279.636 61.4141 279.77 61.3086 280.046 61.3086C280.356 61.3086 280.585 61.5195 280.585 61.8359C280.585 61.9355 280.561 62.041 280.515 62.1641C280.192 63.0137 279.19 63.6172 278.048 63.6172ZM284.367 63.6172C282.603 63.6172 281.455 62.3926 281.455 60.4297C281.455 58.4785 282.597 57.2246 284.355 57.2246C285.545 57.2246 286.564 57.8574 286.834 58.7188C286.869 58.8184 286.892 58.9238 286.892 59.0117C286.892 59.334 286.664 59.5332 286.353 59.5332C286.084 59.5332 285.931 59.4277 285.779 59.1465C285.463 58.5605 285.029 58.2793 284.379 58.2793C283.388 58.2793 282.744 59.1055 282.744 60.418C282.744 61.7598 283.4 62.5566 284.379 62.5566C285.064 62.5566 285.48 62.252 285.779 61.7188C285.955 61.4141 286.09 61.3086 286.365 61.3086C286.676 61.3086 286.904 61.5195 286.904 61.8359C286.904 61.9355 286.881 62.041 286.834 62.1641C286.511 63.0137 285.51 63.6172 284.367 63.6172ZM290.721 63.6172C288.864 63.6172 287.774 62.4395 287.774 60.4473C287.774 58.4902 288.887 57.2246 290.633 57.2246C292.274 57.2246 293.405 58.4082 293.405 60.0898C293.405 60.5 293.171 60.7344 292.778 60.7344H289.051V60.7637C289.051 61.8887 289.684 62.5918 290.692 62.5918C291.383 62.5918 291.817 62.3516 292.286 61.7129C292.421 61.5547 292.549 61.4902 292.731 61.4902C293.036 61.4902 293.258 61.6895 293.258 62.0059C293.258 62.1055 293.223 62.2227 293.171 62.3457C292.766 63.1543 291.87 63.6172 290.721 63.6172ZM289.057 59.8496H292.139C292.11 58.8828 291.506 58.2441 290.628 58.2441C289.755 58.2441 289.122 58.8887 289.057 59.8496ZM296.783 63.6172C295.57 63.6172 294.679 63.1191 294.386 62.3633C294.345 62.2695 294.334 62.1816 294.334 62.0996C294.334 61.7832 294.562 61.5957 294.878 61.5957C295.089 61.5957 295.271 61.6953 295.429 61.9297C295.746 62.4277 296.115 62.6504 296.847 62.6504C297.568 62.6504 298.054 62.3398 298.054 61.8301C298.054 61.4258 297.814 61.209 297.152 61.0508L296.179 60.8223C294.984 60.541 294.398 59.9551 294.398 59.0762C294.398 57.9629 295.365 57.2246 296.83 57.2246C297.943 57.2246 298.857 57.793 299.033 58.5195C299.044 58.5898 299.056 58.6484 299.056 58.707C299.056 58.9883 298.88 59.1758 298.564 59.1758C298.359 59.1758 298.177 59.1055 298.054 58.9062C297.779 58.4375 297.404 58.1914 296.783 58.1914C296.103 58.1914 295.634 58.5254 295.634 59.0059C295.634 59.3926 295.933 59.6621 296.584 59.8145L297.539 60.0371C298.834 60.3359 299.332 60.7988 299.332 61.7129C299.332 62.8555 298.306 63.6172 296.783 63.6172ZM302.704 63.6172C301.491 63.6172 300.6 63.1191 300.307 62.3633C300.266 62.2695 300.254 62.1816 300.254 62.0996C300.254 61.7832 300.483 61.5957 300.799 61.5957C301.01 61.5957 301.192 61.6953 301.35 61.9297C301.666 62.4277 302.036 62.6504 302.768 62.6504C303.489 62.6504 303.975 62.3398 303.975 61.8301C303.975 61.4258 303.735 61.209 303.073 61.0508L302.1 60.8223C300.905 60.541 300.319 59.9551 300.319 59.0762C300.319 57.9629 301.286 57.2246 302.75 57.2246C303.864 57.2246 304.778 57.793 304.954 58.5195C304.965 58.5898 304.977 58.6484 304.977 58.707C304.977 58.9883 304.801 59.1758 304.485 59.1758C304.28 59.1758 304.098 59.1055 303.975 58.9062C303.7 58.4375 303.325 58.1914 302.704 58.1914C302.024 58.1914 301.555 58.5254 301.555 59.0059C301.555 59.3926 301.854 59.6621 302.504 59.8145L303.459 60.0371C304.754 60.3359 305.252 60.7988 305.252 61.7129C305.252 62.8555 304.227 63.6172 302.704 63.6172ZM307.025 56.4043C306.62 56.4043 306.292 56.0762 306.292 55.6777C306.292 55.2734 306.62 54.957 307.025 54.957C307.435 54.957 307.763 55.2734 307.763 55.6777C307.763 56.0762 307.435 56.4043 307.025 56.4043ZM307.025 63.6113C306.644 63.6113 306.392 63.3477 306.392 62.9434V57.8984C306.392 57.4883 306.644 57.2246 307.025 57.2246C307.406 57.2246 307.658 57.4883 307.658 57.8984V62.9434C307.658 63.3477 307.406 63.6113 307.025 63.6113ZM309.723 63.6113C309.36 63.6113 309.119 63.377 309.119 62.9785V55.6016C309.119 55.1855 309.383 54.9336 309.752 54.9336C310.121 54.9336 310.385 55.1855 310.385 55.6016V58.3848H310.414C310.783 57.6699 311.492 57.2363 312.365 57.2363C313.918 57.2363 314.932 58.4668 314.932 60.418C314.932 62.375 313.924 63.6055 312.354 63.6055C311.457 63.6055 310.754 63.166 310.373 62.4512H310.35V62.9785C310.35 63.377 310.092 63.6113 309.723 63.6113ZM312.014 62.5332C313.016 62.5332 313.631 61.7246 313.631 60.418C313.631 59.123 313.01 58.3027 312.014 58.3027C311.059 58.3027 310.379 59.1465 310.379 60.418C310.379 61.7012 311.059 62.5332 312.014 62.5332ZM316.71 56.4043C316.306 56.4043 315.978 56.0762 315.978 55.6777C315.978 55.2734 316.306 54.957 316.71 54.957C317.12 54.957 317.448 55.2734 317.448 55.6777C317.448 56.0762 317.12 56.4043 316.71 56.4043ZM316.71 63.6113C316.329 63.6113 316.077 63.3477 316.077 62.9434V57.8984C316.077 57.4883 316.329 57.2246 316.71 57.2246C317.091 57.2246 317.343 57.4883 317.343 57.8984V62.9434C317.343 63.3477 317.091 63.6113 316.71 63.6113ZM319.437 63.6113C319.068 63.6113 318.805 63.3594 318.805 62.9434V55.6016C318.805 55.1855 319.068 54.9336 319.437 54.9336C319.807 54.9336 320.07 55.1855 320.07 55.6016V62.9434C320.07 63.3594 319.807 63.6113 319.437 63.6113ZM322.165 56.4043C321.761 56.4043 321.432 56.0762 321.432 55.6777C321.432 55.2734 321.761 54.957 322.165 54.957C322.575 54.957 322.903 55.2734 322.903 55.6777C322.903 56.0762 322.575 56.4043 322.165 56.4043ZM322.165 63.6113C321.784 63.6113 321.532 63.3477 321.532 62.9434V57.8984C321.532 57.4883 321.784 57.2246 322.165 57.2246C322.546 57.2246 322.798 57.4883 322.798 57.8984V62.9434C322.798 63.3477 322.546 63.6113 322.165 63.6113ZM324.582 62.0234V58.3379H324.136C323.808 58.3379 323.609 58.1504 323.609 57.8398C323.609 57.5234 323.808 57.3359 324.136 57.3359H324.582V56.4219C324.582 56.0176 324.834 55.748 325.22 55.748C325.601 55.748 325.853 56.0176 325.853 56.4219V57.3359H326.574C326.902 57.3359 327.101 57.5293 327.101 57.8398C327.101 58.1504 326.902 58.3379 326.574 58.3379H325.853V61.7422C325.853 62.2344 326.023 62.457 326.48 62.4922L326.58 62.498C326.943 62.5332 327.125 62.6797 327.125 62.9785C327.125 63.3594 326.832 63.5527 326.211 63.5527H326.146C325.109 63.5527 324.582 63.043 324.582 62.0234ZM328.95 65.7969C328.364 65.7969 328.042 65.5801 328.042 65.1875C328.042 64.918 328.229 64.7422 328.534 64.7422C328.669 64.7422 328.715 64.748 328.862 64.748C329.213 64.748 329.571 64.5547 329.799 63.9219L329.917 63.5645L327.854 58.168C327.807 58.0391 327.784 57.9102 327.784 57.8105C327.784 57.4648 328.059 57.2246 328.428 57.2246C328.745 57.2246 328.926 57.3594 329.038 57.7109L330.608 62.3516H330.626L332.202 57.7109C332.307 57.3652 332.483 57.2246 332.805 57.2246C333.169 57.2246 333.42 57.4648 333.42 57.8047C333.42 57.9043 333.397 58.0332 333.356 58.1562L331.217 63.8105C330.672 65.293 330.092 65.7969 328.95 65.7969Z" fill="#030303"/>
</g>
<defs>
<clipPath id="clip0_4495_36693">
<rect width="351" height="134" fill="white"/>
</clipPath>
<clipPath id="clip1_4495_36693">
<rect width="9.28906" height="9.28906" fill="white" transform="translate(249.355 54.8555)"/>
</clipPath>
</defs>
</svg>
