<svg width="352" height="134" viewBox="0 0 352 134" fill="none" xmlns="http://www.w3.org/2000/svg">
<g clip-path="url(#clip0_4230_32883)">
<rect width="351" height="134" transform="translate(0.5)" fill="#E7E7E7"/>
<g clip-path="url(#clip1_4230_32883)">
<rect x="231.5" y="30" width="180" height="180" rx="17" fill="#DCDCDC"/>
<rect x="240.5" y="45" width="146" height="29" rx="8" fill="#CFCFCF"/>
<g opacity="0.5">
<path d="M249.344 58.5051C249.344 60.8254 251.232 62.7133 253.552 62.7133C254.47 62.7133 255.308 62.418 255.999 61.9223L258.593 64.522C258.715 64.6434 258.873 64.7014 259.042 64.7014C259.4 64.7014 259.648 64.4324 259.648 64.0791C259.648 63.9103 259.585 63.7574 259.474 63.6467L256.895 61.0522C257.438 60.3455 257.76 59.4648 257.76 58.5051C257.76 56.1848 255.872 54.2969 253.552 54.2969C251.232 54.2969 249.344 56.1848 249.344 58.5051ZM250.246 58.5051C250.246 56.6805 251.727 55.1986 253.552 55.1986C255.377 55.1986 256.858 56.6805 256.858 58.5051C256.858 60.3297 255.377 61.8115 253.552 61.8115C251.727 61.8115 250.246 60.3297 250.246 58.5051Z" fill="#030303"/>
</g>
<path opacity="0.5" d="M267.936 63.5938C267.525 63.5938 267.279 63.3359 267.279 62.9141V55.7246C267.279 55.3027 267.525 55.0449 267.936 55.0449H270.449C272.09 55.0449 273.232 56.1758 273.232 57.8223C273.232 59.4746 272.066 60.6113 270.408 60.6113H268.592V62.9141C268.592 63.3359 268.34 63.5938 267.936 63.5938ZM268.592 59.5098H270.098C271.24 59.5098 271.891 58.8945 271.891 57.8281C271.891 56.7617 271.24 56.1523 270.104 56.1523H268.592V59.5098ZM276.481 63.6113C275.14 63.6113 274.319 62.7383 274.319 61.3262V57.8984C274.319 57.4766 274.577 57.2246 274.952 57.2246C275.321 57.2246 275.585 57.4766 275.585 57.8984V61.0801C275.585 62.0176 276.03 62.5215 276.903 62.5215C277.817 62.5215 278.368 61.8887 278.368 60.9277V57.8984C278.368 57.4766 278.632 57.2246 279.001 57.2246C279.376 57.2246 279.634 57.4766 279.634 57.8984V62.9668C279.634 63.3594 279.393 63.6113 279.03 63.6113C278.667 63.6113 278.421 63.3594 278.421 62.9727V62.457H278.391C278.052 63.1953 277.425 63.6113 276.481 63.6113ZM282.015 63.6113C281.629 63.6113 281.377 63.3711 281.377 62.9492V58.3379H280.937C280.638 58.3379 280.433 58.1621 280.433 57.8457C280.433 57.541 280.638 57.3477 280.937 57.3477H281.377V56.7441C281.377 55.5488 281.957 54.9922 283.017 54.9863C283.691 54.9863 284.013 55.2031 284.013 55.543C284.013 55.748 283.914 55.8711 283.709 55.9297C283.621 55.9531 283.515 55.9707 283.386 55.9707C282.853 55.9766 282.631 56.2285 282.631 56.791V57.3477H283.463C283.761 57.3477 283.967 57.541 283.967 57.8457C283.967 58.1621 283.761 58.3379 283.463 58.3379H282.648V62.9492C282.648 63.3711 282.396 63.6113 282.015 63.6113ZM286.003 63.6113C285.616 63.6113 285.364 63.3711 285.364 62.9492V58.3379H284.924C284.626 58.3379 284.421 58.1621 284.421 57.8457C284.421 57.541 284.626 57.3477 284.924 57.3477H285.364V56.7441C285.364 55.5488 285.944 54.9922 287.005 54.9863C287.678 54.9863 288.001 55.2031 288.001 55.543C288.001 55.748 287.901 55.8711 287.696 55.9297C287.608 55.9531 287.503 55.9707 287.374 55.9707C286.84 55.9766 286.618 56.2285 286.618 56.791V57.3477H287.45C287.749 57.3477 287.954 57.541 287.954 57.8457C287.954 58.1621 287.749 58.3379 287.45 58.3379H286.635V62.9492C286.635 63.3711 286.383 63.6113 286.003 63.6113ZM289.662 63.6113C289.292 63.6113 289.029 63.3594 289.029 62.9434V55.6016C289.029 55.1855 289.292 54.9336 289.662 54.9336C290.031 54.9336 290.294 55.1855 290.294 55.6016V62.9434C290.294 63.3594 290.031 63.6113 289.662 63.6113ZM294.387 63.6172C292.53 63.6172 291.44 62.4395 291.44 60.4473C291.44 58.4902 292.553 57.2246 294.299 57.2246C295.94 57.2246 297.071 58.4082 297.071 60.0898C297.071 60.5 296.836 60.7344 296.444 60.7344H292.717V60.7637C292.717 61.8887 293.35 62.5918 294.358 62.5918C295.049 62.5918 295.483 62.3516 295.952 61.7129C296.086 61.5547 296.215 61.4902 296.397 61.4902C296.702 61.4902 296.924 61.6895 296.924 62.0059C296.924 62.1055 296.889 62.2227 296.836 62.3457C296.432 63.1543 295.536 63.6172 294.387 63.6172ZM292.723 59.8496H295.805C295.776 58.8828 295.172 58.2441 294.293 58.2441C293.42 58.2441 292.788 58.8887 292.723 59.8496ZM300.449 63.6172C299.236 63.6172 298.345 63.1191 298.052 62.3633C298.011 62.2695 297.999 62.1816 297.999 62.0996C297.999 61.7832 298.228 61.5957 298.544 61.5957C298.755 61.5957 298.937 61.6953 299.095 61.9297C299.411 62.4277 299.781 62.6504 300.513 62.6504C301.234 62.6504 301.72 62.3398 301.72 61.8301C301.72 61.4258 301.48 61.209 300.818 61.0508L299.845 60.8223C298.65 60.541 298.064 59.9551 298.064 59.0762C298.064 57.9629 299.031 57.2246 300.495 57.2246C301.609 57.2246 302.523 57.793 302.699 58.5195C302.71 58.5898 302.722 58.6484 302.722 58.707C302.722 58.9883 302.546 59.1758 302.23 59.1758C302.025 59.1758 301.843 59.1055 301.72 58.9062C301.445 58.4375 301.07 58.1914 300.449 58.1914C299.769 58.1914 299.3 58.5254 299.3 59.0059C299.3 59.3926 299.599 59.6621 300.249 59.8145L301.204 60.0371C302.499 60.3359 302.997 60.7988 302.997 61.7129C302.997 62.8555 301.972 63.6172 300.449 63.6172ZM306.369 63.6172C305.156 63.6172 304.266 63.1191 303.973 62.3633C303.932 62.2695 303.92 62.1816 303.92 62.0996C303.92 61.7832 304.149 61.5957 304.465 61.5957C304.676 61.5957 304.858 61.6953 305.016 61.9297C305.332 62.4277 305.701 62.6504 306.434 62.6504C307.154 62.6504 307.641 62.3398 307.641 61.8301C307.641 61.4258 307.401 61.209 306.738 61.0508L305.766 60.8223C304.57 60.541 303.985 59.9551 303.985 59.0762C303.985 57.9629 304.951 57.2246 306.416 57.2246C307.529 57.2246 308.444 57.793 308.619 58.5195C308.631 58.5898 308.643 58.6484 308.643 58.707C308.643 58.9883 308.467 59.1758 308.151 59.1758C307.945 59.1758 307.764 59.1055 307.641 58.9062C307.365 58.4375 306.99 58.1914 306.369 58.1914C305.69 58.1914 305.221 58.5254 305.221 59.0059C305.221 59.3926 305.52 59.6621 306.17 59.8145L307.125 60.0371C308.42 60.3359 308.918 60.7988 308.918 61.7129C308.918 62.8555 307.893 63.6172 306.369 63.6172Z" fill="#030303"/>
<rect x="281.5" y="93.5" width="146" height="12" rx="6" fill="#CFCFCF"/>
<rect x="240.5" y="83" width="33" height="33" rx="7.34766" fill="#B5D9FF"/>
<g opacity="0.7" filter="url(#filter0_f_4230_32883)">
<path fill-rule="evenodd" clip-rule="evenodd" d="M249.002 97.5314C247.338 95.8676 247.338 93.1701 249.002 91.5064C250.665 89.8426 253.363 89.8426 255.027 91.5064L256.997 93.4762L258.966 91.5065C260.63 89.8427 263.328 89.8427 264.991 91.5065C266.655 93.1703 266.655 95.8678 264.991 97.5315L263.022 99.5012L264.99 101.469C266.654 103.133 266.654 105.831 264.99 107.494C263.326 109.158 260.628 109.158 258.965 107.494L256.997 105.526L255.028 107.495C253.365 109.158 250.667 109.158 249.003 107.495C247.339 105.831 247.339 103.133 249.003 101.469L250.972 99.5012L249.002 97.5314ZM249.591 96.9423C248.252 95.6039 248.252 93.4339 249.591 92.0955C250.929 90.757 253.099 90.757 254.438 92.0955L256.997 94.6544L259.555 92.0956C260.894 90.7572 263.064 90.7572 264.402 92.0956C265.741 93.434 265.741 95.604 264.402 96.9424L261.843 99.5012L264.401 102.058C265.739 103.397 265.739 105.567 264.401 106.905C263.062 108.244 260.892 108.244 259.554 106.905L256.997 104.348L254.439 106.905C253.101 108.244 250.931 108.244 249.592 106.905C248.254 105.567 248.254 103.397 249.592 102.059L252.15 99.5012L249.591 96.9423Z" fill="white"/>
<rect x="262.48" y="90.1716" width="6.85449" height="20.9443" rx="3.42724" transform="rotate(45 262.48 90.1716)" fill="white" fill-opacity="0.28"/>
<rect x="247.079" y="95.0183" width="7.68759" height="21.7774" rx="3.84379" transform="rotate(-45 247.079 95.0183)" fill="#ABCFF8" stroke="white" stroke-width="0.833099"/>
<rect x="253.906" y="97.1607" width="7.68759" height="10.3532" rx="3.84379" transform="rotate(45 253.906 97.1607)" fill="#D9E9FC" stroke="white" stroke-width="0.833099"/>
</g>
<path fill-rule="evenodd" clip-rule="evenodd" d="M249.006 97.5316C247.342 95.8679 247.342 93.1704 249.006 91.5066C250.669 89.8428 253.367 89.8428 255.031 91.5066L257 93.4764L258.97 91.5067C260.634 89.843 263.331 89.843 264.995 91.5067C266.659 93.1705 266.659 95.868 264.995 97.5318L263.026 99.5015L264.994 101.47C266.657 103.133 266.657 105.831 264.994 107.495C263.33 109.158 260.632 109.158 258.969 107.495L257 105.526L255.032 107.495C253.368 109.159 250.671 109.159 249.007 107.495C247.343 105.831 247.343 103.133 249.007 101.47L250.975 99.5015L249.006 97.5316ZM249.595 96.9426C248.256 95.6041 248.256 93.4341 249.595 92.0957C250.933 90.7573 253.103 90.7573 254.442 92.0957L257 94.6546L259.559 92.0958C260.898 90.7574 263.068 90.7574 264.406 92.0958C265.745 93.4343 265.745 95.6043 264.406 96.9427L261.847 99.5015L264.405 102.059C265.743 103.397 265.743 105.567 264.405 106.906C263.066 108.244 260.896 108.244 259.558 106.906L257 104.348L254.443 106.906C253.105 108.244 250.935 108.244 249.596 106.906C248.258 105.567 248.258 103.397 249.596 102.059L252.154 99.5015L249.595 96.9426Z" fill="white"/>
<rect x="261.984" y="89.6719" width="6.85449" height="20.9443" rx="3.42724" transform="rotate(45 261.984 89.6719)" fill="#C8E2FE"/>
<rect x="246.583" y="94.5186" width="7.68759" height="21.7774" rx="3.84379" transform="rotate(-45 246.583 94.5186)" fill="#B4D8FE" stroke="white" stroke-width="0.833099"/>
<rect x="253.91" y="97.1607" width="7.68759" height="10.3532" rx="3.84379" transform="rotate(45 253.91 97.1607)" fill="#C8E2FE" stroke="white" stroke-width="0.833099"/>
</g>
</g>
<defs>
<filter id="filter0_f_4230_32883" x="245.356" y="88.4427" width="23.1982" height="22.7016" filterUnits="userSpaceOnUse" color-interpolation-filters="sRGB">
<feFlood flood-opacity="0" result="BackgroundImageFix"/>
<feBlend mode="normal" in="SourceGraphic" in2="BackgroundImageFix" result="shape"/>
<feGaussianBlur stdDeviation="0.907947" result="effect1_foregroundBlur_4230_32883"/>
</filter>
<clipPath id="clip0_4230_32883">
<rect width="351" height="134" fill="white" transform="translate(0.5)"/>
</clipPath>
<clipPath id="clip1_4230_32883">
<rect x="231.5" y="30" width="180" height="180" rx="17" fill="white"/>
</clipPath>
</defs>
</svg>
