<svg width="65" height="64" viewBox="0 0 65 64" fill="none" xmlns="http://www.w3.org/2000/svg">
<g clip-path="url(#clip0_1703_18416)">
<path opacity="0.5" d="M21.2588 11.829V13.7093C21.2588 14.0436 21.2797 14.3779 21.3423 14.6704H20.8618C18.8979 14.6704 17.895 15.9449 17.895 17.9088V49.4989C17.895 51.588 19.0232 52.7371 21.1961 52.7371H43.0291C45.2019 52.7371 46.3093 51.588 46.3093 49.4989V34.9783L49.6731 31.6145V49.5406C49.6731 53.9281 47.521 56.1009 43.1962 56.1009H21.008C16.7041 56.1009 14.5312 53.9281 14.5312 49.5406V17.867C14.5312 13.584 16.6206 11.3066 20.7782 11.3066H21.2796C21.2588 11.4738 21.2588 11.6618 21.2588 11.829ZM49.6699 17.7648L46.3093 21.122V17.9088C46.3093 15.9449 45.3273 14.6704 43.3635 14.6704H42.862C42.9247 14.3779 42.9456 14.0436 42.9456 13.7093V11.829C42.9456 11.6618 42.9456 11.4738 42.9247 11.3066H43.4262C47.5704 11.3066 49.6391 13.5468 49.6699 17.7648ZM36.6358 9.76057H38.5581C39.7906 9.76057 40.5219 10.5336 40.5219 11.829V14.0227C40.5219 15.3181 39.7906 16.0911 38.5581 16.0911H25.6671C24.4345 16.0911 23.7032 15.3181 23.7032 14.0227V11.829C23.7032 10.5336 24.4345 9.76057 25.6671 9.76057H27.5685C27.7146 7.39968 29.6786 5.47754 32.1022 5.47754C34.5257 5.47754 36.4897 7.39968 36.6358 9.76057ZM30.2845 9.92772C30.2845 10.9097 31.0992 11.7454 32.1022 11.7454C33.1259 11.7454 33.9198 10.9097 33.9198 9.92772C33.9198 8.90396 33.1259 8.08914 32.1022 8.08914C31.0992 8.08914 30.2845 8.90396 30.2845 9.92772Z" fill="#75B8FD"/>
<path d="M27.1108 41.6848C27.1108 42.3953 26.5049 42.9802 25.7946 42.9802H22.8905C22.1801 42.9802 21.5742 42.3953 21.5742 41.6848C21.5742 40.9745 22.1592 40.3896 22.8905 40.3896H25.7946C26.5258 40.3896 27.1108 40.9745 27.1108 41.6848ZM32.2531 35.1664H22.8905C22.1592 35.1664 21.5742 34.5812 21.5742 33.85C21.5742 33.1397 22.1592 32.5755 22.8905 32.5755H34.8465L32.2531 35.1664ZM42.0618 25.3675L39.6776 27.7494H22.8905C22.1801 27.7494 21.5742 27.1643 21.5742 26.454C21.5742 25.7436 22.1801 25.1377 22.8905 25.1377H41.3389C41.6056 25.1377 41.8547 25.2231 42.0618 25.3675Z" fill="#75B8FD"/>
<path d="M53.9338 23.3411L55.5007 21.7532C56.2529 21.0011 56.2529 19.9773 55.5217 19.2461L55.0202 18.7446C54.3516 18.0761 53.3069 18.1596 52.5966 18.8491L51.0297 20.4161L53.9338 23.3411ZM30.5128 44.3802L34.775 42.4789L52.3876 24.908L49.4418 22.0039L31.8709 39.5748L29.8652 43.6906C29.6772 44.0667 30.1159 44.5473 30.5128 44.3802Z" fill="#75B8FD"/>
</g>
<defs>
<clipPath id="clip0_1703_18416">
<rect width="52.8642" height="53.0469" fill="white" transform="translate(6.06641 5.47754)"/>
</clipPath>
</defs>
</svg>
