<svg width="22" height="22" viewBox="0 0 22 22" fill="none" xmlns="http://www.w3.org/2000/svg">
<path d="M10.0489 12.551C8.98346 13.4774 8.38353 14.6612 8.38353 15.7236C8.38353 16.028 8.44511 16.3216 8.59204 16.5768H3.6952C2.88709 16.5768 2.56641 16.256 2.56641 15.6723C2.56641 13.9019 4.37504 11.7659 7.26757 11.7659C8.36385 11.7659 9.30441 12.0728 10.0489 12.551ZM9.50591 8.315C9.50591 9.70692 8.46691 10.7845 7.27398 10.7845C6.07464 10.7845 5.03564 9.70692 5.03564 8.32783C5.03564 6.95515 6.08105 5.91602 7.27398 5.91602C8.4605 5.91602 9.50591 6.92949 9.50591 8.315Z" fill="white"/>
<path d="M14.6581 10.6353C16.037 10.6353 17.2235 9.40377 17.2235 7.80018C17.2235 6.21583 16.0306 5.04199 14.6581 5.04199C13.2856 5.04199 12.0927 6.24148 12.0927 7.81301C12.0927 9.40377 13.2792 10.6353 14.6581 10.6353ZM10.6239 16.5751H18.6858C19.6927 16.5751 20.0519 16.2864 20.0519 15.7219C20.0519 14.067 17.9803 11.7835 14.6516 11.7835C11.3294 11.7835 9.25781 14.067 9.25781 15.7219C9.25781 16.2864 9.61699 16.5751 10.6239 16.5751Z" fill="white"/>
</svg>
