<svg width="68" height="69" viewBox="0 0 68 69" fill="none" xmlns="http://www.w3.org/2000/svg">
<path d="M55 34.3867C55 45.8543 45.4883 55.3867 34 55.3867C22.5323 55.3867 13 45.8543 13 34.3867C13 22.8985 22.5118 13.3867 33.9794 13.3867C45.4676 13.3867 55 22.8985 55 34.3867ZM40.4028 26.2132L31.6117 40.3367L27.4323 34.9426C26.9176 34.2632 26.4647 34.0779 25.8676 34.0779C24.9412 34.0779 24.2206 34.8397 24.2206 35.766C24.2206 36.2395 24.4059 36.6926 24.7147 37.1043L29.8823 43.4455C30.4176 44.1661 30.9941 44.4543 31.6941 44.4543C32.3941 44.4543 32.9911 44.125 33.4235 43.4455L43.0999 28.2102C43.347 27.7779 43.6147 27.3043 43.6147 26.8514C43.6147 25.8838 42.7706 25.2661 41.8647 25.2661C41.3294 25.2661 40.7941 25.5955 40.4028 26.2132Z" fill="#75B8FD"/>
</svg>
