<svg width="351" height="134" viewBox="0 0 351 134" fill="none" xmlns="http://www.w3.org/2000/svg">
<g clip-path="url(#clip0_4495_36607)">
<rect width="351" height="134" fill="#E7E7E7"/>
<rect x="231" y="30" width="180" height="180" rx="17" fill="#DCDCDC"/>
<rect x="240" y="45" width="146" height="29" rx="8" fill="#CFCFCF"/>
<rect x="246" y="51.5" width="16" height="16" rx="3" fill="#AAAAAA"/>
<path d="M250.785 58.6847C250.599 58.7602 250.564 58.8888 250.564 59.5004V60.0729H249.279H247.993L247.855 60.2115C247.631 60.4359 247.681 60.7578 247.962 60.8987C248.087 60.9619 248.244 60.97 249.334 60.9701L250.564 60.9701V61.5452V62.1203L250.702 62.259C250.845 62.4017 250.965 62.4296 251.141 62.3609C251.237 62.3236 251.598 62.0165 252.523 61.1881C253.19 60.5903 253.217 60.4922 252.815 60.11C252.407 59.7221 251.291 58.7601 251.184 58.7041C251.061 58.6397 250.913 58.6326 250.785 58.6847Z" fill="#D9D9D9"/>
<path d="M255.165 64.6207L255.038 64.4765V63.749V63.0215L254.831 63.0015C254.668 62.9858 254.597 62.9542 254.496 62.8528L254.367 62.7241V60.666V58.6079L254.496 58.4791C254.597 58.3777 254.668 58.3461 254.831 58.3304L255.038 58.3105V57.8927C255.038 56.2602 255.776 55.016 257.031 54.5306C257.601 54.3102 257.858 54.2736 258.974 54.2536L260.001 54.2351L260.143 54.3774C260.304 54.5386 260.329 54.7078 260.218 54.878C260.086 55.0796 259.989 55.0988 259.097 55.0988C257.95 55.0988 257.481 55.1981 256.951 55.5532C256.634 55.7653 256.375 56.0657 256.201 56.4232C255.902 57.0341 255.919 56.7956 255.894 60.8291C255.877 63.6366 255.86 64.4793 255.821 64.5487C255.742 64.6867 255.604 64.7649 255.44 64.7649C255.32 64.7649 255.266 64.7366 255.165 64.6207Z" fill="#D9D9D9"/>
<path opacity="0.5" d="M267.996 63.5938C267.604 63.5938 267.34 63.3535 267.34 62.9961C267.34 62.8965 267.363 62.7676 267.422 62.6094L269.994 55.6367C270.164 55.168 270.451 54.9512 270.914 54.9512C271.371 54.9512 271.652 55.1621 271.828 55.6309L274.406 62.6094C274.465 62.7734 274.488 62.8848 274.488 62.9961C274.488 63.3418 274.213 63.5938 273.832 63.5938C273.48 63.5938 273.287 63.4297 273.17 63.0547L272.525 61.2324H269.291L268.652 63.0488C268.529 63.4297 268.336 63.5938 267.996 63.5938ZM269.625 60.1602H272.191L270.92 56.4512H270.885L269.625 60.1602ZM278.048 63.6172C276.284 63.6172 275.136 62.3926 275.136 60.4297C275.136 58.4785 276.278 57.2246 278.036 57.2246C279.225 57.2246 280.245 57.8574 280.515 58.7188C280.55 58.8184 280.573 58.9238 280.573 59.0117C280.573 59.334 280.345 59.5332 280.034 59.5332C279.765 59.5332 279.612 59.4277 279.46 59.1465C279.143 58.5605 278.71 58.2793 278.059 58.2793C277.069 58.2793 276.425 59.1055 276.425 60.418C276.425 61.7598 277.081 62.5566 278.059 62.5566C278.745 62.5566 279.161 62.252 279.46 61.7188C279.636 61.4141 279.77 61.3086 280.046 61.3086C280.356 61.3086 280.585 61.5195 280.585 61.8359C280.585 61.9355 280.561 62.041 280.515 62.1641C280.192 63.0137 279.19 63.6172 278.048 63.6172ZM282.099 62.0234V58.3379H281.654C281.326 58.3379 281.127 58.1504 281.127 57.8398C281.127 57.5234 281.326 57.3359 281.654 57.3359H282.099V56.4219C282.099 56.0176 282.351 55.748 282.738 55.748C283.119 55.748 283.371 56.0176 283.371 56.4219V57.3359H284.092C284.42 57.3359 284.619 57.5293 284.619 57.8398C284.619 58.1504 284.42 58.3379 284.092 58.3379H283.371V61.7422C283.371 62.2344 283.541 62.457 283.998 62.4922L284.097 62.498C284.461 62.5332 284.642 62.6797 284.642 62.9785C284.642 63.3594 284.349 63.5527 283.728 63.5527H283.664C282.627 63.5527 282.099 63.043 282.099 62.0234ZM286.38 56.4043C285.975 56.4043 285.647 56.0762 285.647 55.6777C285.647 55.2734 285.975 54.957 286.38 54.957C286.79 54.957 287.118 55.2734 287.118 55.6777C287.118 56.0762 286.79 56.4043 286.38 56.4043ZM286.38 63.6113C285.999 63.6113 285.747 63.3477 285.747 62.9434V57.8984C285.747 57.4883 285.999 57.2246 286.38 57.2246C286.76 57.2246 287.012 57.4883 287.012 57.8984V62.9434C287.012 63.3477 286.76 63.6113 286.38 63.6113ZM291.076 63.6172C289.312 63.6172 288.152 62.4043 288.152 60.418C288.152 58.4375 289.318 57.2246 291.076 57.2246C292.834 57.2246 294 58.4375 294 60.418C294 62.4043 292.839 63.6172 291.076 63.6172ZM291.076 62.5742C292.072 62.5742 292.71 61.7891 292.71 60.418C292.71 59.0527 292.066 58.2676 291.076 58.2676C290.085 58.2676 289.441 59.0527 289.441 60.418C289.441 61.7891 290.085 62.5742 291.076 62.5742ZM295.731 63.6113C295.356 63.6113 295.098 63.3594 295.098 62.9434V57.8633C295.098 57.4766 295.332 57.2246 295.702 57.2246C296.065 57.2246 296.317 57.4766 296.317 57.8691V58.3555H296.346C296.68 57.6523 297.325 57.2305 298.274 57.2305C299.633 57.2305 300.413 58.0977 300.413 59.5098V62.9434C300.413 63.3594 300.149 63.6113 299.774 63.6113C299.405 63.6113 299.141 63.3594 299.141 62.9434V59.7559C299.141 58.8301 298.707 58.3203 297.829 58.3203C296.938 58.3203 296.364 58.9531 296.364 59.9082V62.9434C296.364 63.3594 296.1 63.6113 295.731 63.6113ZM305.123 63.5C304.713 63.5 304.467 63.2422 304.467 62.8203V55.7246C304.467 55.3027 304.713 55.0449 305.123 55.0449H307.842C309.342 55.0449 310.326 55.877 310.326 57.1543C310.326 58.0508 309.664 58.8535 308.82 58.9941V59.041C309.969 59.1699 310.742 59.9844 310.742 61.1094C310.742 62.5977 309.658 63.5 307.86 63.5H305.123ZM305.779 58.6426H307.25C308.387 58.6426 309.014 58.1738 309.014 57.3359C309.014 56.5508 308.475 56.1172 307.526 56.1172H305.779V58.6426ZM305.779 62.4277H307.59C308.774 62.4277 309.401 61.9414 309.401 61.0273C309.401 60.1133 308.756 59.6445 307.514 59.6445H305.779V62.4277ZM313.974 63.6113C312.632 63.6113 311.812 62.7383 311.812 61.3262V57.8984C311.812 57.4766 312.069 57.2246 312.444 57.2246C312.814 57.2246 313.077 57.4766 313.077 57.8984V61.0801C313.077 62.0176 313.522 62.5215 314.396 62.5215C315.31 62.5215 315.86 61.8887 315.86 60.9277V57.8984C315.86 57.4766 316.124 57.2246 316.493 57.2246C316.868 57.2246 317.126 57.4766 317.126 57.8984V62.9668C317.126 63.3594 316.886 63.6113 316.522 63.6113C316.159 63.6113 315.913 63.3594 315.913 62.9727V62.457H315.884C315.544 63.1953 314.917 63.6113 313.974 63.6113ZM318.869 62.0234V58.3379H318.424C318.096 58.3379 317.896 58.1504 317.896 57.8398C317.896 57.5234 318.096 57.3359 318.424 57.3359H318.869V56.4219C318.869 56.0176 319.121 55.748 319.508 55.748C319.889 55.748 320.141 56.0176 320.141 56.4219V57.3359H320.861C321.189 57.3359 321.389 57.5293 321.389 57.8398C321.389 58.1504 321.189 58.3379 320.861 58.3379H320.141V61.7422C320.141 62.2344 320.31 62.457 320.768 62.4922L320.867 62.498C321.23 62.5332 321.412 62.6797 321.412 62.9785C321.412 63.3594 321.119 63.5527 320.498 63.5527H320.434C319.396 63.5527 318.869 63.043 318.869 62.0234ZM322.845 62.0234V58.3379H322.399C322.071 58.3379 321.872 58.1504 321.872 57.8398C321.872 57.5234 322.071 57.3359 322.399 57.3359H322.845V56.4219C322.845 56.0176 323.096 55.748 323.483 55.748C323.864 55.748 324.116 56.0176 324.116 56.4219V57.3359H324.837C325.165 57.3359 325.364 57.5293 325.364 57.8398C325.364 58.1504 325.165 58.3379 324.837 58.3379H324.116V61.7422C324.116 62.2344 324.286 62.457 324.743 62.4922L324.843 62.498C325.206 62.5332 325.388 62.6797 325.388 62.9785C325.388 63.3594 325.095 63.5527 324.473 63.5527H324.409C323.372 63.5527 322.845 63.043 322.845 62.0234ZM328.947 63.6172C327.183 63.6172 326.023 62.4043 326.023 60.418C326.023 58.4375 327.189 57.2246 328.947 57.2246C330.705 57.2246 331.871 58.4375 331.871 60.418C331.871 62.4043 330.711 63.6172 328.947 63.6172ZM328.947 62.5742C329.943 62.5742 330.582 61.7891 330.582 60.418C330.582 59.0527 329.937 58.2676 328.947 58.2676C327.957 58.2676 327.312 59.0527 327.312 60.418C327.312 61.7891 327.957 62.5742 328.947 62.5742ZM333.602 63.6113C333.227 63.6113 332.969 63.3594 332.969 62.9434V57.8633C332.969 57.4766 333.204 57.2246 333.573 57.2246C333.936 57.2246 334.188 57.4766 334.188 57.8691V58.3555H334.217C334.551 57.6523 335.196 57.2305 336.145 57.2305C337.504 57.2305 338.284 58.0977 338.284 59.5098V62.9434C338.284 63.3594 338.02 63.6113 337.645 63.6113C337.276 63.6113 337.012 63.3594 337.012 62.9434V59.7559C337.012 58.8301 336.579 58.3203 335.7 58.3203C334.809 58.3203 334.235 58.9531 334.235 59.9082V62.9434C334.235 63.3594 333.971 63.6113 333.602 63.6113Z" fill="#030303"/>
</g>
<defs>
<clipPath id="clip0_4495_36607">
<rect width="351" height="134" fill="white"/>
</clipPath>
</defs>
</svg>
