<svg width="23" height="22" viewBox="0 0 23 22" fill="none" xmlns="http://www.w3.org/2000/svg">
<path fill-rule="evenodd" clip-rule="evenodd" d="M11.4949 18.7978C15.8396 18.7978 19.3017 15.3348 19.2903 11.0005C19.2789 6.66619 15.8168 3.20312 11.4835 3.20312C7.14632 3.20312 3.70703 6.65477 3.70703 11.0005C3.70703 15.3462 7.15773 18.7978 11.4949 18.7978ZM8.66812 9.95044C8.0632 9.95044 7.53818 9.414 7.53818 8.65405C7.53818 7.87222 8.0632 7.33673 8.66812 7.33673C9.26924 7.33673 9.79426 7.87222 9.79426 8.65405C9.79426 9.414 9.25782 9.95044 8.66812 9.95044ZM14.3635 9.95044C13.7624 9.95044 13.2373 9.414 13.2373 8.65405C13.2373 7.87222 13.7624 7.33673 14.3635 7.33673C14.9684 7.33673 15.4934 7.87222 15.4934 8.65405C15.4934 9.414 14.957 9.95044 14.3635 9.95044ZM11.498 12.3752C13.4975 12.3752 14.838 13.7157 14.838 14.3524C14.838 14.5758 14.6146 14.6651 14.4247 14.5758C13.7321 14.196 12.8943 13.7603 11.498 13.7603C10.0905 13.7603 9.26379 14.196 8.56007 14.5758C8.37018 14.6651 8.15788 14.5758 8.15788 14.3524C8.15788 13.7157 9.48719 12.3752 11.498 12.3752Z" fill="white"/>
</svg>
