<svg width="25" height="24" viewBox="0 0 25 24" fill="none" xmlns="http://www.w3.org/2000/svg">
<path d="M12.4974 12.7863C14.3831 12.7863 16.0981 13.3325 17.3597 14.1022C17.9893 14.4863 18.5277 14.9396 18.9165 15.4323C19.299 15.9164 19.5807 16.4956 19.5807 17.115C19.5807 17.7801 19.2573 18.3042 18.7913 18.6781C18.3506 19.0322 17.769 19.2668 17.1511 19.4305C15.9092 19.7587 14.2517 19.8696 12.4974 19.8696C10.7431 19.8696 9.08559 19.7595 7.84365 19.4305C7.22582 19.2668 6.6442 19.0322 6.20346 18.6781C5.73675 18.3034 5.41406 17.7801 5.41406 17.115C5.41406 16.4956 5.69582 15.9164 6.07832 15.4315C6.46712 14.9396 7.00466 14.4871 7.63508 14.1015C8.8967 13.3333 10.6124 12.7863 12.4974 12.7863ZM12.4974 4.12891C13.5411 4.12891 14.542 4.5435 15.28 5.2815C16.018 6.01949 16.4326 7.02042 16.4326 8.06409C16.4326 9.10777 16.018 10.1087 15.28 10.8467C14.542 11.5847 13.5411 11.9993 12.4974 11.9993C11.4537 11.9993 10.4528 11.5847 9.7148 10.8467C8.97681 10.1087 8.56221 9.10777 8.56221 8.06409C8.56221 7.02042 8.97681 6.01949 9.7148 5.2815C10.4528 4.5435 11.4537 4.12891 12.4974 4.12891Z" fill="#030303"/>
</svg>
