<svg width="24" height="24" viewBox="0 0 24 24" fill="none" xmlns="http://www.w3.org/2000/svg">
<g clip-path="url(#clip0_2227_12280)">
<path d="M18.7692 20.5301C18.4042 20.5301 18.1087 20.2434 18.1087 19.8783V15.0461C17.8914 14.9506 17.0744 14.6377 15.7969 14.6377C12.5812 14.6377 10.5649 16.2107 7.50572 16.2107C6.14997 16.2107 5.6459 16.063 4.98538 15.7675C4.38564 15.4981 3.9946 15.0461 3.9946 14.2466V5.42529C3.9946 4.95597 4.39436 4.68656 4.89843 4.68656C5.32428 4.68656 6.1239 5.05157 7.61875 5.05157C10.6779 5.05157 12.6855 3.47852 15.9099 3.47852C17.2656 3.47852 17.7784 3.62626 18.4389 3.92175C19.0386 4.19117 19.4297 4.6431 19.4297 5.43398V19.8783C19.4297 20.2346 19.1255 20.5301 18.7692 20.5301ZM18.1087 11.0744V8.12817C17.987 7.84137 17.2656 7.44158 15.9099 7.44158C15.6318 7.44158 15.2493 7.45896 14.9452 7.49372V4.84299C13.7719 4.96467 12.7377 5.30361 11.6774 5.61649V8.26722C10.5997 8.59748 9.59151 8.87559 8.41828 8.97988V6.32914C8.15753 6.35522 7.89677 6.3639 7.61875 6.3639C6.6714 6.3639 5.88922 6.25092 5.30692 6.08579V8.73653C5.74148 8.85821 6.57581 9.01464 7.61875 9.01464C7.88814 9.01464 8.16625 8.99726 8.41828 8.97988V11.9261C8.16625 11.9522 7.92285 11.9609 7.61875 11.9609C6.6714 11.9609 5.88922 11.8479 5.30692 11.6828V14.2118C5.42858 14.4986 6.14997 14.8984 7.50572 14.8984C7.81863 14.8984 8.12282 14.8811 8.41828 14.8463V11.9261C9.59151 11.7957 10.5649 11.5785 11.6774 11.2134V14.0554C12.6855 13.7512 13.7284 13.4557 14.9452 13.3514V10.44C15.2754 10.4052 15.5014 10.3878 15.9099 10.3878C17.2656 10.3878 17.987 10.7876 18.1087 11.0744ZM14.9452 10.44C13.7458 10.5703 12.8333 10.8745 11.6774 11.2134V8.26722C12.7637 7.94566 13.7371 7.6154 14.9452 7.49372V10.44Z" fill="url(#paint0_linear_2227_12280)"/>
</g>
<defs>
<linearGradient id="paint0_linear_2227_12280" x1="11.7121" y1="3.47852" x2="11.7121" y2="20.5301" gradientUnits="userSpaceOnUse">
<stop stop-color="#4AA1FD"/>
<stop offset="1" stop-color="#BFDEFE"/>
</linearGradient>
<clipPath id="clip0_2227_12280">
<rect width="16" height="17.0603" fill="white" transform="matrix(-1 0 0 1 20 3.46973)"/>
</clipPath>
</defs>
</svg>
