<svg width="26" height="26" viewBox="0 0 26 26" fill="none" xmlns="http://www.w3.org/2000/svg">
<g clip-path="url(#clip0_2774_8383)">
<path d="M7.21484 12.9961C7.21484 13.2341 7.30054 13.4436 7.48145 13.6245L15.032 21.0037C15.1938 21.175 15.4033 21.2607 15.6509 21.2607C16.146 21.2607 16.5269 20.8894 16.5269 20.3943C16.5269 20.1467 16.4221 19.9373 16.2698 19.7754L9.33813 12.9961L16.2698 6.2168C16.4221 6.05493 16.5269 5.83594 16.5269 5.5979C16.5269 5.10278 16.146 4.73145 15.6509 4.73145C15.4033 4.73145 15.1938 4.81714 15.032 4.979L7.48145 12.3677C7.30054 12.5391 7.21484 12.7581 7.21484 12.9961Z" fill="#030303" fill-opacity="0.3"/>
</g>
<defs>
<clipPath id="clip0_2774_8383">
<rect width="12.0828" height="16.5388" fill="white" transform="translate(7.21484 4.73096)"/>
</clipPath>
</defs>
</svg>
