<svg width="24" height="24" viewBox="0 0 24 24" fill="none" xmlns="http://www.w3.org/2000/svg">
<path d="M5.78815 20.1688H17.9004C19.7537 20.1688 20.6759 19.2467 20.6759 17.4201V6.5935C20.6759 4.7669 19.7537 3.84473 17.9004 3.84473H5.78815C3.93494 3.84473 3.00391 4.75803 3.00391 6.5935V17.4201C3.00391 19.2556 3.93494 20.1688 5.78815 20.1688ZM5.65514 18.7413C4.86598 18.7413 4.4315 18.3245 4.4315 17.4999V9.13833C4.4315 8.32256 4.86598 7.89695 5.65514 7.89695H18.0157C18.8049 7.89695 19.2482 8.32256 19.2482 9.13833V17.4999C19.2482 18.3245 18.8049 18.7413 18.0157 18.7413H5.65514ZM10.1152 11.0802H10.6384C10.9487 11.0802 11.0463 10.9915 11.0463 10.6812V10.158C11.0463 9.84769 10.9487 9.75015 10.6384 9.75015H10.1152C9.80489 9.75015 9.6985 9.84769 9.6985 10.158V10.6812C9.6985 10.9915 9.80489 11.0802 10.1152 11.0802ZM13.0591 11.0802H13.5823C13.8926 11.0802 13.999 10.9915 13.999 10.6812V10.158C13.999 9.84769 13.8926 9.75015 13.5823 9.75015H13.0591C12.7487 9.75015 12.6423 9.84769 12.6423 10.158V10.6812C12.6423 10.9915 12.7487 11.0802 13.0591 11.0802ZM16.0029 11.0802H16.5261C16.8365 11.0802 16.9429 10.9915 16.9429 10.6812V10.158C16.9429 9.84769 16.8365 9.75015 16.5261 9.75015H16.0029C15.6926 9.75015 15.5951 9.84769 15.5951 10.158V10.6812C15.5951 10.9915 15.6926 11.0802 16.0029 11.0802ZM7.17139 13.9797H7.68568C8.00489 13.9797 8.10243 13.8911 8.10243 13.5807V13.0575C8.10243 12.7472 8.00489 12.6585 7.68568 12.6585H7.17139C6.85218 12.6585 6.75465 12.7472 6.75465 13.0575V13.5807C6.75465 13.8911 6.85218 13.9797 7.17139 13.9797ZM10.1152 13.9797H10.6384C10.9487 13.9797 11.0463 13.8911 11.0463 13.5807V13.0575C11.0463 12.7472 10.9487 12.6585 10.6384 12.6585H10.1152C9.80489 12.6585 9.6985 12.7472 9.6985 13.0575V13.5807C9.6985 13.8911 9.80489 13.9797 10.1152 13.9797ZM13.0591 13.9797H13.5823C13.8926 13.9797 13.999 13.8911 13.999 13.5807V13.0575C13.999 12.7472 13.8926 12.6585 13.5823 12.6585H13.0591C12.7487 12.6585 12.6423 12.7472 12.6423 13.0575V13.5807C12.6423 13.8911 12.7487 13.9797 13.0591 13.9797ZM16.0029 13.9797H16.5261C16.8365 13.9797 16.9429 13.8911 16.9429 13.5807V13.0575C16.9429 12.7472 16.8365 12.6585 16.5261 12.6585H16.0029C15.6926 12.6585 15.5951 12.7472 15.5951 13.0575V13.5807C15.5951 13.8911 15.6926 13.9797 16.0029 13.9797ZM7.17139 16.8881H7.68568C8.00489 16.8881 8.10243 16.7905 8.10243 16.4802V15.9571C8.10243 15.6467 8.00489 15.558 7.68568 15.558H7.17139C6.85218 15.558 6.75465 15.6467 6.75465 15.9571V16.4802C6.75465 16.7905 6.85218 16.8881 7.17139 16.8881ZM10.1152 16.8881H10.6384C10.9487 16.8881 11.0463 16.7905 11.0463 16.4802V15.9571C11.0463 15.6467 10.9487 15.558 10.6384 15.558H10.1152C9.80489 15.558 9.6985 15.6467 9.6985 15.9571V16.4802C9.6985 16.7905 9.80489 16.8881 10.1152 16.8881ZM13.0591 16.8881H13.5823C13.8926 16.8881 13.999 16.7905 13.999 16.4802V15.9571C13.999 15.6467 13.8926 15.558 13.5823 15.558H13.0591C12.7487 15.558 12.6423 15.6467 12.6423 15.9571V16.4802C12.6423 16.7905 12.7487 16.8881 13.0591 16.8881Z" fill="#75B8FD"/>
</svg>
