<svg width="351" height="134" viewBox="0 0 351 134" fill="none" xmlns="http://www.w3.org/2000/svg">
<g clip-path="url(#clip0_4495_36645)">
<rect width="351" height="134" fill="#E7E7E7"/>
<rect x="231.5" y="30" width="180" height="180" rx="17" fill="#DCDCDC"/>
<path d="M247.594 115.35C247.594 111.291 250.884 108 254.944 108H329.15C333.209 108 336.5 111.291 336.5 115.35V117.634C336.5 121.693 333.209 124.984 329.15 124.984H254.944C250.884 124.984 247.594 121.693 247.594 117.634V115.35Z" fill="#CFCFCF"/>
<path d="M296.103 116.493C296.103 118.707 294.266 120.548 292.048 120.548C289.833 120.548 287.992 118.707 287.992 116.493C287.992 114.274 289.829 112.437 292.044 112.437C294.262 112.437 296.103 114.274 296.103 116.493ZM291.702 114.902V116.147H290.457C290.251 116.147 290.107 116.29 290.107 116.497C290.107 116.699 290.251 116.835 290.457 116.835H291.702V118.083C291.702 118.286 291.841 118.433 292.044 118.433C292.251 118.433 292.394 118.29 292.394 118.083V116.835H293.642C293.845 116.835 293.992 116.699 293.992 116.497C293.992 116.29 293.845 116.147 293.642 116.147H292.394V114.902C292.394 114.695 292.251 114.548 292.044 114.548C291.841 114.548 291.702 114.695 291.702 114.902Z" fill="white"/>
<rect x="244.5" y="44" width="92" height="57" rx="8" fill="#CFCFCF"/>
<rect x="250.5" y="49" width="18.2095" height="18.2095" rx="4.05445" fill="#B5D9FF"/>
<g opacity="0.7" filter="url(#filter0_f_4495_36645)">
<path fill-rule="evenodd" clip-rule="evenodd" d="M255.192 57.0186C254.274 56.1005 254.274 54.612 255.192 53.6939C256.111 52.7759 257.599 52.7759 258.517 53.6939L259.604 54.7809L260.691 53.694C261.609 52.7759 263.097 52.7759 264.016 53.694C264.934 54.6121 264.934 56.1006 264.016 57.0186L262.929 58.1055L264.015 59.1915C264.933 60.1096 264.933 61.5981 264.015 62.5161C263.097 63.4342 261.608 63.4342 260.69 62.5161L259.604 61.4301L258.518 62.5162C257.6 63.4343 256.111 63.4343 255.193 62.5162C254.275 61.5981 254.275 60.1097 255.193 59.1916L256.279 58.1055L255.192 57.0186ZM255.518 56.6935C254.779 55.9549 254.779 54.7575 255.518 54.019C256.256 53.2804 257.453 53.2804 258.192 54.019L259.604 55.431L261.016 54.0191C261.755 53.2805 262.952 53.2805 263.69 54.0191C264.429 54.7576 264.429 55.955 263.69 56.6936L262.279 58.1055L263.69 59.5166C264.428 60.2551 264.428 61.4525 263.69 62.1911C262.951 62.9296 261.754 62.9296 261.015 62.1911L259.604 60.78L258.193 62.1912C257.454 62.9297 256.257 62.9297 255.518 62.1912C254.78 61.4526 254.78 60.2552 255.518 59.5167L256.93 58.1055L255.518 56.6935Z" fill="white"/>
<rect x="262.246" y="52.5767" width="3.78232" height="11.5571" rx="1.89116" transform="rotate(45 262.246 52.5767)" fill="white" fill-opacity="0.28"/>
<rect x="253.749" y="55.2512" width="4.24203" height="12.0168" rx="2.12101" transform="rotate(-45 253.749 55.2512)" fill="#ABCFF8" stroke="white" stroke-width="0.459706"/>
<rect x="257.895" y="56.8141" width="4.24203" height="5.71293" rx="2.12101" transform="rotate(45 257.895 56.8141)" fill="#D9E9FC" stroke="white" stroke-width="0.459706"/>
</g>
<path fill-rule="evenodd" clip-rule="evenodd" d="M255.192 57.0186C254.274 56.1005 254.274 54.612 255.192 53.6939C256.111 52.7759 257.599 52.7759 258.517 53.6939L259.604 54.7809L260.691 53.694C261.609 52.7759 263.097 52.7759 264.016 53.694C264.934 54.6121 264.934 56.1006 264.016 57.0186L262.929 58.1055L264.015 59.1915C264.933 60.1096 264.933 61.5981 264.015 62.5161C263.097 63.4342 261.608 63.4342 260.69 62.5161L259.604 61.4301L258.518 62.5162C257.6 63.4343 256.111 63.4343 255.193 62.5162C254.275 61.5981 254.275 60.1097 255.193 59.1916L256.279 58.1055L255.192 57.0186ZM255.518 56.6935C254.779 55.9549 254.779 54.7575 255.518 54.019C256.256 53.2804 257.453 53.2804 258.192 54.019L259.604 55.431L261.016 54.0191C261.755 53.2805 262.952 53.2805 263.69 54.0191C264.429 54.7576 264.429 55.955 263.69 56.6936L262.279 58.1055L263.69 59.5166C264.428 60.2551 264.428 61.4525 263.69 62.1911C262.951 62.9296 261.754 62.9296 261.015 62.1911L259.604 60.78L258.193 62.1912C257.454 62.9297 256.257 62.9297 255.518 62.1912C254.78 61.4526 254.78 60.2552 255.518 59.5167L256.93 58.1055L255.518 56.6935Z" fill="white"/>
<rect x="262.352" y="52.6814" width="3.78232" height="11.5571" rx="1.89116" transform="rotate(45 262.352 52.6814)" fill="#C8E2FE"/>
<rect x="253.855" y="55.356" width="4.24203" height="12.0168" rx="2.12101" transform="rotate(-45 253.855 55.356)" fill="#B4D8FE" stroke="white" stroke-width="0.459706"/>
<rect x="257.895" y="56.8141" width="4.24203" height="5.71293" rx="2.12101" transform="rotate(45 257.895 56.8141)" fill="#C8E2FE" stroke="white" stroke-width="0.459706"/>
<path opacity="0.5" d="M251.247 93.0703C250.953 93.0703 250.755 92.8901 250.755 92.6221C250.755 92.5474 250.772 92.4507 250.816 92.332L252.746 87.1025C252.873 86.751 253.088 86.5884 253.436 86.5884C253.778 86.5884 253.989 86.7466 254.121 87.0981L256.055 92.332C256.099 92.4551 256.116 92.5386 256.116 92.6221C256.116 92.8813 255.91 93.0703 255.624 93.0703C255.36 93.0703 255.215 92.9473 255.127 92.666L254.644 91.2993H252.218L251.739 92.6616C251.647 92.9473 251.502 93.0703 251.247 93.0703ZM252.469 90.4951H254.394L253.44 87.7134H253.414L252.469 90.4951ZM258.544 93.0791C257.375 93.0791 256.602 92.1475 256.602 90.6885C256.602 89.2295 257.375 88.3022 258.535 88.3022C259.199 88.3022 259.726 88.6362 259.986 89.146H260.003V87.0762C260.003 86.7642 260.201 86.5752 260.482 86.5752C260.759 86.5752 260.957 86.7642 260.957 87.0762V92.6089C260.957 92.9077 260.763 93.0835 260.486 93.0835C260.218 93.0835 260.003 92.9077 260.003 92.6089V92.1782H259.99C259.753 92.7188 259.265 93.0791 258.544 93.0791ZM258.795 92.2749C259.524 92.2749 260.012 91.6553 260.012 90.6885C260.012 89.7305 259.524 89.1021 258.795 89.1021C258.043 89.1021 257.573 89.7173 257.573 90.6885C257.573 91.6641 258.043 92.2749 258.795 92.2749ZM263.758 93.0791C262.589 93.0791 261.816 92.1475 261.816 90.6885C261.816 89.2295 262.589 88.3022 263.749 88.3022C264.413 88.3022 264.94 88.6362 265.2 89.146H265.217V87.0762C265.217 86.7642 265.415 86.5752 265.696 86.5752C265.973 86.5752 266.171 86.7642 266.171 87.0762V92.6089C266.171 92.9077 265.977 93.0835 265.701 93.0835C265.432 93.0835 265.217 92.9077 265.217 92.6089V92.1782H265.204C264.967 92.7188 264.479 93.0791 263.758 93.0791ZM264.009 92.2749C264.738 92.2749 265.226 91.6553 265.226 90.6885C265.226 89.7305 264.738 89.1021 264.009 89.1021C263.257 89.1021 262.787 89.7173 262.787 90.6885C262.787 91.6641 263.257 92.2749 264.009 92.2749ZM270.508 93.0791C269.603 93.0791 268.965 92.5166 268.965 91.686C268.965 90.8774 269.589 90.3809 270.684 90.3193L271.954 90.2446V89.8887C271.954 89.3745 271.607 89.0669 271.027 89.0669C270.569 89.0669 270.266 89.2295 270.003 89.6514C269.906 89.792 269.783 89.8535 269.616 89.8535C269.379 89.8535 269.207 89.6953 269.207 89.458C269.207 89.3613 269.234 89.2559 269.291 89.1504C269.532 88.6274 270.231 88.2935 271.062 88.2935C272.182 88.2935 272.899 88.8867 272.899 89.814V92.6045C272.899 92.9033 272.71 93.0835 272.442 93.0835C272.178 93.0835 271.998 92.9121 271.989 92.6309V92.2397H271.967C271.699 92.7539 271.11 93.0791 270.508 93.0791ZM270.767 92.3276C271.431 92.3276 271.954 91.8706 271.954 91.2686V90.9038L270.811 90.9741C270.244 91.0137 269.923 91.2642 269.923 91.6597C269.923 92.064 270.262 92.3276 270.767 92.3276ZM276.304 94.6392C276.023 94.6392 275.83 94.4458 275.83 94.1338V88.7812C275.83 88.478 276.019 88.2935 276.287 88.2935C276.555 88.2935 276.748 88.478 276.748 88.7812V89.1724H276.766C277.038 88.6406 277.57 88.3022 278.238 88.3022C279.411 88.3022 280.185 89.2251 280.185 90.6885C280.185 92.1519 279.415 93.0791 278.255 93.0791C277.592 93.0791 277.064 92.7539 276.801 92.2397H276.779V94.1338C276.779 94.4458 276.581 94.6392 276.304 94.6392ZM277.987 92.2749C278.739 92.2749 279.209 91.6597 279.209 90.6885C279.209 89.7217 278.739 89.1021 277.987 89.1021C277.262 89.1021 276.774 89.7349 276.774 90.6885C276.774 91.6509 277.258 92.2749 277.987 92.2749ZM282.608 93.0835C281.602 93.0835 280.986 92.4287 280.986 91.3696V88.7988C280.986 88.4824 281.18 88.2935 281.461 88.2935C281.738 88.2935 281.936 88.4824 281.936 88.7988V91.1851C281.936 91.8882 282.27 92.2661 282.924 92.2661C283.61 92.2661 284.023 91.7915 284.023 91.0708V88.7988C284.023 88.4824 284.221 88.2935 284.498 88.2935C284.779 88.2935 284.972 88.4824 284.972 88.7988V92.6001C284.972 92.8945 284.792 93.0835 284.52 93.0835C284.247 93.0835 284.063 92.8945 284.063 92.6045V92.2178H284.041C283.786 92.7715 283.316 93.0835 282.608 93.0835ZM286.759 93.0835C286.469 93.0835 286.28 92.9033 286.28 92.5869V89.1284H285.95C285.726 89.1284 285.572 88.9966 285.572 88.7593C285.572 88.5308 285.726 88.3857 285.95 88.3857H286.28V87.9331C286.28 87.0366 286.715 86.6191 287.51 86.6147C288.015 86.6147 288.257 86.7773 288.257 87.0322C288.257 87.186 288.182 87.2783 288.029 87.3223C287.963 87.3398 287.884 87.353 287.787 87.353C287.387 87.3574 287.22 87.5464 287.22 87.9683V88.3857H287.844C288.068 88.3857 288.222 88.5308 288.222 88.7593C288.222 88.9966 288.068 89.1284 287.844 89.1284H287.233V92.5869C287.233 92.9033 287.044 93.0835 286.759 93.0835ZM289.749 93.0835C289.459 93.0835 289.27 92.9033 289.27 92.5869V89.1284H288.94C288.716 89.1284 288.562 88.9966 288.562 88.7593C288.562 88.5308 288.716 88.3857 288.94 88.3857H289.27V87.9331C289.27 87.0366 289.705 86.6191 290.5 86.6147C291.006 86.6147 291.248 86.7773 291.248 87.0322C291.248 87.186 291.173 87.2783 291.019 87.3223C290.953 87.3398 290.874 87.353 290.777 87.353C290.377 87.3574 290.21 87.5464 290.21 87.9683V88.3857H290.834C291.059 88.3857 291.212 88.5308 291.212 88.7593C291.212 88.9966 291.059 89.1284 290.834 89.1284H290.224V92.5869C290.224 92.9033 290.035 93.0835 289.749 93.0835Z" fill="#454545"/>
</g>
<defs>
<filter id="filter0_f_4495_36645" x="253.178" y="51.8984" width="12.5275" height="12.632" filterUnits="userSpaceOnUse" color-interpolation-filters="sRGB">
<feFlood flood-opacity="0" result="BackgroundImageFix"/>
<feBlend mode="normal" in="SourceGraphic" in2="BackgroundImageFix" result="shape"/>
<feGaussianBlur stdDeviation="0.501007" result="effect1_foregroundBlur_4495_36645"/>
</filter>
<clipPath id="clip0_4495_36645">
<rect width="351" height="134" fill="white"/>
</clipPath>
</defs>
</svg>
